{
.appVersion = "3151";
.formatVersion = 3;
classes = (
{
automatic = 1;
code = "A Aacute Abreve Acircumflex Adieresis Agrave Amacron Aogonek Aring Aringacute Atilde AE AEacute B C Cacute Ccaron Ccedilla Ccircumflex Cdotaccent D Eth Dcaron Dcroat E Eacute Ebreve Ecaron Ecircumflex Edieresis Edotaccent Egrave Emacron Eogonek F G Gbreve Gcircumflex Gcommaaccent Gdotaccent H Hbar Hcircumflex I IJ Iacute Ibreve Icircumflex Idieresis Idotaccent Igrave Imacron Iogonek Itilde J Jcircumflex K Kcommaaccent L Lacute Lcaron Lcommaaccent Ldot Lslash M N Nacute Ncaron Ncommaaccent Ntilde Eng O Oacute Obreve Ocircumflex Odieresis Ograve Ohungarumlaut Omacron Oslash Oslashacute Otilde OE P Thorn Q R Racute Rcaron Rcommaaccent S Sacute Scaron Scedilla Scircumflex Scommaaccent T Tbar Tcaron Tcedilla Tcommaaccent U Uacute Ubreve Ucircumflex Udieresis Ugrave Uhungarumlaut Umacron Uogonek Uring Utilde V W Wacute Wcircumflex Wdieresis Wgrave X Y Yacute Ycircumflex Ydieresis Ygrave Z Zacute Zcaron Zdotaccent Delta Omega";
name = Uppercase;
}
);
customParameters = (
{
name = fsType;
value = (
);
},
{
name = "Use Typo Metrics";
value = 1;
}
);
date = "2023-02-22 16:08:52 +0000";
familyName = Mate;
featurePrefixes = (
{
automatic = 1;
code = "languagesystem DFLT dflt;

languagesystem latn dflt;
languagesystem latn AZE;
languagesystem latn CRT;
languagesystem latn KAZ;
languagesystem latn TAT;
languagesystem latn TRK;
languagesystem latn ROM;
languagesystem latn MOL;
languagesystem latn CAT;
";
name = Languagesystems;
}
);
features = (
{
automatic = 1;
code = "feature locl;
feature sups;
feature frac;
feature ordn;
feature case;
feature salt;
";
tag = aalt;
},
{
automatic = 1;
code = "lookup ccmp_Other_1 {
	@CombiningTopAccents = [acutecomb brevecomb caroncomb circumflexcomb commaturnedabovecomb dieresiscomb dotaccentcomb gravecomb hungarumlautcomb macroncomb ringcomb tildecomb];
	@CombiningNonTopAccents = [cedillacomb ogonekcomb];
	sub [i j]' @CombiningTopAccents by [idotless jdotless];

glyphs = (
{
glyphname = A;
kernLeft = A;
kernRight = A;
lastChange = "2023-02-24 11:16:29 +0000";
layers = (
{
anchors = (
{
name = bottom;
pos = (330,0);
},
{
name = ogonek;
pos = (662,7);
},
{
name = top;
pos = (330,700);
}
);
background = {
shapes = (
{
closed = 1;
nodes = (
(179,215,l),
(454,229,l),
(517,52,l),
(427,30,l),
(427,22,o),
(427,0,o),
(442,0,cs),
(442,0,o),
(453,0,o),
(561,4,c),
(648,0,o),
(660,0,o),
(660,0,c),
(675,0,o),
(675,23,o),
(675,30,c),
(600,52,l),
(368,700,l),
(292,700,l),
(62,52,l),
(-13,30,l),
(-13,23,o),
(-13,0,o),
(2,0,cs),
(2,0,o),
(6,0,o),
(93,4,c),
(201,0,o),
(204,0,o),
(204,0,c),
(219,0,o),
(219,22,o),
(219,30,c),
(124,52,l,{
name = hr00;
})
);
},
{
closed = 1;
nodes = (
(439,273,l),
(199,273,l),
(317,619,l)
);
}
);
};
layerId = master01;
shapes = (
{
closed = 1;
nodes = (
(93,4,l),
(204,0,ls),
(219,-1,o),
(219,22,o),
(219,30,c),
(124,52,l,{
name = hr00;
}),
(179,215,l),
(454,229,l),
(517,52,l),
(427,30,l),
(427,22,o),
(427,0,o),
(442,0,c),
(442,0,o),
(453,0,o),
(561,4,c),
(648,0,o),
(660,0,o),
(660,0,c),
(675,0,o),
(675,23,o),
(675,30,c),
(600,52,l),
(368,700,l),
(292,700,l),
(62,52,l),
(-13,30,l),
(-13,23,o),
(-13,-1,o),
(2,0,cs)
);
},
{
closed = 1;
nodes = (
(317,619,l),
(439,273,l),
(199,273,l)
);
}
);
width = 660;
}
);
unicode = 65;
},
{
glyphname = Aacute;
kernLeft = A;
kernRight = A;
lastChange = "2023-02-24 11:16:29 +0000";
layers = (
{
background = {
shapes = (
{
closed = 1;
nodes = (
(179,215,l),
(454,229,l),
(517,52,l),
(427,30,l),
(427,22,o),
(427,0,o),
(442,0,cs),
(442,0,o),
(453,0,o),
(561,4,c),
(648,0,o),
(660,0,o),
(660,0,c),
(675,0,o),
(675,23,o),
(675,30,c),
(600,52,l),
(368,700,l),
(292,700,l),
(62,52,l),
(-13,30,l),
(-13,23,o),
(-13,0,o),
(2,0,cs),
(2,0,o),
(6,0,o),
(93,4,c),
(201,0,o),
(204,0,o),
(204,0,c),
(219,0,o),
(219,22,o),
(219,30,c),
(124,52,l,{
name = hr00;
})
);
},
{
closed = 1;
nodes = (
(439,273,l),
(199,273,l),
(317,619,l)
);
},
{
closed = 1;
nodes = (
(288,772,o),
(386,802,o),
(453,845,cs),
(457,847,o),
(458,852,o),
(458,857,cs),
(458,877,o),
(438,918,o),
(433,924,c),
(338,847,o),
(241,781,o),
(241,781,c),
(252,762,l,{
name = hr00;
})
);
}
);
};
layerId = master01;
shapes = (
{
ref = A;
},
{
pos = (171,0);
ref = acutecomb.case;
}
);
width = 660;
}
);
unicode = 193;
},
{
glyphname = Abreve;
kernLeft = A;
kernRight = A;
lastChange = "2023-02-24 11:16:29 +0000";
layers = (
{
background = {
shapes = (
{
closed = 1;
nodes = (
(179,215,l),
(454,229,l),
(517,52,l),
(427,30,l),
(427,22,o),
(427,0,o),
(442,0,cs),
(442,0,o),
(453,0,o),
(561,4,c),
(648,0,o),
(660,0,o),
(660,0,c),
(675,0,o),
(675,23,o),
(675,30,c),
(600,52,l),
(368,700,l),
(292,700,l),
(62,52,l),
(-13,30,l),
(-13,23,o),
(-13,0,o),
(2,0,cs),
(2,0,o),
(6,0,o),
(93,4,c),
(201,0,o),
(204,0,o),
(204,0,c),
(219,0,o),
(219,22,o),
(219,30,c),
(124,52,l,{
name = hr00;
})
);
},
{
closed = 1;
nodes = (
(439,273,l),
(199,273,l),
(317,619,l)
);
},
{
closed = 1;
nodes = (
(292,821,o),
(263,857,o),
(241,913,c),
(207,905,l),
(239,808,o),
(270,754,o),
(330,754,cs),
(390,754,o),
(421,808,o),
(453,905,c),
(419,913,l),
(397,857,o),
(368,821,o),
(330,821,cs,{
name = hr00;
})
);
}
);
};
layerId = master01;
shapes = (
{
ref = A;
},
{
pos = (164,0);
ref = brevecomb.case;
}
);
width = 660;
}
);
unicode = 258;
},
{
glyphname = Acircumflex;
kernLeft = A;
kernRight = A;
lastChange = "2023-02-24 11:16:29 +0000";
layers = (
{
background = {
shapes = (
{
closed = 1;
nodes = (
(179,215,l),
(454,229,l),
(517,52,l),
(427,30,l),
(427,22,o),
(427,0,o),
(442,0,cs),
(442,0,o),
(453,0,o),
(561,4,c),
(648,0,o),
(660,0,o),
(660,0,c),
(675,0,o),
(675,23,o),
(675,30,c),
(600,52,l),
(368,700,l),
(292,700,l),
(62,52,l),
(-13,30,l),
(-13,23,o),
(-13,0,o),
(2,0,cs),
(2,0,o),
(6,0,o),
(93,4,c),
(201,0,o),
(204,0,o),
(204,0,c),
(219,0,o),
(219,22,o),
(219,30,c),
(124,52,l,{
name = hr00;
})
);
},
{
closed = 1;
nodes = (
(439,273,l),
(199,273,l),
(317,619,l)
);
},
{
closed = 1;
nodes = (
(446,753,l),
(472,770,l),
(428,833,o),
(395,886,o),
(372,929,c),
(327,929,l),
(304,886,o),
(271,833,o),
(227,770,c),
(253,753,l),
(350,855,l,{
name = hr00;
})
);
}
);
};
layerId = master01;
shapes = (
{
ref = A;
},
{
pos = (162,0);
ref = circumflexcomb.case;
}
);
width = 660;
}
);
unicode = 194;
},
{
glyphname = Adieresis;
kernLeft = A;
kernRight = A;
lastChange = "2023-02-24 11:16:29 +0000";
layers = (
{
background = {
shapes = (
{
closed = 1;
nodes = (
(179,215,l),
(454,229,l),
(517,52,l),
(427,30,l),
(427,22,o),
(427,0,o),
(442,0,cs),
(442,0,o),
(453,0,o),
(561,4,c),
(648,0,o),
(660,0,o),
(660,0,c),
(675,0,o),
(675,23,o),
(675,30,c),
(600,52,l),
(368,700,l),
(292,700,l),
(62,52,l),
(-13,30,l),
(-13,23,o),
(-13,0,o),
(2,0,cs),
(2,0,o),
(6,0,o),
(93,4,c),
(201,0,o),
(204,0,o),
(204,0,c),
(219,0,o),
(219,22,o),
(219,30,c),
(124,52,l,{
name = hr00;
})
);
},
{
closed = 1;
nodes = (
(439,273,l),
(199,273,l),
(317,619,l)
);
},
{
closed = 1;
nodes = (
(263,900,o),
(234,894,o),
(234,894,c),
(234,894,o),
(227,867,o),
(227,841,cs),
(227,816,o),
(233,791,o),
(258,791,cs),
(276,791,o),
(304,799,o),
(304,799,c),
(304,799,o),
(310,825,o),
(310,850,cs),
(310,876,o),
(302,900,o),
(280,900,cs,{
name = hr00;
})
);
},
{
closed = 1;
nodes = (
(431,900,o),
(402,894,o),
(402,894,c),
(402,894,o),
(395,867,o),
(395,841,cs),
(395,816,o),
(401,791,o),
(426,791,cs),
(444,791,o),
(472,799,o),
(472,799,c),
(472,799,o),
(478,825,o),
(478,850,cs),
(478,876,o),
(470,900,o),
(448,900,cs)
);
}
);
};
layerId = master01;
shapes = (
{
ref = A;
},
{
pos = (140,0);
ref = dieresiscomb.case;
}
);
width = 660;
}
);
unicode = 196;
},
{
glyphname = Agrave;
kernLeft = A;
kernRight = A;
lastChange = "2023-02-24 11:16:29 +0000";
layers = (
{
background = {
shapes = (
{
closed = 1;
nodes = (
(179,215,l),
(454,229,l),
(517,52,l),
(427,30,l),
(427,22,o),
(427,0,o),
(442,0,cs),
(442,0,o),
(453,0,o),
(561,4,c),
(648,0,o),
(660,0,o),
(660,0,c),
(675,0,o),
(675,23,o),
(675,30,c),
(600,52,l),
(368,700,l),
(292,700,l),
(62,52,l),
(-13,30,l),
(-13,23,o),
(-13,0,o),
(2,0,cs),
(2,0,o),
(6,0,o),
(93,4,c),
(201,0,o),
(204,0,o),
(204,0,c),
(219,0,o),
(219,22,o),
(219,30,c),
(124,52,l,{
name = hr00;
})
);
},
{
closed = 1;
nodes = (
(439,273,l),
(199,273,l),
(317,619,l)
);
},
{
closed = 1;
nodes = (
(458,781,o),
(361,847,o),
(266,924,c),
(261,918,o),
(241,877,o),
(241,857,cs),
(241,852,o),
(242,847,o),
(246,845,cs),
(313,802,o),
(411,772,o),
(447,762,c),
(458,781,l,{
name = hr00;
})
);
}
);
};
layerId = master01;
shapes = (
{
ref = A;
},
{
pos = (171,0);
ref = gravecomb.case;
}
);
width = 660;
}
);
unicode = 192;
},
{
glyphname = Amacron;
kernLeft = A;
kernRight = A;
lastChange = "2023-02-24 11:16:29 +0000";
layers = (
{
background = {
shapes = (
{
closed = 1;
nodes = (
(179,215,l),
(454,229,l),
(517,52,l),
(427,30,l),
(427,22,o),
(427,0,o),
(442,0,cs),
(442,0,o),
(453,0,o),
(561,4,c),
(648,0,o),
(660,0,o),
(660,0,c),
(675,0,o),
(675,23,o),
(675,30,c),
(600,52,l),
(368,700,l),
(292,700,l),
(62,52,l),
(-13,30,l),
(-13,23,o),
(-13,0,o),
(2,0,cs),
(2,0,o),
(6,0,o),
(93,4,c),
(201,0,o),
(204,0,o),
(204,0,c),
(219,0,o),
(219,22,o),
(219,30,c),
(124,52,l,{
name = hr00;
})
);
},
{
closed = 1;
nodes = (
(439,273,l),
(199,273,l),
(317,619,l)
);
},
{
closed = 1;
nodes = (
(470,814,l),
(470,877,l),
(189,877,l),
(189,814,l,{
name = hr00;
})
);
}
);
};
layerId = master01;
shapes = (
{
ref = A;
},
{
pos = (119,0);
ref = macroncomb.case;
}
);
width = 660;
}
);
unicode = 256;
},
{
glyphname = Aogonek;
kernLeft = A;
kernRight = A;
lastChange = "2023-02-24 11:16:29 +0000";
layers = (
{
background = {
shapes = (
{
closed = 1;
nodes = (
(179,215,l),
(454,229,l),
(517,52,l),
(427,30,l),
(427,22,o),
(427,0,o),
(442,0,cs),
(442,0,o),
(453,0,o),
(561,4,c),
(648,0,o),
(660,0,o),
(660,0,c),
(675,0,o),
(675,23,o),
(675,30,c),
(600,52,l),
(368,700,l),
(292,700,l),
(62,52,l),
(-13,30,l),
(-13,23,o),
(-13,0,o),
(2,0,cs),
(2,0,o),
(6,0,o),
(93,4,c),
(201,0,o),
(204,0,o),
(204,0,c),
(219,0,o),
(219,22,o),
(219,30,c),
(124,52,l,{
name = hr00;
})
);
},
{
closed = 1;
nodes = (
(439,273,l),
(199,273,l),
(317,619,l)
);
},
{
closed = 1;
nodes = (
(506,-29,o),
(471,-90,o),
(471,-141,cs),
(471,-191,o),
(507,-233,o),
(574,-233,cs),
(613,-233,o),
(642,-218,o),
(660,-202,c),
(657,-188,o),
(652,-180,o),
(643,-172,c),
(627,-183,o),
(607,-189,o),
(588,-189,cs),
(558,-189,o),
(531,-173,o),
(531,-134,cs),
(531,-85,o),
(569,-18,o),
(662,7,c),
(583,7,l,{
name = hr00;
})
);
}
);
};
layerId = master01;
shapes = (
{
ref = A;
},
{
pos = (336,0);
ref = ogonekcomb;
}
);
width = 660;
}
);
unicode = 260;
},
{
glyphname = Aring;
kernLeft = A;
kernRight = A;
lastChange = "2023-02-24 11:16:29 +0000";
layers = (
{
background = {
shapes = (
{
closed = 1;
nodes = (
(179,215,l),
(454,229,l),
(517,52,l),
(427,30,l),
(427,22,o),
(427,0,o),
(442,0,cs),
(442,0,o),
(453,0,o),
(561,4,c),
(648,0,o),
(660,0,o),
(660,0,c),
(675,0,o),
(675,23,o),
(675,30,c),
(600,52,l),
(368,700,l),
(292,700,l),
(62,52,l),
(-13,30,l),
(-13,23,o),
(-13,0,o),
(2,0,cs),
(2,0,o),
(6,0,o),
(93,4,c),
(201,0,o),
(204,0,o),
(204,0,c),
(219,0,o),
(219,22,o),
(219,30,c),
(124,52,l,{
name = hr00;
})
);
},
{
closed = 1;
nodes = (
(439,273,l),
(199,273,l),
(317,619,l)
);
},
{
closed = 1;
nodes = (
(422,907,o),
(381,935,o),
(331,935,cs),
(280,935,o),
(237,904,o),
(237,848,cs),
(237,788,o),
(276,759,o),
(327,759,cs),
(383,759,o),
(422,788,o),
(422,850,cs,{
name = hr00;
})
);
},
{
closed = 1;
nodes = (
(283,870,o),
(290,891,o),
(303,897,c),
(309,900,o),
(320,902,o),
(330,902,cs),
(356,902,o),
(376,883,o),
(376,848,cs),
(376,809,o),
(356,792,o),
(330,792,cs),
(305,792,o),
(283,809,o),
(283,848,cs)
);
}
);
};
layerId = master01;
shapes = (
{
ref = A;
},
{
pos = (187,0);
ref = ringcomb.case;
}
);
width = 660;
}
);
unicode = 197;
},
{
glyphname = Aringacute;
kernLeft = A;
kernRight = A;
lastChange = "2023-02-24 11:16:29 +0000";
layers = (
{
background = {
shapes = (
{
closed = 1;
nodes = (
(179,215,l),
(454,229,l),
(517,52,l),
(427,30,l),
(427,22,o),
(427,0,o),
(442,0,cs),
(442,0,o),
(453,0,o),
(561,4,c),
(648,0,o),
(660,0,o),
(660,0,c),
(675,0,o),
(675,23,o),
(675,30,c),
(600,52,l),
(368,700,l),
(292,700,l),
(62,52,l),
(-13,30,l),
(-13,23,o),
(-13,0,o),
(2,0,cs),
(2,0,o),
(6,0,o),
(93,4,c),
(201,0,o),
(204,0,o),
(204,0,c),
(219,0,o),
(219,22,o),
(219,30,c),
(124,52,l,{
name = hr00;
})
);
},
{
closed = 1;
nodes = (
(439,273,l),
(199,273,l),
(317,619,l)
);
},
{
closed = 1;
nodes = (
(422,907,o),
(381,935,o),
(331,935,cs),
(280,935,o),
(237,904,o),
(237,848,cs),
(237,788,o),
(276,759,o),
(327,759,cs),
(383,759,o),
(422,788,o),
(422,850,cs,{
name = hr00;
})
);
},
{
closed = 1;
nodes = (
(283,870,o),
(290,891,o),
(303,897,c),
(309,900,o),
(320,902,o),
(330,902,cs),
(356,902,o),
(376,883,o),
(376,848,cs),
(376,809,o),
(356,792,o),
(330,792,cs),
(305,792,o),
(283,809,o),
(283,848,cs)
);
},
{
closed = 1;
nodes = (
(334,910,o),
(418,936,o),
(475,972,cs),
(478,974,o),
(479,978,o),
(479,982,cs),
(479,999,o),
(462,1034,o),
(458,1039,c),
(377,974,o),
(295,918,o),
(295,918,c),
(304,902,l,{
name = hr00;
})
);
}
);
};
layerId = master01;
shapes = (
{
closed = 1;
nodes = (
(383,759,o),
(422,788,o),
(422,850,cs,{
name = hr00;
}),
(422,907,o),
(381,935,o),
(331,935,cs),
(280,935,o),
(237,904,o),
(237,848,cs),
(237,788,o),
(276,759,o),
(327,759,cs)
);
},
{
ref = A;
},
{
closed = 1;
nodes = (
(305,792,o),
(283,809,o),
(283,848,cs),
(283,870,o),
(290,891,o),
(303,897,c),
(309,900,o),
(320,902,o),
(330,902,cs),
(356,902,o),
(376,883,o),
(376,848,cs),
(376,809,o),
(356,792,o),
(330,792,cs)
);
},
{
closed = 1;
nodes = (
(334,910,o),
(418,936,o),
(475,972,cs),
(478,974,o),
(479,978,o),
(479,982,cs),
(479,999,o),
(462,1034,o),
(458,1039,c),
(377,974,o),
(295,918,o),
(295,918,c),
(304,902,l,{
name = hr00;
})
);
}
);
width = 660;
}
);
unicode = 506;
},
{
glyphname = Atilde;
kernLeft = A;
kernRight = A;
lastChange = "2023-02-24 11:16:29 +0000";
layers = (
{
background = {
shapes = (
{
closed = 1;
nodes = (
(179,215,l),
(454,229,l),
(517,52,l),
(427,30,l),
(427,22,o),
(427,0,o),
(442,0,cs),
(442,0,o),
(453,0,o),
(561,4,c),
(648,0,o),
(660,0,o),
(660,0,c),
(675,0,o),
(675,23,o),
(675,30,c),
(600,52,l),
(368,700,l),
(292,700,l),
(62,52,l),
(-13,30,l),
(-13,23,o),
(-13,0,o),
(2,0,cs),
(2,0,o),
(6,0,o),
(93,4,c),
(201,0,o),
(204,0,o),
(204,0,c),
(219,0,o),
(219,22,o),
(219,30,c),
(124,52,l,{
name = hr00;
})
);
},
{
closed = 1;
nodes = (
(439,273,l),
(199,273,l),
(317,619,l)
);
},
{
closed = 1;
nodes = (
(471,876,o),
(451,865,o),
(429,865,cs),
(382,865,o),
(341,892,o),
(293,892,cs,{
name = hr01;
}),
(260,892,o),
(226,876,o),
(192,817,c),
(209,798,l),
(229,817,o),
(249,828,o),
(271,828,cs),
(318,828,o),
(359,801,o),
(407,801,cs,{
name = hr02;
}),
(440,801,o),
(474,817,o),
(508,876,c),
(491,895,l)
);
}
);
};
layerId = master01;
shapes = (
{
ref = A;
},
{
pos = (122,0);
ref = tildecomb.case;
}
);
width = 660;
}
);
unicode = 195;
},
{
glyphname = AE;
kernLeft = A;
lastChange = "2023-02-24 11:16:34 +0000";
layers = (
{
anchors = (
{
name = bottom;
pos = (433,0);
},
{
name = top;
pos = (558,700);
}
);
background = {
shapes = (
{
closed = 1;
nodes = (
(62,52,l),
(-13,30,l),
(-13,23,o),
(-13,0,o),
(2,0,cs),
(2,0,o),
(6,0,o),
(93,4,c),
(201,0,o),
(204,0,o),
(204,0,c),
(219,0,o),
(219,22,o),
(219,30,c),
(124,52,l),
(192,217,l),
(443,229,l),
(481,52,l),
(391,30,l),
(391,22,o),
(391,0,o),
(406,0,c),
(485,5,ls),
(498,6,o),
(512,7,o),
(525,8,c),
(808,0,ls),
(833,-1,o),
(841,0,o),
(842,12,cs),
(850,163,l),
(843,163,o),
(808,163,o),
(808,149,c),
(782,55,l),
(561,55,l),
(502,325,l),
(772,339,l),
(772,382,l),
(490,382,l),
(432,646,l),
(530,647,o),
(627,648,o),
(725,649,c),
(725,555,ls),
(725,541,o),
(760,541,o),
(768,541,c),
(792,690,l),
(791,700,o),
(778,700,o),
(760,700,cs),
(422,696,ls),
(408,696,o),
(394,695,o),
(380,696,cs),
(277,700,ls),
(262,700,o),
(262,676,o),
(262,670,c),
(320,655,l,{
name = hr00;
})
);
},
{
closed = 1;
nodes = (
(434,273,l),
(215,273,l),
(359,622,l)
);
}
);
};
layerId = master01;
shapes = (
{
closed = 1;
nodes = (
(93,4,l),
(204,0,ls),
(219,-1,o),
(219,22,o),
(219,30,c),
(124,52,l),
(192,217,l),
(443,229,l),
(481,52,l),
(391,30,l),
(391,22,o),
(391,-1,o),
(406,0,cs),
(485,5,l),
(525,8,l),
(808,0,ls),
(833,-1,o),
(841,0,o),
(842,12,cs),
(850,163,l),
(843,163,o),
(808,163,o),
(808,149,c),
(782,55,l),
(561,55,l),
(502,325,l),
(772,339,l),
(772,382,l),
(490,382,l),
(432,646,l),
(725,649,l),
(725,555,ls),
(725,541,o),
(760,541,o),
(768,541,c),
(792,690,l),
(791,700,o),
(778,700,o),
(760,700,cs),
(422,696,ls),
(408,696,o),
(394,695,o),
(380,696,cs),
(277,700,ls),
(262,701,o),
(262,676,o),
(262,670,c),
(320,655,l,{
name = hr00;
}),
(62,52,l),
(-13,30,l),
(-13,23,o),
(-13,-1,o),
(2,0,cs)
);
},
{
closed = 1;
nodes = (
(359,622,l),
(434,273,l),
(215,273,l)
);
}
);
width = 865;
}
);
unicode = 198;
},
{
glyphname = AEacute;
kernLeft = A;
lastChange = "2023-02-24 11:16:34 +0000";
layers = (
{
background = {
shapes = (
{
closed = 1;
nodes = (
(62,52,l),
(-13,30,l),
(-13,23,o),
(-13,0,o),
(2,0,cs),
(2,0,o),
(6,0,o),
(93,4,c),
(201,0,o),
(204,0,o),
(204,0,c),
(219,0,o),
(219,22,o),
(219,30,c),
(124,52,l),
(192,217,l),
(443,229,l),
(481,52,l),
(391,30,l),
(391,22,o),
(391,0,o),
(406,0,c),
(485,5,ls),
(498,6,o),
(512,7,o),
(525,8,c),
(808,0,ls),
(833,-1,o),
(841,0,o),
(842,12,cs),
(850,163,l),
(843,163,o),
(808,163,o),
(808,149,c),
(782,55,l),
(561,55,l),
(502,325,l),
(772,339,l),
(772,382,l),
(490,382,l),
(432,646,l),
(530,647,o),
(627,648,o),
(725,649,c),
(725,555,ls),
(725,541,o),
(760,541,o),
(768,541,c),
(792,690,l),
(791,700,o),
(778,700,o),
(760,700,cs),
(422,696,ls),
(408,696,o),
(394,695,o),
(380,696,cs),
(277,700,ls),
(262,700,o),
(262,676,o),
(262,670,c),
(320,655,l,{
name = hr00;
})
);
},
{
closed = 1;
nodes = (
(434,273,l),
(215,273,l),
(359,622,l)
);
},
{
closed = 1;
nodes = (
(496,772,o),
(594,802,o),
(661,845,cs),
(665,847,o),
(666,852,o),
(666,857,cs),
(666,877,o),
(646,918,o),
(641,924,c),
(546,847,o),
(449,781,o),
(449,781,c),
(460,762,l,{
name = hr00;
})
);
}
);
};
layerId = master01;
shapes = (
{
ref = AE;
},
{
pos = (399,0);
ref = acutecomb.case;
}
);
width = 865;
}
);
unicode = 508;
},
{
glyphname = B;
lastChange = "2023-02-23 13:21:10 +0000";
layers = (
{
anchors = (
{
name = bottom;
pos = (306,0);
},
{
name = center;
pos = (306,350);
},
{
name = top;
pos = (306,700);
}
);
background = {
shapes = (
{
closed = 1;
nodes = (
(511,615,o),
(439,700,o),
(298,700,c),
(294,700,o),
(290,700,o),
(168,696,c),
(74,700,o),
(65,700,o),
(65,700,c),
(50,700,o),
(50,677,o),
(50,670,c),
(134,648,l),
(134,52,l),
(50,30,l),
(50,23,o),
(50,0,o),
(65,0,c),
(176,8,l),
(353,0,o),
(356,0,o),
(360,0,cs),
(490,0,o),
(567,87,o),
(567,192,cs,{
name = hr01;
}),
(567,270,o),
(513,347,o),
(402,374,c),
(474,404,o),
(511,466,o),
(511,529,c)
);
},
{
closed = 1;
nodes = (
(310,44,o),
(258,48,o),
(205,58,c),
(214,336,l),
(316,348,l),
(432,348,o),
(487,268,o),
(487,191,cs,{
name = hr03;
}),
(487,117,o),
(440,44,o),
(334,44,cs)
);
},
{
closed = 1;
nodes = (
(385,662,o),
(436,595,o),
(436,526,cs,{
name = hr04;
}),
(436,460,o),
(389,393,o),
(296,384,c),
(214,384,l),
(205,648,l),
(285,662,l)
);
}
);
};
layerId = master01;
shapes = (
{
closed = 1;
nodes = (
(176,8,l),
(353,0,o),
(356,0,o),
(360,0,cs),
(490,0,o),
(567,87,o),
(567,192,cs,{
name = hr01;
}),
(567,270,o),
(513,347,o),
(402,374,c),
(474,404,o),
(511,466,o),
(511,529,cs),
(511,615,o),
(439,700,o),
(298,700,cs),
(168,696,l),
(74,700,o),
(65,700,o),
(65,700,c),
(50,700,o),
(50,677,o),
(50,670,c),
(134,648,l),
(134,52,l),
(50,30,l),
(50,23,o),
(50,0,o),
(65,0,cs)
);
},
{
closed = 1;
nodes = (
(310,44,o),
(258,48,o),
(205,58,c),
(214,336,l),
(316,348,l),
(432,348,o),
(487,268,o),
(487,191,cs,{
name = hr03;
}),
(487,117,o),
(440,44,o),
(334,44,cs)
);
},
{
closed = 1;
nodes = (
(205,648,l),
(285,662,l),
(385,662,o),
(436,595,o),
(436,526,cs,{
name = hr04;
}),
(436,460,o),
(389,393,o),
(296,384,c),
(214,384,l)
);
}
);
width = 612;
}
);
unicode = 66;
},
{
glyphname = C;
kernLeft = C;
lastChange = "2023-02-24 11:16:53 +0000";
layers = (
{
anchors = (
{
name = bottom;
pos = (317,0);
},
{
name = top;
pos = (372,700);
}
);
background = {
shapes = (
{
closed = 1;
nodes = (
(585,194,o),
(551,193,o),
(547,180,c),
(524,78,l),
(481,52,o),
(434,41,o),
(373,41,cs),
(234,41,o),
(128,143,o),
(128,352,cs),
(128,478,o),
(167,583,o),
(229,629,c),
(268,642,o),
(324,653,o),
(373,653,cs),
(421,653,o),
(481,641,o),
(514,628,c),
(514,517,ls),
(514,503,o),
(551,503,o),
(559,503,c),
(585,652,l),
(527,691,o),
(457,712,o),
(379,712,cs),
(192,712,o),
(40,588,o),
(40,354,cs),
(40,109,o),
(178,-12,o),
(363,-12,cs),
(450,-12,o),
(528,9,o),
(584,51,cs),
(592,194,l,{
name = hr00;
})
);
}
);
};
layerId = master01;
shapes = (
{
closed = 1;
nodes = (
(450,-12,o),
(528,9,o),
(584,51,c),
(592,194,l,{
name = hr00;
}),
(585,194,o),
(551,193,o),
(547,180,c),
(524,78,l),
(481,52,o),
(434,41,o),
(373,41,cs),
(234,41,o),
(128,143,o),
(128,352,cs),
(128,478,o),
(167,583,o),
(229,629,c),
(268,642,o),
(324,653,o),
(373,653,cs),
(421,653,o),
(481,641,o),
(514,628,c),
(514,517,ls),
(514,503,o),
(551,503,o),
(559,503,c),
(585,652,l),
(527,691,o),
(457,712,o),
(379,712,cs),
(192,712,o),
(40,588,o),
(40,354,cs),
(40,109,o),
(178,-12,o),
(363,-12,cs)
);
}
);
width = 642;
}
);
unicode = 67;
},
{
glyphname = Cacute;
kernLeft = C;
lastChange = "2023-02-24 11:16:53 +0000";
layers = (
{
background = {
shapes = (
{
closed = 1;
nodes = (
(585,194,o),
(551,193,o),
(547,180,c),
(524,78,l),
(481,52,o),
(434,41,o),
(373,41,cs),
(234,41,o),
(128,143,o),
(128,352,cs),
(128,478,o),
(167,583,o),
(229,629,c),
(268,642,o),
(324,653,o),
(373,653,cs),
(421,653,o),
(481,641,o),
(514,628,c),
(514,517,ls),
(514,503,o),
(551,503,o),
(559,503,c),
(585,652,l),
(527,691,o),
(457,712,o),
(379,712,cs),
(192,712,o),
(40,588,o),
(40,354,cs),
(40,109,o),
(178,-12,o),
(363,-12,cs),
(450,-12,o),
(528,9,o),
(584,51,cs),
(592,194,l,{
name = hr00;
})
);
},
{
closed = 1;
nodes = (
(309,772,o),
(407,802,o),
(474,845,cs),
(478,847,o),
(479,852,o),
(479,857,cs),
(479,877,o),
(459,918,o),
(454,924,c),
(359,847,o),
(262,781,o),
(262,781,c),
(273,762,l,{
name = hr00;
})
);
}
);
};
layerId = master01;
shapes = (
{
ref = C;
},
{
pos = (213,0);
ref = acutecomb.case;
}
);
width = 642;
}
);
unicode = 262;
},
{
glyphname = Ccaron;
kernLeft = C;
lastChange = "2023-02-24 11:16:53 +0000";
layers = (
{
background = {
shapes = (
{
closed = 1;
nodes = (
(585,194,o),
(551,193,o),
(547,180,c),
(524,78,l),
(481,52,o),
(434,41,o),
(373,41,cs),
(234,41,o),
(128,143,o),
(128,352,cs),
(128,478,o),
(167,583,o),
(229,629,c),
(268,642,o),
(324,653,o),
(373,653,cs),
(421,653,o),
(481,641,o),
(514,628,c),
(514,517,ls),
(514,503,o),
(551,503,o),
(559,503,c),
(585,652,l),
(527,691,o),
(457,712,o),
(379,712,cs),
(192,712,o),
(40,588,o),
(40,354,cs),
(40,109,o),
(178,-12,o),
(363,-12,cs),
(450,-12,o),
(528,9,o),
(584,51,cs),
(592,194,l,{
name = hr00;
})
);
},
{
closed = 1;
nodes = (
(275,929,l),
(248,912,l),
(288,849,o),
(318,796,o),
(337,753,c),
(382,753,l),
(408,796,o),
(445,849,o),
(493,912,c),
(468,929,l),
(365,827,l,{
name = hr00;
})
);
}
);
};
layerId = master01;
shapes = (
{
ref = C;
},
{
pos = (200,0);
ref = caroncomb.case;
}
);
width = 642;
}
);
unicode = 268;
},
{
glyphname = Ccedilla;
kernLeft = C;
lastChange = "2023-02-24 11:16:53 +0000";
layers = (
{
background = {
shapes = (
{
closed = 1;
nodes = (
(575,194,o),
(541,193,o),
(537,180,c),
(514,78,l),
(471,52,o),
(424,41,o),
(363,41,cs),
(224,41,o),
(118,143,o),
(118,352,cs),
(118,478,o),
(157,583,o),
(219,629,c),
(258,642,o),
(314,653,o),
(363,653,cs),
(411,653,o),
(471,641,o),
(504,628,c),
(504,517,ls),
(504,503,o),
(541,503,o),
(549,503,c),
(575,652,l),
(517,691,o),
(447,712,o),
(369,712,cs),
(182,712,o),
(30,588,o),
(30,354,cs),
(30,109,o),
(168,-12,o),
(353,-12,cs),
(440,-12,o),
(518,9,o),
(574,51,cs),
(582,194,l,{
name = hr00;
})
);
},
{
closed = 1;
nodes = (
(319,-85,o),
(342,-114,o),
(342,-142,cs),
(342,-167,o),
(323,-191,o),
(290,-191,cs),
(271,-191,o),
(250,-184,o),
(235,-172,c),
(216,-202,l),
(234,-218,o),
(263,-233,o),
(302,-233,cs),
(365,-233,o),
(405,-186,o),
(405,-141,cs),
(405,-102,o),
(378,-64,o),
(315,-56,c),
(338,15,l),
(306,15,l),
(266,-83,l,{
name = hr00;
})
);
}
);
};
layerId = master01;
shapes = (
{
ref = C;
},
{
pos = (112,0);
ref = cedillacomb;
}
);
width = 642;
}
);
unicode = 199;
},
{
glyphname = Ccircumflex;
kernLeft = C;
lastChange = "2023-02-24 11:16:53 +0000";
layers = (
{
background = {
shapes = (
{
closed = 1;
nodes = (
(585,194,o),
(551,193,o),
(547,180,c),
(524,78,l),
(481,52,o),
(434,41,o),
(373,41,cs),
(234,41,o),
(128,143,o),
(128,352,cs),
(128,478,o),
(167,583,o),
(229,629,c),
(268,642,o),
(324,653,o),
(373,653,cs),
(421,653,o),
(481,641,o),
(514,628,c),
(514,517,ls),
(514,503,o),
(551,503,o),
(559,503,c),
(585,652,l),
(527,691,o),
(457,712,o),
(379,712,cs),
(192,712,o),
(40,588,o),
(40,354,cs),
(40,109,o),
(178,-12,o),
(363,-12,cs),
(450,-12,o),
(528,9,o),
(584,51,cs),
(592,194,l,{
name = hr00;
})
);
},
{
closed = 1;
nodes = (
(467,753,l),
(493,770,l),
(449,833,o),
(416,886,o),
(393,929,c),
(348,929,l),
(325,886,o),
(292,833,o),
(248,770,c),
(274,753,l),
(371,855,l,{
name = hr00;
})
);
}
);
};
layerId = master01;
shapes = (
{
ref = C;
},
{
pos = (204,0);
ref = circumflexcomb.case;
}
);
width = 642;
}
);
unicode = 264;
},
{
glyphname = Cdotaccent;
kernLeft = C;
lastChange = "2023-02-24 11:16:53 +0000";
layers = (
{
background = {
shapes = (
{
closed = 1;
nodes = (
(585,194,o),
(551,193,o),
(547,180,c),
(524,78,l),
(481,52,o),
(434,41,o),
(373,41,cs),
(234,41,o),
(128,143,o),
(128,352,cs),
(128,478,o),
(167,583,o),
(229,629,c),
(268,642,o),
(324,653,o),
(373,653,cs),
(421,653,o),
(481,641,o),
(514,628,c),
(514,517,ls),
(514,503,o),
(551,503,o),
(559,503,c),
(585,652,l),
(527,691,o),
(457,712,o),
(379,712,cs),
(192,712,o),
(40,588,o),
(40,354,cs),
(40,109,o),
(178,-12,o),
(363,-12,cs),
(450,-12,o),
(528,9,o),
(584,51,cs),
(592,194,l,{
name = hr00;
})
);
},
{
closed = 1;
nodes = (
(364,906,o),
(332,899,o),
(332,899,c),
(332,899,o),
(324,869,o),
(324,840,cs),
(324,813,o),
(331,785,o),
(359,785,cs),
(379,785,o),
(410,794,o),
(410,794,c),
(410,794,o),
(417,823,o),
(417,850,cs),
(417,879,o),
(408,906,o),
(383,906,cs,{
name = hr00;
})
);
}
);
};
layerId = master01;
shapes = (
{
ref = C;
},
{
pos = (263,0);
ref = dotaccentcomb.case;
}
);
width = 642;
}
);
unicode = 266;
},
{
glyphname = D;
kernRight = D;
lastChange = "2023-02-24 11:17:08 +0000";
layers = (
{
anchors = (
{
name = bottom;
pos = (374,0);
},
{
name = center;
pos = (374,350);
},
{
name = top;
pos = (374,700);
}
);
background = {
shapes = (
{
closed = 1;
nodes = (
(134,52,l),
(50,30,l),
(50,23,o),
(50,0,o),
(65,0,c),
(176,8,l),
(364,-6,l,{
name = hr01;
}),
(564,-6,o),
(708,110,o),
(708,363,cs),
(708,597,o),
(561,712,o),
(380,712,c),
(176,696,l,{
name = hr02;
}),
(82,700,o),
(65,700,o),
(65,700,c,{
name = hr03;
}),
(50,700,o),
(50,677,o),
(50,670,c),
(134,648,l)
);
},
{
closed = 1;
nodes = (
(319,41,o),
(262,49,o),
(208,61,c),
(218,350,l),
(208,639,l),
(271,654,o),
(331,658,o),
(374,658,cs,{
name = hr04;
}),
(514,658,o),
(620,557,o),
(620,352,cs),
(620,140,o),
(514,41,o),
(374,41,cs)
);
}
);
};
layerId = master01;
shapes = (
{
closed = 1;
nodes = (
(564,-6,o),
(708,110,o),
(708,363,cs),
(708,597,o),
(561,712,o),
(380,712,c),
(176,696,l,{
name = hr02;
}),
(82,700,o),
(65,700,o),
(65,700,c,{
name = hr03;
}),
(50,700,o),
(50,677,o),
(50,670,c),
(134,648,l),
(134,52,l),
(50,30,l),
(50,23,o),
(50,0,o),
(65,0,cs),
(176,8,l),
(364,-6,l,{
name = hr01;
})
);
},
{
closed = 1;
nodes = (
(319,41,o),
(262,49,o),
(208,61,c),
(218,350,l),
(208,639,l),
(271,654,o),
(331,658,o),
(374,658,cs,{
name = hr04;
}),
(514,658,o),
(620,557,o),
(620,352,cs),
(620,140,o),
(514,41,o),
(374,41,cs)
);
}
);
width = 748;
}
);
unicode = 68;
},
{
glyphname = Eth;
kernRight = D;
lastChange = "2023-02-24 11:17:08 +0000";
layers = (
{
background = {
shapes = (
{
closed = 1;
nodes = (
(403,339,l),
(403,382,l),
(67,382,l),
(67,324,l)
);
},
{
closed = 1;
nodes = (
(403,339,l),
(403,382,l),
(67,382,l),
(67,324,l)
);
},
{
closed = 1;
nodes = (
(134,52,l),
(50,30,l),
(50,23,o),
(50,0,o),
(65,0,c),
(176,8,l),
(364,-6,l,{
name = hr01;
}),
(564,-6,o),
(708,110,o),
(708,363,cs),
(708,597,o),
(561,712,o),
(380,712,c),
(176,696,l,{
name = hr02;
}),
(82,700,o),
(65,700,o),
(65,700,c,{
name = hr03;
}),
(50,700,o),
(50,677,o),
(50,670,c),
(134,648,l)
);
},
{
closed = 1;
nodes = (
(319,41,o),
(262,49,o),
(208,61,c),
(218,350,l),
(208,639,l),
(271,654,o),
(331,658,o),
(374,658,cs,{
name = hr04;
}),
(514,658,o),
(620,557,o),
(620,352,cs),
(620,140,o),
(514,41,o),
(374,41,cs)
);
},
{
closed = 1;
nodes = (
(19,371,l),
(19,338,l),
(397,338,l),
(397,371,l,{
name = hr00;
})
);
}
);
};
layerId = master01;
shapes = (
{
closed = 1;
nodes = (
(403,339,l),
(403,382,l),
(67,382,l),
(67,324,l)
);
},
{
ref = D;
}
);
width = 748;
}
);
unicode = 208;
},
{
glyphname = Dcaron;
kernRight = D;
lastChange = "2023-02-24 11:17:08 +0000";
layers = (
{
background = {
shapes = (
{
closed = 1;
nodes = (
(134,52,l),
(50,30,l),
(50,23,o),
(50,0,o),
(65,0,c),
(176,8,l),
(364,-6,l,{
name = hr01;
}),
(564,-6,o),
(708,110,o),
(708,363,cs),
(708,597,o),
(561,712,o),
(380,712,c),
(176,696,l,{
name = hr02;
}),
(82,700,o),
(65,700,o),
(65,700,c,{
name = hr03;
}),
(50,700,o),
(50,677,o),
(50,670,c),
(134,648,l)
);
},
{
closed = 1;
nodes = (
(319,41,o),
(262,49,o),
(208,61,c),
(218,350,l),
(208,639,l),
(271,654,o),
(331,658,o),
(374,658,cs,{
name = hr04;
}),
(514,658,o),
(620,557,o),
(620,352,cs),
(620,140,o),
(514,41,o),
(374,41,cs)
);
},
{
closed = 1;
nodes = (
(278,929,l),
(251,912,l),
(291,849,o),
(321,796,o),
(340,753,c),
(385,753,l),
(411,796,o),
(448,849,o),
(496,912,c),
(471,929,l),
(368,827,l,{
name = hr00;
})
);
}
);
};
layerId = master01;
shapes = (
{
ref = D;
},
{
pos = (202,0);
ref = caroncomb.case;
}
);
width = 748;
}
);
unicode = 270;
},
{
glyphname = Dcroat;
kernRight = D;
lastChange = "2023-02-24 11:17:08 +0000";
layers = (
{
background = {
shapes = (
{
closed = 1;
nodes = (
(134,52,l),
(50,30,l),
(50,23,o),
(50,0,o),
(65,0,c),
(176,8,l),
(364,-6,l,{
name = hr01;
}),
(564,-6,o),
(708,110,o),
(708,363,cs),
(708,597,o),
(561,712,o),
(380,712,c),
(176,696,l,{
name = hr02;
}),
(82,700,o),
(65,700,o),
(65,700,c,{
name = hr03;
}),
(50,700,o),
(50,677,o),
(50,670,c),
(134,648,l)
);
},
{
closed = 1;
nodes = (
(319,41,o),
(262,49,o),
(208,61,c),
(218,350,l),
(208,639,l),
(271,654,o),
(331,658,o),
(374,658,cs,{
name = hr04;
}),
(514,658,o),
(620,557,o),
(620,352,cs),
(620,140,o),
(514,41,o),
(374,41,cs)
);
},
{
closed = 1;
nodes = (
(19,371,l),
(19,338,l),
(397,338,l),
(397,371,l,{
name = hr00;
})
);
}
);
};
layerId = master01;
shapes = (
{
ref = Eth;
}
);
width = 748;
}
);
unicode = 272;
},
{
glyphname = E;
lastChange = "2023-02-23 13:21:10 +0000";
layers = (
{
anchors = (
{
name = bottom;
pos = (301,0);
},
{
name = ogonek;
pos = (522,7);
},
{
name = top;
pos = (314,700);
},
{
name = topleft;
pos = (20,700);
}
);
background = {
shapes = (
{
closed = 1;
nodes = (
(473,541,o),
(508,541,o),
(516,541,c),
(540,690,l),
(539,700,o),
(526,700,o),
(508,700,cs),
(168,696,l),
(74,700,o),
(65,700,o),
(65,700,c),
(50,700,o),
(50,677,o),
(50,670,c),
(134,648,l),
(134,52,l),
(50,30,l),
(50,23,o),
(50,0,o),
(65,0,c),
(170,8,l),
(514,0,ls),
(534,0,o),
(542,1,o),
(543,12,cs),
(551,163,l),
(544,163,o),
(509,163,o),
(509,149,cs),
(483,55,l),
(208,55,l),
(217,326,l),
(473,339,l),
(473,382,l),
(217,382,l),
(208,646,l),
(473,649,l),
(473,555,ls,{
name = hr00;
})
);
}
);
};
layerId = master01;
shapes = (
{
closed = 1;
nodes = (
(170,8,l),
(514,0,ls),
(534,0,o),
(542,1,o),
(543,12,cs),
(551,163,l),
(544,163,o),
(509,163,o),
(509,149,c),
(483,55,l),
(208,55,l),
(217,326,l),
(473,339,l),
(473,382,l),
(217,382,l),
(208,646,l),
(473,649,l),
(473,555,ls,{
name = hr00;
}),
(473,541,o),
(508,541,o),
(516,541,c),
(540,690,l),
(539,700,o),
(526,700,o),
(508,700,cs),
(168,696,l),
(74,700,o),
(65,700,o),
(65,700,c),
(50,700,o),
(50,677,o),
(50,670,c),
(134,648,l),
(134,52,l),
(50,30,l),
(50,23,o),
(50,0,o),
(65,0,c)
);
}
);
width = 601;
}
);
unicode = 69;
},
{
glyphname = Eacute;
lastChange = "2023-02-23 13:21:10 +0000";
layers = (
{
background = {
shapes = (
{
closed = 1;
nodes = (
(463,541,o),
(498,541,o),
(506,541,c),
(530,690,l),
(529,700,o),
(516,700,o),
(498,700,cs),
(158,696,l),
(64,700,o),
(55,700,o),
(55,700,c),
(40,700,o),
(40,677,o),
(40,670,c),
(124,648,l),
(124,52,l),
(40,30,l),
(40,23,o),
(40,0,o),
(55,0,c),
(160,8,l),
(504,0,ls),
(524,0,o),
(532,1,o),
(533,12,cs),
(541,163,l),
(534,163,o),
(499,163,o),
(499,149,cs),
(473,55,l),
(198,55,l),
(207,326,l),
(463,339,l),
(463,382,l),
(207,382,l),
(198,646,l),
(463,649,l),
(463,555,ls,{
name = hr00;
})
);
},
{
closed = 1;
nodes = (
(229,772,o),
(327,802,o),
(394,845,cs),
(398,847,o),
(399,852,o),
(399,857,cs),
(399,877,o),
(379,918,o),
(374,924,c),
(279,847,o),
(182,781,o),
(182,781,c),
(193,762,l,{
name = hr00;
})
);
}
);
};
layerId = master01;
shapes = (
{
ref = E;
},
{
pos = (155,0);
ref = acutecomb.case;
}
);
width = 601;
}
);
unicode = 201;
},
{
glyphname = Ebreve;
lastChange = "2023-02-23 13:21:10 +0000";
layers = (
{
background = {
shapes = (
{
closed = 1;
nodes = (
(473,541,o),
(508,541,o),
(516,541,c),
(540,690,l),
(539,700,o),
(526,700,o),
(508,700,cs),
(168,696,l),
(74,700,o),
(65,700,o),
(65,700,c),
(50,700,o),
(50,677,o),
(50,670,c),
(134,648,l),
(134,52,l),
(50,30,l),
(50,23,o),
(50,0,o),
(65,0,c),
(170,8,l),
(514,0,ls),
(534,0,o),
(542,1,o),
(543,12,cs),
(551,163,l),
(544,163,o),
(509,163,o),
(509,149,cs),
(483,55,l),
(208,55,l),
(217,326,l),
(473,339,l),
(473,382,l),
(217,382,l),
(208,646,l),
(473,649,l),
(473,555,ls,{
name = hr00;
})
);
},
{
closed = 1;
nodes = (
(292,821,o),
(263,857,o),
(241,913,c),
(207,905,l),
(239,808,o),
(270,754,o),
(330,754,cs),
(390,754,o),
(421,808,o),
(453,905,c),
(419,913,l),
(397,857,o),
(368,821,o),
(330,821,cs,{
name = hr00;
})
);
}
);
};
layerId = master01;
shapes = (
{
ref = E;
},
{
pos = (148,0);
ref = brevecomb.case;
}
);
width = 601;
}
);
unicode = 276;
},
{
glyphname = Ecaron;
lastChange = "2023-02-23 13:21:10 +0000";
layers = (
{
background = {
shapes = (
{
closed = 1;
nodes = (
(473,541,o),
(508,541,o),
(516,541,c),
(540,690,l),
(539,700,o),
(526,700,o),
(508,700,cs),
(168,696,l),
(74,700,o),
(65,700,o),
(65,700,c),
(50,700,o),
(50,677,o),
(50,670,c),
(134,648,l),
(134,52,l),
(50,30,l),
(50,23,o),
(50,0,o),
(65,0,c),
(170,8,l),
(514,0,ls),
(534,0,o),
(542,1,o),
(543,12,cs),
(551,163,l),
(544,163,o),
(509,163,o),
(509,149,cs),
(483,55,l),
(208,55,l),
(217,326,l),
(473,339,l),
(473,382,l),
(217,382,l),
(208,646,l),
(473,649,l),
(473,555,ls,{
name = hr00;
})
);
},
{
closed = 1;
nodes = (
(235,929,l),
(208,912,l),
(248,849,o),
(278,796,o),
(297,753,c),
(342,753,l),
(368,796,o),
(405,849,o),
(453,912,c),
(428,929,l),
(325,827,l,{
name = hr00;
})
);
}
);
};
layerId = master01;
shapes = (
{
ref = E;
},
{
pos = (142,0);
ref = caroncomb.case;
}
);
width = 601;
}
);
unicode = 282;
},
{
glyphname = Ecircumflex;
lastChange = "2023-02-23 13:21:10 +0000";
layers = (
{
background = {
shapes = (
{
closed = 1;
nodes = (
(463,541,o),
(498,541,o),
(506,541,c),
(530,690,l),
(529,700,o),
(516,700,o),
(498,700,cs),
(158,696,l),
(64,700,o),
(55,700,o),
(55,700,c),
(40,700,o),
(40,677,o),
(40,670,c),
(124,648,l),
(124,52,l),
(40,30,l),
(40,23,o),
(40,0,o),
(55,0,c),
(160,8,l),
(504,0,ls),
(524,0,o),
(532,1,o),
(533,12,cs),
(541,163,l),
(534,163,o),
(499,163,o),
(499,149,cs),
(473,55,l),
(198,55,l),
(207,326,l),
(463,339,l),
(463,382,l),
(207,382,l),
(198,646,l),
(463,649,l),
(463,555,ls,{
name = hr00;
})
);
},
{
closed = 1;
nodes = (
(387,753,l),
(413,770,l),
(369,833,o),
(336,886,o),
(313,929,c),
(268,929,l),
(245,886,o),
(212,833,o),
(168,770,c),
(194,753,l),
(291,855,l,{
name = hr00;
})
);
}
);
};
layerId = master01;
shapes = (
{
ref = E;
},
{
pos = (146,0);
ref = circumflexcomb.case;
}
);
width = 601;
}
);
unicode = 202;
},
{
glyphname = Edieresis;
lastChange = "2023-02-23 13:21:10 +0000";
layers = (
{
background = {
shapes = (
{
closed = 1;
nodes = (
(463,541,o),
(498,541,o),
(506,541,c),
(530,690,l),
(529,700,o),
(516,700,o),
(498,700,cs),
(158,696,l),
(64,700,o),
(55,700,o),
(55,700,c),
(40,700,o),
(40,677,o),
(40,670,c),
(124,648,l),
(124,52,l),
(40,30,l),
(40,23,o),
(40,0,o),
(55,0,c),
(160,8,l),
(504,0,ls),
(524,0,o),
(532,1,o),
(533,12,cs),
(541,163,l),
(534,163,o),
(499,163,o),
(499,149,cs),
(473,55,l),
(198,55,l),
(207,326,l),
(463,339,l),
(463,382,l),
(207,382,l),
(198,646,l),
(463,649,l),
(463,555,ls,{
name = hr00;
})
);
},
{
closed = 1;
nodes = (
(231,900,o),
(202,894,o),
(202,894,c),
(202,894,o),
(195,867,o),
(195,841,cs),
(195,816,o),
(201,791,o),
(226,791,cs),
(244,791,o),
(272,799,o),
(272,799,c),
(272,799,o),
(278,825,o),
(278,850,cs),
(278,876,o),
(270,900,o),
(248,900,cs,{
name = hr00;
})
);
},
{
closed = 1;
nodes = (
(399,900,o),
(370,894,o),
(370,894,c),
(370,894,o),
(363,867,o),
(363,841,cs),
(363,816,o),
(369,791,o),
(394,791,cs),
(412,791,o),
(440,799,o),
(440,799,c),
(440,799,o),
(446,825,o),
(446,850,cs),
(446,876,o),
(438,900,o),
(416,900,cs)
);
}
);
};
layerId = master01;
shapes = (
{
ref = E;
},
{
pos = (124,0);
ref = dieresiscomb.case;
}
);
width = 601;
}
);
unicode = 203;
},
{
glyphname = Edotaccent;
lastChange = "2023-02-23 13:21:10 +0000";
layers = (
{
background = {
shapes = (
{
closed = 1;
nodes = (
(473,541,o),
(508,541,o),
(516,541,c),
(540,690,l),
(539,700,o),
(526,700,o),
(508,700,cs),
(168,696,l),
(74,700,o),
(65,700,o),
(65,700,c),
(50,700,o),
(50,677,o),
(50,670,c),
(134,648,l),
(134,52,l),
(50,30,l),
(50,23,o),
(50,0,o),
(65,0,c),
(170,8,l),
(514,0,ls),
(534,0,o),
(542,1,o),
(543,12,cs),
(551,163,l),
(544,163,o),
(509,163,o),
(509,149,cs),
(483,55,l),
(208,55,l),
(217,326,l),
(473,339,l),
(473,382,l),
(217,382,l),
(208,646,l),
(473,649,l),
(473,555,ls,{
name = hr00;
})
);
},
{
closed = 1;
nodes = (
(324,906,o),
(292,899,o),
(292,899,c),
(292,899,o),
(284,869,o),
(284,840,cs),
(284,813,o),
(291,785,o),
(319,785,cs),
(339,785,o),
(370,794,o),
(370,794,c),
(370,794,o),
(377,823,o),
(377,850,cs),
(377,879,o),
(368,906,o),
(343,906,cs,{
name = hr00;
})
);
}
);
};
layerId = master01;
shapes = (
{
ref = E;
},
{
pos = (205,0);
ref = dotaccentcomb.case;
}
);
width = 601;
}
);
unicode = 278;
},
{
glyphname = Egrave;
lastChange = "2023-02-23 13:21:10 +0000";
layers = (
{
background = {
shapes = (
{
closed = 1;
nodes = (
(463,541,o),
(498,541,o),
(506,541,c),
(530,690,l),
(529,700,o),
(516,700,o),
(498,700,cs),
(158,696,l),
(64,700,o),
(55,700,o),
(55,700,c),
(40,700,o),
(40,677,o),
(40,670,c),
(124,648,l),
(124,52,l),
(40,30,l),
(40,23,o),
(40,0,o),
(55,0,c),
(160,8,l),
(504,0,ls),
(524,0,o),
(532,1,o),
(533,12,cs),
(541,163,l),
(534,163,o),
(499,163,o),
(499,149,cs),
(473,55,l),
(198,55,l),
(207,326,l),
(463,339,l),
(463,382,l),
(207,382,l),
(198,646,l),
(463,649,l),
(463,555,ls,{
name = hr00;
})
);
},
{
closed = 1;
nodes = (
(399,781,o),
(302,847,o),
(207,924,c),
(202,918,o),
(182,877,o),
(182,857,cs),
(182,852,o),
(183,847,o),
(187,845,cs),
(254,802,o),
(352,772,o),
(388,762,c),
(399,781,l,{
name = hr00;
})
);
}
);
};
layerId = master01;
shapes = (
{
ref = E;
},
{
pos = (155,0);
ref = gravecomb.case;
}
);
width = 601;
}
);
unicode = 200;
},
{
glyphname = Emacron;
lastChange = "2023-02-23 13:21:10 +0000";
layers = (
{
background = {
shapes = (
{
closed = 1;
nodes = (
(473,541,o),
(508,541,o),
(516,541,c),
(540,690,l),
(539,700,o),
(526,700,o),
(508,700,cs),
(168,696,l),
(74,700,o),
(65,700,o),
(65,700,c),
(50,700,o),
(50,677,o),
(50,670,c),
(134,648,l),
(134,52,l),
(50,30,l),
(50,23,o),
(50,0,o),
(65,0,c),
(170,8,l),
(514,0,ls),
(534,0,o),
(542,1,o),
(543,12,cs),
(551,163,l),
(544,163,o),
(509,163,o),
(509,149,cs),
(483,55,l),
(208,55,l),
(217,326,l),
(473,339,l),
(473,382,l),
(217,382,l),
(208,646,l),
(473,649,l),
(473,555,ls,{
name = hr00;
})
);
},
{
closed = 1;
nodes = (
(471,814,l),
(471,877,l),
(190,877,l),
(190,814,l,{
name = hr00;
})
);
}
);
};
layerId = master01;
shapes = (
{
ref = E;
},
{
pos = (103,0);
ref = macroncomb.case;
}
);
width = 601;
}
);
unicode = 274;
},
{
glyphname = Eogonek;
lastChange = "2023-02-23 13:21:10 +0000";
layers = (
{
background = {
shapes = (
{
closed = 1;
nodes = (
(473,541,o),
(508,541,o),
(516,541,c),
(540,690,l),
(539,700,o),
(526,700,o),
(508,700,cs),
(168,696,l),
(74,700,o),
(65,700,o),
(65,700,c),
(50,700,o),
(50,677,o),
(50,670,c),
(134,648,l),
(134,52,l),
(50,30,l),
(50,23,o),
(50,0,o),
(65,0,c),
(170,8,l),
(514,0,ls),
(534,0,o),
(542,1,o),
(543,12,cs),
(551,163,l),
(544,163,o),
(509,163,o),
(509,149,cs),
(483,55,l),
(208,55,l),
(217,326,l),
(473,339,l),
(473,382,l),
(217,382,l),
(208,646,l),
(473,649,l),
(473,555,ls,{
name = hr00;
})
);
},
{
closed = 1;
nodes = (
(366,-29,o),
(331,-90,o),
(331,-141,cs),
(331,-191,o),
(367,-233,o),
(434,-233,cs),
(473,-233,o),
(502,-218,o),
(520,-202,c),
(517,-188,o),
(512,-180,o),
(503,-172,c),
(487,-183,o),
(467,-189,o),
(448,-189,cs),
(418,-189,o),
(391,-173,o),
(391,-134,cs),
(391,-85,o),
(429,-18,o),
(522,7,c),
(443,7,l,{
name = hr00;
})
);
}
);
};
layerId = master01;
shapes = (
{
ref = E;
},
{
pos = (196,0);
ref = ogonekcomb;
}
);
width = 601;
}
);
unicode = 280;
},
{
glyphname = F;
kernRight = F;
lastChange = "2023-02-24 11:17:21 +0000";
layers = (
{
anchors = (
{
name = bottom;
pos = (275,0);
},
{
name = top;
pos = (275,700);
}
);
background = {
shapes = (
{
closed = 1;
nodes = (
(443,541,o),
(478,541,o),
(486,541,c),
(510,690,l),
(509,700,o),
(496,700,o),
(478,700,cs),
(168,696,l),
(74,700,o),
(65,700,o),
(65,700,c),
(50,700,o),
(50,677,o),
(50,670,c),
(134,648,l),
(134,52,l),
(50,30,l),
(50,23,o),
(50,0,o),
(65,0,cs),
(65,0,o),
(74,0,o),
(168,4,c),
(261,0,o),
(304,0,o),
(304,0,c),
(319,0,o),
(319,23,o),
(319,30,c),
(208,52,l),
(216,310,l),
(463,323,l),
(463,366,l),
(217,367,l),
(208,646,l),
(443,649,l),
(443,555,ls,{
name = hr00;
})
);
}
);
};
layerId = master01;
shapes = (
{
closed = 1;
nodes = (
(65,0,o),
(74,0,o),
(168,4,c),
(261,0,o),
(304,0,o),
(304,0,c),
(319,0,o),
(319,23,o),
(319,30,c),
(208,52,l),
(216,310,l),
(463,323,l),
(463,366,l),
(217,367,l),
(208,646,l),
(443,649,l),
(443,555,ls,{
name = hr00;
}),
(443,541,o),
(478,541,o),
(486,541,c),
(510,690,l),
(509,700,o),
(496,700,o),
(478,700,cs),
(168,696,l),
(74,700,o),
(65,700,o),
(65,700,c),
(50,700,o),
(50,677,o),
(50,670,c),
(134,648,l),
(134,52,l),
(50,30,l),
(50,23,o),
(50,0,o),
(65,0,c)
);
}
);
width = 550;
}
);
unicode = 70;
},
{
glyphname = G;
kernLeft = C;
lastChange = "2023-02-24 11:16:53 +0000";
layers = (
{
anchors = (
{
name = bottom;
pos = (349,0);
},
{
name = top;
pos = (373,700);
}
);
background = {
shapes = (
{
closed = 1;
nodes = (
(596,360,l),
(334,360,l),
(334,317,l),
(519,306,l),
(536,97,l),
(492,64,o),
(423,41,o),
(363,41,cs),
(230,41,o),
(128,143,o),
(128,352,cs),
(128,478,o),
(167,583,o),
(229,629,c),
(268,642,o),
(324,653,o),
(373,653,cs),
(426,653,o),
(492,641,o),
(529,628,c),
(529,517,ls),
(529,503,o),
(566,503,o),
(574,503,c),
(600,652,l),
(538,691,o),
(463,712,o),
(379,712,cs),
(192,712,o),
(40,588,o),
(40,354,cs),
(40,109,o),
(174,-12,o),
(353,-12,cs),
(440,-12,o),
(523,13,o),
(605,72,c),
(596,111,l,{
name = hr00;
})
);
}
);
};
layerId = master01;
shapes = (
{
closed = 1;
nodes = (
(440,-12,o),
(523,13,o),
(605,72,c),
(596,111,l,{
name = hr00;
}),
(596,360,l),
(334,360,l),
(334,317,l),
(519,306,l),
(536,97,l),
(492,64,o),
(423,41,o),
(363,41,cs),
(230,41,o),
(128,143,o),
(128,352,cs),
(128,478,o),
(167,583,o),
(229,629,c),
(268,642,o),
(324,653,o),
(373,653,cs),
(426,653,o),
(492,641,o),
(529,628,c),
(529,517,ls),
(529,503,o),
(566,503,o),
(574,503,c),
(600,652,l),
(538,691,o),
(463,712,o),
(379,712,cs),
(192,712,o),
(40,588,o),
(40,354,cs),
(40,109,o),
(174,-12,o),
(353,-12,cs)
);
}
);
width = 665;
}
);
unicode = 71;
},
{
glyphname = Gbreve;
kernLeft = C;
lastChange = "2023-02-24 11:16:53 +0000";
layers = (
{
background = {
shapes = (
{
closed = 1;
nodes = (
(596,360,l),
(334,360,l),
(334,317,l),
(519,306,l),
(536,97,l),
(492,64,o),
(423,41,o),
(363,41,cs),
(230,41,o),
(128,143,o),
(128,352,cs),
(128,478,o),
(167,583,o),
(229,629,c),
(268,642,o),
(324,653,o),
(373,653,cs),
(426,653,o),
(492,641,o),
(529,628,c),
(529,517,ls),
(529,503,o),
(566,503,o),
(574,503,c),
(600,652,l),
(538,691,o),
(463,712,o),
(379,712,cs),
(192,712,o),
(40,588,o),
(40,354,cs),
(40,109,o),
(174,-12,o),
(353,-12,cs),
(440,-12,o),
(523,13,o),
(605,72,c),
(596,111,l,{
name = hr00;
})
);
},
{
closed = 1;
nodes = (
(334,821,o),
(305,857,o),
(283,913,c),
(249,905,l),
(281,808,o),
(312,754,o),
(372,754,cs),
(432,754,o),
(463,808,o),
(495,905,c),
(461,913,l),
(439,857,o),
(410,821,o),
(372,821,cs,{
name = hr00;
})
);
}
);
};
layerId = master01;
shapes = (
{
ref = G;
},
{
pos = (207,0);
ref = brevecomb.case;
}
);
width = 665;
}
);
unicode = 286;
},
{
glyphname = Gcircumflex;
kernLeft = C;
lastChange = "2023-02-24 11:16:53 +0000";
layers = (
{
background = {
shapes = (
{
closed = 1;
nodes = (
(596,360,l),
(334,360,l),
(334,317,l),
(519,306,l),
(536,97,l),
(492,64,o),
(423,41,o),
(363,41,cs),
(230,41,o),
(128,143,o),
(128,352,cs),
(128,478,o),
(167,583,o),
(229,629,c),
(268,642,o),
(324,653,o),
(373,653,cs),
(426,653,o),
(492,641,o),
(529,628,c),
(529,517,ls),
(529,503,o),
(566,503,o),
(574,503,c),
(600,652,l),
(538,691,o),
(463,712,o),
(379,712,cs),
(192,712,o),
(40,588,o),
(40,354,cs),
(40,109,o),
(174,-12,o),
(353,-12,cs),
(440,-12,o),
(523,13,o),
(605,72,c),
(596,111,l,{
name = hr00;
})
);
},
{
closed = 1;
nodes = (
(469,753,l),
(495,770,l),
(451,833,o),
(418,886,o),
(395,929,c),
(350,929,l),
(327,886,o),
(294,833,o),
(250,770,c),
(276,753,l),
(373,855,l,{
name = hr00;
})
);
}
);
};
layerId = master01;
shapes = (
{
ref = G;
},
{
pos = (205,0);
ref = circumflexcomb.case;
}
);
width = 665;
}
);
unicode = 284;
},
{
glyphname = Gcommaaccent;
kernLeft = C;
lastChange = "2023-02-24 11:16:53 +0000";
layers = (
{
background = {
shapes = (
{
closed = 1;
nodes = (
(596,360,l),
(334,360,l),
(334,317,l),
(519,306,l),
(536,97,l),
(492,64,o),
(423,41,o),
(363,41,cs),
(230,41,o),
(128,143,o),
(128,352,cs),
(128,478,o),
(167,583,o),
(229,629,c),
(268,642,o),
(324,653,o),
(373,653,cs),
(426,653,o),
(492,641,o),
(529,628,c),
(529,517,ls),
(529,503,o),
(566,503,o),
(574,503,c),
(600,652,l),
(538,691,o),
(463,712,o),
(379,712,cs),
(192,712,o),
(40,588,o),
(40,354,cs),
(40,109,o),
(174,-12,o),
(353,-12,cs),
(440,-12,o),
(523,13,o),
(605,72,c),
(596,111,l,{
name = hr00;
})
);
},
{
closed = 1;
nodes = (
(364,-285,o),
(411,-226,o),
(411,-159,cs),
(411,-95,o),
(392,-50,o),
(365,-50,cs),
(347,-50,o),
(324,-53,o),
(306,-57,c),
(301,-81,o),
(298,-103,o),
(298,-122,cs),
(298,-162,o),
(310,-182,o),
(335,-182,cs),
(341,-182,o),
(344,-182,o),
(351,-181,c),
(351,-186,ls),
(351,-226,o),
(327,-259,o),
(287,-277,c),
(299,-307,l,{
name = hr00;
})
);
}
);
};
layerId = master01;
shapes = (
{
ref = G;
},
{
pos = (250,0);
ref = commaaccentcomb;
}
);
width = 665;
}
);
unicode = 290;
},
{
glyphname = Gdotaccent;
kernLeft = C;
lastChange = "2023-02-24 11:16:53 +0000";
layers = (
{
background = {
shapes = (
{
closed = 1;
nodes = (
(596,360,l),
(334,360,l),
(334,317,l),
(519,306,l),
(536,97,l),
(492,64,o),
(423,41,o),
(363,41,cs),
(230,41,o),
(128,143,o),
(128,352,cs),
(128,478,o),
(167,583,o),
(229,629,c),
(268,642,o),
(324,653,o),
(373,653,cs),
(426,653,o),
(492,641,o),
(529,628,c),
(529,517,ls),
(529,503,o),
(566,503,o),
(574,503,c),
(600,652,l),
(538,691,o),
(463,712,o),
(379,712,cs),
(192,712,o),
(40,588,o),
(40,354,cs),
(40,109,o),
(174,-12,o),
(353,-12,cs),
(440,-12,o),
(523,13,o),
(605,72,c),
(596,111,l,{
name = hr00;
})
);
},
{
closed = 1;
nodes = (
(366,906,o),
(334,899,o),
(334,899,c),
(334,899,o),
(326,869,o),
(326,840,cs),
(326,813,o),
(333,785,o),
(361,785,cs),
(381,785,o),
(412,794,o),
(412,794,c),
(412,794,o),
(419,823,o),
(419,850,cs),
(419,879,o),
(410,906,o),
(385,906,cs,{
name = hr00;
})
);
}
);
};
layerId = master01;
shapes = (
{
ref = G;
},
{
pos = (264,0);
ref = dotaccentcomb.case;
}
);
width = 665;
}
);
unicode = 288;
},
{
glyphname = H;
lastChange = "2023-02-23 13:21:10 +0000";
layers = (
{
anchors = (
{
name = bottom;
pos = (395,0);
},
{
name = center;
pos = (395,350);
},
{
name = top;
pos = (395,700);
},
{
name = topleft;
pos = (20,700);
}
);
background = {
shapes = (
{
closed = 1;
nodes = (
(739,677,o),
(739,700,o),
(724,700,cs),
(724,700,o),
(715,700,o),
(621,696,c),
(528,700,o),
(516,700,o),
(516,700,c),
(501,700,o),
(501,677,o),
(501,670,c),
(581,648,l),
(572,384,l),
(217,384,l),
(208,648,l),
(288,670,l),
(288,677,o),
(288,700,o),
(273,700,cs),
(273,700,o),
(261,700,o),
(168,696,c),
(74,700,o),
(65,700,o),
(65,700,c),
(50,700,o),
(50,677,o),
(50,670,c),
(134,648,l),
(134,52,l),
(50,30,l),
(50,23,o),
(50,0,o),
(65,0,cs),
(65,0,o),
(74,0,o),
(168,4,c),
(261,0,o),
(273,0,o),
(273,0,c),
(288,0,o),
(288,23,o),
(288,30,c),
(208,52,l),
(217,326,l),
(571,340,l),
(581,52,l),
(501,30,l),
(501,23,o),
(501,0,o),
(516,0,cs),
(516,0,o),
(528,0,o),
(621,4,c),
(715,0,o),
(724,0,o),
(724,0,c),
(739,0,o),
(739,23,o),
(739,30,c),
(655,52,l),
(655,648,l),
(739,670,l,{
name = hr00;
})
);
}
);
};
layerId = master01;
shapes = (
{
closed = 1;
nodes = (
(65,0,o),
(74,0,o),
(168,4,c),
(261,0,o),
(273,0,o),
(273,0,c),
(288,0,o),
(288,23,o),
(288,30,c),
(208,52,l),
(217,326,l),
(571,340,l),
(581,52,l),
(501,30,l),
(501,23,o),
(501,0,o),
(516,0,c),
(516,0,o),
(528,0,o),
(621,4,c),
(715,0,o),
(724,0,o),
(724,0,c),
(739,0,o),
(739,23,o),
(739,30,c),
(655,52,l),
(655,648,l),
(739,670,l,{
name = hr00;
}),
(739,677,o),
(739,700,o),
(724,700,c),
(724,700,o),
(715,700,o),
(621,696,c),
(528,700,o),
(516,700,o),
(516,700,c),
(501,700,o),
(501,677,o),
(501,670,c),
(581,648,l),
(572,384,l),
(217,384,l),
(208,648,l),
(288,670,l),
(288,677,o),
(288,700,o),
(273,700,c),
(273,700,o),
(261,700,o),
(168,696,c),
(74,700,o),
(65,700,o),
(65,700,c),
(50,700,o),
(50,677,o),
(50,670,c),
(134,648,l),
(134,52,l),
(50,30,l),
(50,23,o),
(50,0,o),
(65,0,c)
);
}
);
width = 789;
}
);
unicode = 72;
},
{
glyphname = Hbar;
lastChange = "2023-02-23 13:21:10 +0000";
layers = (
{
background = {
shapes = (
{
closed = 1;
nodes = (
(739,677,o),
(739,700,o),
(724,700,cs),
(724,700,o),
(715,700,o),
(621,696,c),
(528,700,o),
(516,700,o),
(516,700,c),
(501,700,o),
(501,677,o),
(501,670,c),
(581,648,l),
(572,384,l),
(217,384,l),
(208,648,l),
(288,670,l),
(288,677,o),
(288,700,o),
(273,700,cs),
(273,700,o),
(261,700,o),
(168,696,c),
(74,700,o),
(65,700,o),
(65,700,c),
(50,700,o),
(50,677,o),
(50,670,c),
(134,648,l),
(134,52,l),
(50,30,l),
(50,23,o),
(50,0,o),
(65,0,cs),
(65,0,o),
(74,0,o),
(168,4,c),
(261,0,o),
(273,0,o),
(273,0,c),
(288,0,o),
(288,23,o),
(288,30,c),
(208,52,l),
(217,326,l),
(571,340,l),
(581,52,l),
(501,30,l),
(501,23,o),
(501,0,o),
(516,0,cs),
(516,0,o),
(528,0,o),
(621,4,c),
(715,0,o),
(724,0,o),
(724,0,c),
(739,0,o),
(739,23,o),
(739,30,c),
(655,52,l),
(655,648,l),
(739,670,l,{
name = hr00;
})
);
},
{
closed = 1;
nodes = (
(54,531,l),
(54,498,l),
(734,498,l),
(734,531,l,{
name = hr00;
})
);
}
);
};
layerId = master01;
shapes = (
{
closed = 1;
nodes = (
(734,498,l),
(734,531,l,{
name = hr00;
}),
(54,531,l),
(54,498,l)
);
},
{
alignment = -1;
ref = H;
}
);
width = 789;
}
);
unicode = 294;
},
{
glyphname = Hcircumflex;
lastChange = "2023-02-23 13:21:10 +0000";
layers = (
{
background = {
shapes = (
{
closed = 1;
nodes = (
(739,677,o),
(739,700,o),
(724,700,cs),
(724,700,o),
(715,700,o),
(621,696,c),
(528,700,o),
(516,700,o),
(516,700,c),
(501,700,o),
(501,677,o),
(501,670,c),
(581,648,l),
(572,384,l),
(217,384,l),
(208,648,l),
(288,670,l),
(288,677,o),
(288,700,o),
(273,700,cs),
(273,700,o),
(261,700,o),
(168,696,c),
(74,700,o),
(65,700,o),
(65,700,c),
(50,700,o),
(50,677,o),
(50,670,c),
(134,648,l),
(134,52,l),
(50,30,l),
(50,23,o),
(50,0,o),
(65,0,cs),
(65,0,o),
(74,0,o),
(168,4,c),
(261,0,o),
(273,0,o),
(273,0,c),
(288,0,o),
(288,23,o),
(288,30,c),
(208,52,l),
(217,326,l),
(571,340,l),
(581,52,l),
(501,30,l),
(501,23,o),
(501,0,o),
(516,0,cs),
(516,0,o),
(528,0,o),
(621,4,c),
(715,0,o),
(724,0,o),
(724,0,c),
(739,0,o),
(739,23,o),
(739,30,c),
(655,52,l),
(655,648,l),
(739,670,l,{
name = hr00;
})
);
},
{
closed = 1;
nodes = (
(491,753,l),
(517,770,l),
(473,833,o),
(440,886,o),
(417,929,c),
(372,929,l),
(349,886,o),
(316,833,o),
(272,770,c),
(298,753,l),
(395,855,l,{
name = hr00;
})
);
}
);
};
layerId = master01;
shapes = (
{
ref = H;
},
{
pos = (227,0);
ref = circumflexcomb.case;
}
);
width = 789;
}
);
unicode = 292;
},
{
glyphname = I;
lastChange = "2023-02-23 13:21:10 +0000";
layers = (
{
anchors = (
{
name = bottom;
pos = (173,0);
},
{
name = ogonek;
pos = (275,7);
},
{
name = top;
pos = (173,700);
},
{
name = topleft;
pos = (20,700);
}
);
background = {
shapes = (
{
closed = 1;
nodes = (
(131,350,l),
(136,52,l),
(50,30,l),
(50,23,o),
(50,0,o),
(65,0,cs),
(65,0,o),
(83,0,o),
(177,4,c),
(270,0,o),
(280,0,o),
(280,0,c),
(295,0,o),
(295,23,o),
(295,30,c),
(209,52,l),
(214,350,l),
(209,648,l),
(295,670,l),
(295,677,o),
(295,700,o),
(280,700,cs),
(280,700,o),
(270,700,o),
(177,696,c),
(83,700,o),
(65,700,o),
(65,700,c),
(50,700,o),
(50,677,o),
(50,670,c),
(136,648,l,{
name = hr00;
})
);
}
);
};
layerId = master01;
shapes = (
{
closed = 1;
nodes = (
(65,0,o),
(83,0,o),
(177,4,c),
(270,0,o),
(280,0,o),
(280,0,c),
(295,0,o),
(295,23,o),
(295,30,c),
(209,52,l),
(214,350,l),
(209,648,l),
(295,670,l),
(295,677,o),
(295,700,o),
(280,700,c),
(280,700,o),
(270,700,o),
(177,696,c),
(83,700,o),
(65,700,o),
(65,700,c),
(50,700,o),
(50,677,o),
(50,670,c),
(136,648,l,{
name = hr00;
}),
(131,350,l),
(136,52,l),
(50,30,l),
(50,23,o),
(50,0,o),
(65,0,c)
);
}
);
width = 345;
}
);
unicode = 73;
},
{
glyphname = IJ;
lastChange = "2023-02-23 13:21:10 +0000";
layers = (
{
background = {
shapes = (
{
closed = 1;
nodes = (
(131,350,l),
(136,52,l),
(50,30,l),
(50,23,o),
(50,0,o),
(65,0,cs),
(65,0,o),
(83,0,o),
(177,4,c),
(270,0,o),
(280,0,o),
(280,0,c),
(295,0,o),
(295,23,o),
(295,30,c),
(209,52,l),
(214,350,l),
(209,648,l),
(295,670,l),
(295,677,o),
(295,700,o),
(280,700,cs),
(280,700,o),
(270,700,o),
(177,696,c),
(83,700,o),
(65,700,o),
(65,700,c),
(50,700,o),
(50,677,o),
(50,670,c),
(136,648,l,{
name = hr00;
})
);
},
{
closed = 1;
nodes = (
(478,39,o),
(423,-75,o),
(341,-183,cs),
(371,-204,l),
(483,-80,o),
(557,48,o),
(557,186,cs),
(557,648,l),
(641,669,l),
(641,676,o),
(641,700,o),
(626,700,cs),
(626,700,o),
(609,700,o),
(515,696,c),
(422,700,o),
(399,700,o),
(399,700,c),
(383,700,o),
(383,676,o),
(383,670,c),
(478,648,l),
(478,159,ls,{
name = hr00;
})
);
}
);
};
layerId = master01;
shapes = (
{
ref = I;
},
{
pos = (345,0);
ref = J;
}
);
width = 660;
}
);
unicode = 306;
},
{
glyphname = Iacute;
lastChange = "2023-02-23 13:21:10 +0000";
layers = (
{
background = {
shapes = (
{
closed = 1;
nodes = (
(120,350,l),
(125,52,l),
(39,30,l),
(39,23,o),
(39,0,o),
(54,0,cs),
(54,0,o),
(72,0,o),
(166,4,c),
(259,0,o),
(269,0,o),
(269,0,c),
(284,0,o),
(284,23,o),
(284,30,c),
(198,52,l),
(203,350,l),
(198,648,l),
(284,670,l),
(284,677,o),
(284,700,o),
(269,700,cs),
(269,700,o),
(259,700,o),
(166,696,c),
(72,700,o),
(54,700,o),
(54,700,c),
(39,700,o),
(39,677,o),
(39,670,c),
(125,648,l,{
name = hr00;
})
);
},
{
closed = 1;
nodes = (
(102,772,o),
(200,802,o),
(267,845,cs),
(271,847,o),
(272,852,o),
(272,857,cs),
(272,877,o),
(252,918,o),
(247,924,c),
(152,847,o),
(55,781,o),
(55,781,c),
(66,762,l,{
name = hr00;
})
);
}
);
};
layerId = master01;
shapes = (
{
ref = I;
},
{
pos = (14,0);
ref = acutecomb.case;
}
);
width = 345;
}
);
unicode = 205;
},
{
glyphname = Ibreve;
lastChange = "2023-02-23 13:21:10 +0000";
layers = (
{
background = {
shapes = (
{
closed = 1;
nodes = (
(131,350,l),
(136,52,l),
(50,30,l),
(50,23,o),
(50,0,o),
(65,0,cs),
(65,0,o),
(83,0,o),
(177,4,c),
(270,0,o),
(280,0,o),
(280,0,c),
(295,0,o),
(295,23,o),
(295,30,c),
(209,52,l),
(214,350,l),
(209,648,l),
(295,670,l),
(295,677,o),
(295,700,o),
(280,700,cs),
(280,700,o),
(270,700,o),
(177,696,c),
(83,700,o),
(65,700,o),
(65,700,c),
(50,700,o),
(50,677,o),
(50,670,c),
(136,648,l,{
name = hr00;
})
);
},
{
closed = 1;
nodes = (
(134,821,o),
(105,857,o),
(83,913,c),
(49,905,l),
(81,808,o),
(112,754,o),
(172,754,cs),
(232,754,o),
(263,808,o),
(295,905,c),
(261,913,l),
(239,857,o),
(210,821,o),
(172,821,cs,{
name = hr00;
})
);
}
);
};
layerId = master01;
shapes = (
{
ref = I;
},
{
pos = (7,0);
ref = brevecomb.case;
}
);
width = 345;
}
);
unicode = 300;
},
{
glyphname = Icircumflex;
lastChange = "2023-02-23 13:21:10 +0000";
layers = (
{
background = {
shapes = (
{
closed = 1;
nodes = (
(120,350,l),
(125,52,l),
(39,30,l),
(39,23,o),
(39,0,o),
(54,0,cs),
(54,0,o),
(72,0,o),
(166,4,c),
(259,0,o),
(269,0,o),
(269,0,c),
(284,0,o),
(284,23,o),
(284,30,c),
(198,52,l),
(203,350,l),
(198,648,l),
(284,670,l),
(284,677,o),
(284,700,o),
(269,700,cs),
(269,700,o),
(259,700,o),
(166,696,c),
(72,700,o),
(54,700,o),
(54,700,c),
(39,700,o),
(39,677,o),
(39,670,c),
(125,648,l,{
name = hr00;
})
);
},
{
closed = 1;
nodes = (
(260,753,l),
(286,770,l),
(242,833,o),
(209,886,o),
(186,929,c),
(141,929,l),
(118,886,o),
(85,833,o),
(41,770,c),
(67,753,l),
(164,855,l,{
name = hr00;
})
);
}
);
};
layerId = master01;
shapes = (
{
ref = I;
},
{
pos = (5,0);
ref = circumflexcomb.case;
}
);
width = 345;
}
);
unicode = 206;
},
{
glyphname = Idieresis;
lastChange = "2023-02-23 13:21:10 +0000";
layers = (
{
background = {
shapes = (
{
closed = 1;
nodes = (
(120,350,l),
(125,52,l),
(39,30,l),
(39,23,o),
(39,0,o),
(54,0,cs),
(54,0,o),
(72,0,o),
(166,4,c),
(259,0,o),
(269,0,o),
(269,0,c),
(284,0,o),
(284,23,o),
(284,30,c),
(198,52,l),
(203,350,l),
(198,648,l),
(284,670,l),
(284,677,o),
(284,700,o),
(269,700,cs),
(269,700,o),
(259,700,o),
(166,696,c),
(72,700,o),
(54,700,o),
(54,700,c),
(39,700,o),
(39,677,o),
(39,670,c),
(125,648,l,{
name = hr00;
})
);
},
{
closed = 1;
nodes = (
(76,900,o),
(47,894,o),
(47,894,c),
(47,894,o),
(40,867,o),
(40,841,cs),
(40,816,o),
(46,791,o),
(71,791,cs),
(89,791,o),
(117,799,o),
(117,799,c),
(117,799,o),
(123,825,o),
(123,850,cs),
(123,876,o),
(115,900,o),
(93,900,cs,{
name = hr00;
})
);
},
{
closed = 1;
nodes = (
(244,900,o),
(215,894,o),
(215,894,c),
(215,894,o),
(208,867,o),
(208,841,cs),
(208,816,o),
(214,791,o),
(239,791,cs),
(257,791,o),
(285,799,o),
(285,799,c),
(285,799,o),
(291,825,o),
(291,850,cs),
(291,876,o),
(283,900,o),
(261,900,cs)
);
}
);
};
layerId = master01;
shapes = (
{
ref = I;
},
{
pos = (-17,0);
ref = dieresiscomb.case;
}
);
width = 345;
}
);
unicode = 207;
},
{
glyphname = Idotaccent;
lastChange = "2023-02-23 13:21:10 +0000";
layers = (
{
background = {
shapes = (
{
closed = 1;
nodes = (
(131,350,l),
(136,52,l),
(50,30,l),
(50,23,o),
(50,0,o),
(65,0,cs),
(65,0,o),
(83,0,o),
(177,4,c),
(270,0,o),
(280,0,o),
(280,0,c),
(295,0,o),
(295,23,o),
(295,30,c),
(209,52,l),
(214,350,l),
(209,648,l),
(295,670,l),
(295,677,o),
(295,700,o),
(280,700,cs),
(280,700,o),
(270,700,o),
(177,696,c),
(83,700,o),
(65,700,o),
(65,700,c),
(50,700,o),
(50,677,o),
(50,670,c),
(136,648,l,{
name = hr00;
})
);
},
{
closed = 1;
nodes = (
(166,906,o),
(134,899,o),
(134,899,c),
(134,899,o),
(126,869,o),
(126,840,cs),
(126,813,o),
(133,785,o),
(161,785,cs),
(181,785,o),
(212,794,o),
(212,794,c),
(212,794,o),
(219,823,o),
(219,850,cs),
(219,879,o),
(210,906,o),
(185,906,cs,{
name = hr00;
})
);
}
);
};
layerId = master01;
shapes = (
{
ref = I;
},
{
pos = (64,0);
ref = dotaccentcomb.case;
}
);
width = 345;
}
);
unicode = 304;
},
{
glyphname = Igrave;
lastChange = "2023-02-23 13:21:10 +0000";
layers = (
{
background = {
shapes = (
{
closed = 1;
nodes = (
(120,350,l),
(125,52,l),
(39,30,l),
(39,23,o),
(39,0,o),
(54,0,cs),
(54,0,o),
(72,0,o),
(166,4,c),
(259,0,o),
(269,0,o),
(269,0,c),
(284,0,o),
(284,23,o),
(284,30,c),
(198,52,l),
(203,350,l),
(198,648,l),
(284,670,l),
(284,677,o),
(284,700,o),
(269,700,cs),
(269,700,o),
(259,700,o),
(166,696,c),
(72,700,o),
(54,700,o),
(54,700,c),
(39,700,o),
(39,677,o),
(39,670,c),
(125,648,l,{
name = hr00;
})
);
},
{
closed = 1;
nodes = (
(272,781,o),
(175,847,o),
(80,924,c),
(75,918,o),
(55,877,o),
(55,857,cs),
(55,852,o),
(56,847,o),
(60,845,cs),
(127,802,o),
(225,772,o),
(261,762,c),
(272,781,l,{
name = hr00;
})
);
}
);
};
layerId = master01;
shapes = (
{
ref = I;
},
{
pos = (14,0);
ref = gravecomb.case;
}
);
width = 345;
}
);
unicode = 204;
},
{
glyphname = Imacron;
lastChange = "2023-02-23 13:21:10 +0000";
layers = (
{
background = {
shapes = (
{
closed = 1;
nodes = (
(131,350,l),
(136,52,l),
(50,30,l),
(50,23,o),
(50,0,o),
(65,0,cs),
(65,0,o),
(83,0,o),
(177,4,c),
(270,0,o),
(280,0,o),
(280,0,c),
(295,0,o),
(295,23,o),
(295,30,c),
(209,52,l),
(214,350,l),
(209,648,l),
(295,670,l),
(295,677,o),
(295,700,o),
(280,700,cs),
(280,700,o),
(270,700,o),
(177,696,c),
(83,700,o),
(65,700,o),
(65,700,c),
(50,700,o),
(50,677,o),
(50,670,c),
(136,648,l,{
name = hr00;
})
);
},
{
closed = 1;
nodes = (
(313,770,l),
(313,833,l),
(32,833,l),
(32,770,l,{
name = hr00;
})
);
}
);
};
layerId = master01;
shapes = (
{
ref = I;
},
{
pos = (-38,0);
ref = macroncomb.case;
}
);
width = 345;
}
);
unicode = 298;
},
{
glyphname = Iogonek;
lastChange = "2023-02-23 13:21:10 +0000";
layers = (
{
background = {
shapes = (
{
closed = 1;
nodes = (
(131,350,l),
(136,52,l),
(50,30,l),
(50,23,o),
(50,0,o),
(65,0,cs),
(65,0,o),
(83,0,o),
(177,4,c),
(270,0,o),
(280,0,o),
(280,0,c),
(295,0,o),
(295,23,o),
(295,30,c),
(209,52,l),
(214,350,l),
(209,648,l),
(295,670,l),
(295,677,o),
(295,700,o),
(280,700,cs),
(280,700,o),
(270,700,o),
(177,696,c),
(83,700,o),
(65,700,o),
(65,700,c),
(50,700,o),
(50,677,o),
(50,670,c),
(136,648,l,{
name = hr00;
})
);
},
{
closed = 1;
nodes = (
(119,-29,o),
(84,-90,o),
(84,-141,cs),
(84,-191,o),
(120,-233,o),
(187,-233,cs),
(226,-233,o),
(255,-218,o),
(273,-202,c),
(270,-188,o),
(265,-180,o),
(256,-172,c),
(240,-183,o),
(220,-189,o),
(201,-189,cs),
(171,-189,o),
(144,-173,o),
(144,-134,cs),
(144,-85,o),
(182,-18,o),
(275,7,c),
(196,7,l,{
name = hr00;
})
);
}
);
};
layerId = master01;
shapes = (
{
ref = I;
},
{
pos = (-51,0);
ref = ogonekcomb;
}
);
width = 345;
}
);
unicode = 302;
},
{
glyphname = Itilde;
lastChange = "2023-02-23 13:21:10 +0000";
layers = (
{
background = {
shapes = (
{
closed = 1;
nodes = (
(131,350,l),
(136,52,l),
(50,30,l),
(50,23,o),
(50,0,o),
(65,0,cs),
(65,0,o),
(83,0,o),
(177,4,c),
(270,0,o),
(280,0,o),
(280,0,c),
(295,0,o),
(295,23,o),
(295,30,c),
(209,52,l),
(214,350,l),
(209,648,l),
(295,670,l),
(295,677,o),
(295,700,o),
(280,700,cs),
(280,700,o),
(270,700,o),
(177,696,c),
(83,700,o),
(65,700,o),
(65,700,c),
(50,700,o),
(50,677,o),
(50,670,c),
(136,648,l,{
name = hr00;
})
);
},
{
closed = 1;
nodes = (
(294,876,o),
(274,865,o),
(252,865,cs),
(205,865,o),
(164,892,o),
(116,892,cs,{
name = hr01;
}),
(83,892,o),
(49,876,o),
(15,817,c),
(32,798,l),
(52,817,o),
(72,828,o),
(94,828,cs),
(141,828,o),
(182,801,o),
(230,801,cs,{
name = hr02;
}),
(263,801,o),
(297,817,o),
(331,876,c),
(314,895,l)
);
}
);
};
layerId = master01;
shapes = (
{
ref = I;
},
{
pos = (-35,0);
ref = tildecomb.case;
}
);
width = 345;
}
);
unicode = 296;
},
{
glyphname = J;
lastChange = "2023-02-23 13:21:10 +0000";
layers = (
{
anchors = (
{
name = bottom;
pos = (158,0);
},
{
name = top;
pos = (174,700);
}
);
background = {
shapes = (
{
closed = 1;
nodes = (
(133,39,o),
(78,-75,o),
(-4,-183,cs),
(26,-204,l),
(138,-80,o),
(212,48,o),
(212,186,cs),
(212,648,l),
(296,669,l),
(296,676,o),
(296,700,o),
(281,700,cs),
(281,700,o),
(264,700,o),
(170,696,c),
(77,700,o),
(54,700,o),
(54,700,c),
(38,700,o),
(38,676,o),
(38,670,c),
(133,648,l),
(133,159,ls,{
name = hr00;
})
);
}
);
};
layerId = master01;
shapes = (
{
closed = 1;
nodes = (
(138,-80,o),
(212,48,o),
(212,186,cs),
(212,648,l),
(296,669,l),
(296,676,o),
(296,700,o),
(281,700,c),
(281,700,o),
(264,700,o),
(170,696,c),
(77,700,o),
(54,700,o),
(54,700,c),
(38,700,o),
(38,676,o),
(38,670,c),
(133,648,l),
(133,159,ls,{
name = hr00;
}),
(133,39,o),
(78,-75,o),
(-4,-183,c),
(26,-204,l)
);
}
);
width = 315;
}
);
unicode = 74;
},
{
glyphname = Jcircumflex;
lastChange = "2023-02-23 13:21:10 +0000";
layers = (
{
background = {
shapes = (
{
closed = 1;
nodes = (
(133,39,o),
(78,-75,o),
(-4,-183,cs),
(26,-204,l),
(138,-80,o),
(212,48,o),
(212,186,cs),
(212,648,l),
(296,669,l),
(296,676,o),
(296,700,o),
(281,700,cs),
(281,700,o),
(264,700,o),
(170,696,c),
(77,700,o),
(54,700,o),
(54,700,c),
(38,700,o),
(38,676,o),
(38,670,c),
(133,648,l),
(133,159,ls,{
name = hr00;
})
);
},
{
closed = 1;
nodes = (
(270,753,l),
(296,770,l),
(252,833,o),
(219,886,o),
(196,929,c),
(151,929,l),
(128,886,o),
(95,833,o),
(51,770,c),
(77,753,l),
(174,855,l,{
name = hr00;
})
);
}
);
};
layerId = master01;
shapes = (
{
ref = J;
},
{
pos = (6,0);
ref = circumflexcomb.case;
}
);
width = 315;
}
);
unicode = 308;
},
{
glyphname = K;
kernRight = K;
lastChange = "2023-02-24 11:17:27 +0000";
layers = (
{
anchors = (
{
name = bottom;
pos = (352,0);
},
{
name = top;
pos = (312,700);
}
);
background = {
shapes = (
{
closed = 1;
nodes = (
(399,700,o),
(399,677,o),
(399,670,c),
(471,650,l),
(331,372,l),
(217,372,l),
(208,648,l),
(288,670,l),
(288,677,o),
(288,700,o),
(273,700,cs),
(273,700,o),
(261,700,o),
(168,696,c),
(74,700,o),
(65,700,o),
(65,700,c),
(50,700,o),
(50,677,o),
(50,670,c),
(134,648,l),
(134,52,l),
(50,30,l),
(50,23,o),
(50,0,o),
(65,0,cs),
(65,0,o),
(74,0,o),
(168,4,c),
(261,0,o),
(294,0,o),
(294,0,c),
(309,0,o),
(309,23,o),
(309,30,c),
(208,52,l),
(217,324,l),
(315,336,l),
(325,328,o),
(335,314,o),
(345,295,cs),
(506,0,l),
(637,0,l),
(652,0,o),
(652,23,o),
(652,30,c),
(572,52,l),
(427,299,l),
(407,333,o),
(389,349,o),
(371,357,c),
(537,648,l),
(604,670,l),
(604,677,o),
(602,700,o),
(590,700,c),
(558,699,o),
(527,697,o),
(495,696,c),
(468,697,o),
(441,699,o),
(414,700,c,{
name = hr00;
})
);
}
);
};
layerId = master01;
shapes = (
{
closed = 1;
nodes = (
(65,0,o),
(74,0,o),
(168,4,c),
(261,0,o),
(294,0,o),
(294,0,c),
(309,0,o),
(309,23,o),
(309,30,c),
(208,52,l),
(217,324,l),
(315,336,l),
(325,328,o),
(335,314,o),
(345,295,cs),
(506,0,l),
(637,0,ls),
(652,0,o),
(652,23,o),
(652,30,c),
(572,52,l),
(427,299,ls),
(407,333,o),
(389,349,o),
(371,357,c),
(537,648,l),
(604,670,l),
(604,677,o),
(602,700,o),
(590,700,cs),
(558,699,o),
(527,697,o),
(495,696,cs),
(468,697,o),
(441,699,o),
(414,700,cs,{
name = hr00;
}),
(399,700,o),
(399,677,o),
(399,670,c),
(471,650,l),
(331,372,l),
(217,372,l),
(208,648,l),
(288,670,l),
(288,677,o),
(288,700,o),
(273,700,c),
(273,700,o),
(261,700,o),
(168,696,c),
(74,700,o),
(65,700,o),
(65,700,c),
(50,700,o),
(50,677,o),
(50,670,c),
(134,648,l),
(134,52,l),
(50,30,l),
(50,23,o),
(50,0,o),
(65,0,c)
);
}
);
width = 623;
}
);
unicode = 75;
},
{
glyphname = Kcommaaccent;
kernRight = K;
lastChange = "2023-02-24 11:17:27 +0000";
layers = (
{
background = {
shapes = (
{
closed = 1;
nodes = (
(399,700,o),
(399,677,o),
(399,670,c),
(471,650,l),
(331,372,l),
(217,372,l),
(208,648,l),
(288,670,l),
(288,677,o),
(288,700,o),
(273,700,cs),
(273,700,o),
(261,700,o),
(168,696,c),
(74,700,o),
(65,700,o),
(65,700,c),
(50,700,o),
(50,677,o),
(50,670,c),
(134,648,l),
(134,52,l),
(50,30,l),
(50,23,o),
(50,0,o),
(65,0,cs),
(65,0,o),
(74,0,o),
(168,4,c),
(261,0,o),
(294,0,o),
(294,0,c),
(309,0,o),
(309,23,o),
(309,30,c),
(208,52,l),
(217,324,l),
(315,336,l),
(325,328,o),
(335,314,o),
(345,295,cs),
(506,0,l),
(637,0,l),
(652,0,o),
(652,23,o),
(652,30,c),
(572,52,l),
(427,299,l),
(407,333,o),
(389,349,o),
(371,357,c),
(537,648,l),
(604,670,l),
(604,677,o),
(602,700,o),
(590,700,c),
(558,699,o),
(527,697,o),
(495,696,c),
(468,697,o),
(441,699,o),
(414,700,c,{
name = hr00;
})
);
},
{
closed = 1;
nodes = (
(366,-285,o),
(413,-226,o),
(413,-159,cs),
(413,-95,o),
(394,-50,o),
(367,-50,cs),
(349,-50,o),
(326,-53,o),
(308,-57,c),
(303,-81,o),
(300,-103,o),
(300,-122,cs),
(300,-162,o),
(312,-182,o),
(337,-182,cs),
(343,-182,o),
(346,-182,o),
(353,-181,c),
(353,-186,ls),
(353,-226,o),
(329,-259,o),
(289,-277,c),
(301,-307,l,{
name = hr00;
})
);
}
);
};
layerId = master01;
shapes = (
{
ref = K;
},
{
pos = (253,0);
ref = commaaccentcomb;
}
);
width = 623;
}
);
unicode = 310;
},
{
glyphname = L;
kernRight = L;
lastChange = "2023-02-24 11:17:32 +0000";
layers = (
{
anchors = (
{
name = bottom;
pos = (295,0);
},
{
name = center;
pos = (261,350);
},
{
name = top;
pos = (195,700);
},
{
name = topright;
pos = (474,700);
}
);
background = {
shapes = (
{
closed = 1;
nodes = (
(130,350,l),
(135,52,l),
(49,30,l),
(49,23,o),
(49,0,o),
(64,0,c),
(176,8,l),
(474,0,l),
(494,0,o),
(502,1,o),
(503,12,cs),
(511,163,l),
(504,163,o),
(473,162,o),
(469,149,cs),
(443,55,l),
(208,55,l),
(213,350,l),
(208,648,l),
(294,670,l),
(294,677,o),
(294,700,o),
(279,700,cs),
(279,700,o),
(269,700,o),
(176,696,c),
(82,700,o),
(64,700,o),
(64,700,c),
(49,700,o),
(49,677,o),
(49,670,c),
(135,648,l,{
name = hr00;
})
);
}
);
};
layerId = master01;
shapes = (
{
closed = 1;
nodes = (
(176,8,l),
(474,0,ls),
(494,-1,o),
(502,1,o),
(503,12,cs),
(511,163,l),
(504,163,o),
(473,162,o),
(469,149,cs),
(443,55,l),
(208,55,l),
(213,350,l),
(208,648,l),
(294,670,l),
(294,677,o),
(294,700,o),
(279,700,c),
(279,700,o),
(269,700,o),
(176,696,c),
(82,700,o),
(64,700,o),
(64,700,c),
(49,700,o),
(49,677,o),
(49,670,c),
(135,648,l,{
name = hr00;
}),
(130,350,l),
(135,52,l),
(49,30,l),
(49,23,o),
(49,-1,o),
(64,0,cs)
);
}
);
width = 521;
}
);
unicode = 76;
},
{
glyphname = Lacute;
kernRight = L;
lastChange = "2023-02-24 11:17:32 +0000";
layers = (
{
background = {
shapes = (
{
closed = 1;
nodes = (
(130,350,l),
(135,52,l),
(49,30,l),
(49,23,o),
(49,0,o),
(64,0,c),
(176,8,l),
(474,0,l),
(494,0,o),
(502,1,o),
(503,12,cs),
(511,163,l),
(504,163,o),
(473,162,o),
(469,149,cs),
(443,55,l),
(208,55,l),
(213,350,l),
(208,648,l),
(294,670,l),
(294,677,o),
(294,700,o),
(279,700,cs),
(279,700,o),
(269,700,o),
(176,696,c),
(82,700,o),
(64,700,o),
(64,700,c),
(49,700,o),
(49,677,o),
(49,670,c),
(135,648,l,{
name = hr00;
})
);
},
{
closed = 1;
nodes = (
(132,772,o),
(230,802,o),
(297,845,cs),
(301,847,o),
(302,852,o),
(302,857,cs),
(302,877,o),
(282,918,o),
(277,924,c),
(182,847,o),
(85,781,o),
(85,781,c),
(96,762,l,{
name = hr00;
})
);
}
);
};
layerId = master01;
shapes = (
{
ref = L;
},
{
pos = (36,0);
ref = acutecomb.case;
}
);
width = 521;
}
);
unicode = 313;
},
{
glyphname = Lcaron;
kernRight = L;
lastChange = "2023-02-24 11:17:32 +0000";
layers = (
{
background = {
shapes = (
{
closed = 1;
nodes = (
(130,350,l),
(135,52,l),
(49,30,l),
(49,23,o),
(49,0,o),
(64,0,c),
(176,8,l),
(474,0,l),
(494,0,o),
(502,1,o),
(503,12,cs),
(511,163,l),
(504,163,o),
(473,162,o),
(469,149,cs),
(443,55,l),
(208,55,l),
(213,350,l),
(208,648,l),
(294,670,l),
(294,677,o),
(294,700,o),
(279,700,cs),
(279,700,o),
(269,700,o),
(176,696,c),
(82,700,o),
(64,700,o),
(64,700,c),
(49,700,o),
(49,677,o),
(49,670,c),
(135,648,l,{
name = hr00;
})
);
},
{
closed = 1;
nodes = (
(423,534,o),
(470,593,o),
(470,660,cs),
(470,724,o),
(451,769,o),
(424,769,cs),
(406,769,o),
(383,766,o),
(365,762,c),
(360,738,o),
(357,716,o),
(357,697,cs),
(357,657,o),
(369,637,o),
(394,637,cs),
(400,637,o),
(403,637,o),
(410,638,c),
(410,633,ls),
(410,593,o),
(386,560,o),
(346,542,c),
(358,512,l,{
name = hr00;
})
);
}
);
};
layerId = master01;
shapes = (
{
ref = L;
},
{
pos = (300,-1);
ref = caroncomb.alt;
}
);
width = 521;
}
);
unicode = 317;
},
{
glyphname = Lcommaaccent;
kernRight = L;
lastChange = "2023-02-24 11:17:32 +0000";
layers = (
{
background = {
shapes = (
{
closed = 1;
nodes = (
(130,350,l),
(135,52,l),
(49,30,l),
(49,23,o),
(49,0,o),
(64,0,c),
(176,8,l),
(474,0,l),
(494,0,o),
(502,1,o),
(503,12,cs),
(511,163,l),
(504,163,o),
(473,162,o),
(469,149,cs),
(443,55,l),
(208,55,l),
(213,350,l),
(208,648,l),
(294,670,l),
(294,677,o),
(294,700,o),
(279,700,cs),
(279,700,o),
(269,700,o),
(176,696,c),
(82,700,o),
(64,700,o),
(64,700,c),
(49,700,o),
(49,677,o),
(49,670,c),
(135,648,l,{
name = hr00;
})
);
},
{
closed = 1;
nodes = (
(309,-285,o),
(356,-226,o),
(356,-159,cs),
(356,-95,o),
(337,-50,o),
(310,-50,cs),
(292,-50,o),
(269,-53,o),
(251,-57,c),
(246,-81,o),
(243,-103,o),
(243,-122,cs),
(243,-162,o),
(255,-182,o),
(280,-182,cs),
(286,-182,o),
(289,-182,o),
(296,-181,c),
(296,-186,ls),
(296,-226,o),
(272,-259,o),
(232,-277,c),
(244,-307,l,{
name = hr00;
})
);
}
);
};
layerId = master01;
shapes = (
{
ref = L;
},
{
pos = (196,0);
ref = commaaccentcomb;
}
);
width = 521;
}
);
unicode = 315;
},
{
glyphname = Ldot;
kernRight = L;
lastChange = "2023-02-24 11:17:32 +0000";
layers = (
{
background = {
shapes = (
{
closed = 1;
nodes = (
(130,350,l),
(135,52,l),
(49,30,l),
(49,23,o),
(49,0,o),
(64,0,c),
(176,8,l),
(474,0,l),
(494,0,o),
(502,1,o),
(503,12,cs),
(511,163,l),
(504,163,o),
(473,162,o),
(469,149,cs),
(443,55,l),
(208,55,l),
(213,350,l),
(208,648,l),
(294,670,l),
(294,677,o),
(294,700,o),
(279,700,cs),
(279,700,o),
(269,700,o),
(176,696,c),
(82,700,o),
(64,700,o),
(64,700,c),
(49,700,o),
(49,677,o),
(49,670,c),
(135,648,l,{
name = hr00;
})
);
},
{
closed = 1;
nodes = (
(371,456,o),
(335,449,o),
(335,449,c),
(335,449,o),
(327,415,o),
(327,384,cs),
(327,353,o),
(334,323,o),
(364,323,cs),
(386,323,o),
(421,332,o),
(421,332,c),
(421,332,o),
(428,365,o),
(428,394,cs),
(428,427,o),
(419,456,o),
(392,456,cs,{
name = hr00;
})
);
}
);
};
layerId = master01;
shapes = (
{
ref = L;
},
{
pos = (279,150);
ref = periodcentered;
}
);
width = 521;
}
);
unicode = 319;
},
{
glyphname = Lslash;
kernRight = L;
lastChange = "2023-02-24 11:17:32 +0000";
layers = (
{
background = {
shapes = (
{
closed = 1;
nodes = (
(316,431,l),
(297,469,l),
(27,332,l),
(53,280,l,{
name = hr00;
})
);
},
{
closed = 1;
nodes = (
(130,350,l),
(135,52,l),
(49,30,l),
(49,23,o),
(49,0,o),
(64,0,c),
(176,8,l),
(474,0,l),
(494,0,o),
(502,1,o),
(503,12,cs),
(511,163,l),
(504,163,o),
(473,162,o),
(469,149,cs),
(443,55,l),
(208,55,l),
(213,350,l),
(208,648,l),
(294,670,l),
(294,677,o),
(294,700,o),
(279,700,cs),
(279,700,o),
(269,700,o),
(176,696,c),
(82,700,o),
(64,700,o),
(64,700,c),
(49,700,o),
(49,677,o),
(49,670,c),
(135,648,l,{
name = hr00;
})
);
}
);
};
layerId = master01;
shapes = (
{
closed = 1;
nodes = (
(316,431,l),
(297,469,l),
(27,332,l),
(53,280,l,{
name = hr00;
})
);
},
{
ref = L;
}
);
width = 521;
}
);
unicode = 321;
},
{
glyphname = M;
lastChange = "2023-02-23 13:21:10 +0000";
layers = (
{
anchors = (
{
name = bottom;
pos = (454,0);
},
{
name = top;
pos = (454,700);
}
);
background = {
shapes = (
{
closed = 1;
nodes = (
(248,0,ls),
(264,0,o),
(264,22,o),
(264,30,c),
(169,52,l),
(192,594,l),
(423,50,l),
(442,50,l),
(695,601,l),
(716,52,l),
(621,30,l),
(621,22,o),
(621,0,o),
(637,0,cs),
(750,4,l),
(837,0,o),
(868,0,o),
(868,0,c),
(883,0,o),
(883,23,o),
(883,30,c),
(798,52,l),
(767,647,l),
(849,669,l),
(849,676,o),
(849,700,o),
(834,700,cs),
(834,700,o),
(799,700,o),
(676,696,c),
(445,184,l),
(234,696,l),
(111,700,o),
(74,700,o),
(74,700,c),
(59,700,o),
(59,676,o),
(59,669,c),
(141,647,l),
(110,52,l),
(25,30,l),
(25,23,o),
(25,0,o),
(40,0,cs),
(40,0,o),
(51,0,o),
(138,4,c,{
name = hr00;
})
);
}
);
};
layerId = master01;
shapes = (
{
closed = 1;
nodes = (
(40,0,o),
(51,0,o),
(138,4,c,{
name = hr00;
}),
(248,0,ls),
(264,0,o),
(264,22,o),
(264,30,c),
(169,52,l),
(192,594,l),
(423,50,l),
(442,50,l),
(695,601,l),
(716,52,l),
(621,30,l),
(621,22,o),
(621,0,o),
(637,0,cs),
(750,4,l),
(837,0,o),
(868,0,o),
(868,0,c),
(883,0,o),
(883,23,o),
(883,30,c),
(798,52,l),
(767,647,l),
(849,669,l),
(849,676,o),
(849,700,o),
(834,700,c),
(834,700,o),
(799,700,o),
(676,696,c),
(445,184,l),
(234,696,l),
(111,700,o),
(74,700,o),
(74,700,c),
(59,700,o),
(59,676,o),
(59,669,c),
(141,647,l),
(110,52,l),
(25,30,l),
(25,23,o),
(25,0,o),
(40,0,c)
);
}
);
width = 908;
}
);
unicode = 77;
},
{
glyphname = N;
kernRight = N;
lastChange = "2023-02-24 11:17:39 +0000";
layers = (
{
anchors = (
{
name = bottom;
pos = (395,0);
},
{
name = top;
pos = (405,700);
}
);
background = {
shapes = (
{
closed = 1;
nodes = (
(621,126,l),
(200,696,l),
(77,700,o),
(65,700,o),
(65,700,c),
(50,700,o),
(50,676,o),
(50,669,c),
(132,647,l),
(132,52,l),
(50,30,l),
(50,23,o),
(50,0,o),
(65,0,cs),
(65,0,o),
(76,0,o),
(163,4,c),
(284,0,l),
(300,0,o),
(300,22,o),
(300,30,c),
(194,52,l),
(186,583,l),
(616,0,l),
(672,0,l),
(675,648,l),
(750,670,l),
(750,677,o),
(750,700,o),
(735,700,cs),
(735,700,o),
(734,700,o),
(647,696,c),
(526,700,l),
(510,700,o),
(510,678,o),
(510,670,c),
(615,648,l,{
name = hr00;
})
);
}
);
};
layerId = master01;
shapes = (
{
closed = 1;
nodes = (
(65,0,o),
(76,0,o),
(163,4,c),
(284,0,ls),
(300,-1,o),
(300,22,o),
(300,30,c),
(194,52,l),
(186,583,l),
(616,0,l),
(672,0,l),
(675,648,l),
(750,670,l),
(750,677,o),
(750,701,o),
(735,700,cs),
(647,696,l),
(526,700,ls),
(510,701,o),
(510,678,o),
(510,670,c),
(615,648,l,{
name = hr00;
}),
(621,126,l),
(200,696,l),
(77,700,o),
(65,700,o),
(65,700,c),
(50,700,o),
(50,676,o),
(50,669,c),
(132,647,l),
(132,52,l),
(50,30,l),
(50,23,o),
(50,0,o),
(65,0,c)
);
}
);
width = 790;
}
);
unicode = 78;
},
{
glyphname = Nacute;
kernRight = N;
lastChange = "2023-02-24 11:17:39 +0000";
layers = (
{
background = {
shapes = (
{
closed = 1;
nodes = (
(621,126,l),
(200,696,l),
(77,700,o),
(65,700,o),
(65,700,c),
(50,700,o),
(50,676,o),
(50,669,c),
(132,647,l),
(132,52,l),
(50,30,l),
(50,23,o),
(50,0,o),
(65,0,cs),
(65,0,o),
(76,0,o),
(163,4,c),
(284,0,l),
(300,0,o),
(300,22,o),
(300,30,c),
(194,52,l),
(186,583,l),
(616,0,l),
(672,0,l),
(675,648,l),
(750,670,l),
(750,677,o),
(750,700,o),
(735,700,cs),
(735,700,o),
(734,700,o),
(647,696,c),
(526,700,l),
(510,700,o),
(510,678,o),
(510,670,c),
(615,648,l,{
name = hr00;
})
);
},
{
closed = 1;
nodes = (
(333,772,o),
(431,802,o),
(498,845,cs),
(502,847,o),
(503,852,o),
(503,857,cs),
(503,877,o),
(483,918,o),
(478,924,c),
(383,847,o),
(286,781,o),
(286,781,c),
(297,762,l,{
name = hr00;
})
);
}
);
};
layerId = master01;
shapes = (
{
ref = N;
},
{
pos = (246,0);
ref = acutecomb.case;
}
);
width = 790;
}
);
unicode = 323;
},
{
glyphname = Ncaron;
kernRight = N;
lastChange = "2023-02-24 11:17:39 +0000";
layers = (
{
background = {
shapes = (
{
closed = 1;
nodes = (
(621,126,l),
(200,696,l),
(77,700,o),
(65,700,o),
(65,700,c),
(50,700,o),
(50,676,o),
(50,669,c),
(132,647,l),
(132,52,l),
(50,30,l),
(50,23,o),
(50,0,o),
(65,0,cs),
(65,0,o),
(76,0,o),
(163,4,c),
(284,0,l),
(300,0,o),
(300,22,o),
(300,30,c),
(194,52,l),
(186,583,l),
(616,0,l),
(672,0,l),
(675,648,l),
(750,670,l),
(750,677,o),
(750,700,o),
(735,700,cs),
(735,700,o),
(734,700,o),
(647,696,c),
(526,700,l),
(510,700,o),
(510,678,o),
(510,670,c),
(615,648,l,{
name = hr00;
})
);
},
{
closed = 1;
nodes = (
(319,929,l),
(292,912,l),
(332,849,o),
(362,796,o),
(381,753,c),
(426,753,l),
(452,796,o),
(489,849,o),
(537,912,c),
(512,929,l),
(409,827,l,{
name = hr00;
})
);
}
);
};
layerId = master01;
shapes = (
{
ref = N;
},
{
pos = (233,0);
ref = caroncomb.case;
}
);
width = 790;
}
);
unicode = 327;
},
{
glyphname = Ncommaaccent;
kernRight = N;
lastChange = "2023-02-24 11:17:39 +0000";
layers = (
{
background = {
shapes = (
{
closed = 1;
nodes = (
(621,126,l),
(200,696,l),
(77,700,o),
(65,700,o),
(65,700,c),
(50,700,o),
(50,676,o),
(50,669,c),
(132,647,l),
(132,52,l),
(50,30,l),
(50,23,o),
(50,0,o),
(65,0,cs),
(65,0,o),
(76,0,o),
(163,4,c),
(284,0,l),
(300,0,o),
(300,22,o),
(300,30,c),
(194,52,l),
(186,583,l),
(616,0,l),
(672,0,l),
(675,648,l),
(750,670,l),
(750,677,o),
(750,700,o),
(735,700,cs),
(735,700,o),
(734,700,o),
(647,696,c),
(526,700,l),
(510,700,o),
(510,678,o),
(510,670,c),
(615,648,l,{
name = hr00;
})
);
},
{
closed = 1;
nodes = (
(410,-285,o),
(457,-226,o),
(457,-159,cs),
(457,-95,o),
(438,-50,o),
(411,-50,cs),
(393,-50,o),
(370,-53,o),
(352,-57,c),
(347,-81,o),
(344,-103,o),
(344,-122,cs),
(344,-162,o),
(356,-182,o),
(381,-182,cs),
(387,-182,o),
(390,-182,o),
(397,-181,c),
(397,-186,ls),
(397,-226,o),
(373,-259,o),
(333,-277,c),
(345,-307,l,{
name = hr00;
})
);
}
);
};
layerId = master01;
shapes = (
{
ref = N;
},
{
pos = (296,0);
ref = commaaccentcomb;
}
);
width = 790;
}
);
unicode = 325;
},
{
glyphname = Ntilde;
kernRight = N;
lastChange = "2023-02-24 11:17:39 +0000";
layers = (
{
background = {
shapes = (
{
closed = 1;
nodes = (
(621,126,l),
(200,696,l),
(77,700,o),
(65,700,o),
(65,700,c),
(50,700,o),
(50,676,o),
(50,669,c),
(132,647,l),
(132,52,l),
(50,30,l),
(50,23,o),
(50,0,o),
(65,0,cs),
(65,0,o),
(76,0,o),
(163,4,c),
(284,0,l),
(300,0,o),
(300,22,o),
(300,30,c),
(194,52,l),
(186,583,l),
(616,0,l),
(672,0,l),
(675,648,l),
(750,670,l),
(750,677,o),
(750,700,o),
(735,700,cs),
(735,700,o),
(734,700,o),
(647,696,c),
(526,700,l),
(510,700,o),
(510,678,o),
(510,670,c),
(615,648,l,{
name = hr00;
})
);
},
{
closed = 1;
nodes = (
(521,876,o),
(501,865,o),
(479,865,cs),
(432,865,o),
(391,892,o),
(343,892,cs,{
name = hr01;
}),
(310,892,o),
(276,876,o),
(242,817,c),
(259,798,l),
(279,817,o),
(299,828,o),
(321,828,cs),
(368,828,o),
(409,801,o),
(457,801,cs,{
name = hr02;
}),
(490,801,o),
(524,817,o),
(558,876,c),
(541,895,l)
);
}
);
};
layerId = master01;
shapes = (
{
ref = N;
},
{
pos = (197,0);
ref = tildecomb.case;
}
);
width = 790;
}
);
unicode = 209;
},
{
glyphname = Eng;
kernRight = N;
lastChange = "2023-02-24 11:17:39 +0000";
layers = (
{
anchors = (
{
name = bottom;
pos = (395,0);
},
{
name = top;
pos = (395,700);
}
);
background = {
shapes = (
{
closed = 1;
nodes = (
(621,126,l),
(200,696,l),
(77,700,o),
(65,700,o),
(65,700,c),
(50,700,o),
(50,676,o),
(50,669,c),
(132,647,l),
(132,52,l),
(50,30,l),
(50,23,o),
(50,0,o),
(65,0,cs),
(65,0,o),
(76,0,o),
(163,4,c),
(284,0,l),
(300,0,o),
(300,22,o),
(300,30,c),
(194,52,l),
(186,583,l),
(616,0,l),
(672,136,l),
(675,648,l),
(750,670,l),
(750,677,o),
(750,700,o),
(735,700,cs),
(735,700,o),
(734,700,o),
(647,696,c),
(526,700,l),
(510,700,o),
(510,678,o),
(510,670,c),
(615,648,l,{
name = hr00;
})
);
},
{
closed = 1;
nodes = (
(594,-11,o),
(539,-125,o),
(457,-233,cs),
(487,-254,l),
(599,-130,o),
(672,-2,o),
(672,136,c),
(594,109,ls)
);
}
);
};
layerId = master01;
shapes = (
{
closed = 1;
nodes = (
(65,0,o),
(76,0,o),
(163,4,c),
(284,0,ls),
(300,0,o),
(300,22,o),
(300,30,c),
(194,52,l),
(186,583,l),
(616,0,l),
(672,136,l),
(675,648,l),
(750,670,l),
(750,677,o),
(750,700,o),
(735,700,cs),
(647,696,l),
(526,700,ls),
(510,700,o),
(510,678,o),
(510,670,c),
(615,648,l,{
name = hr00;
}),
(621,126,l),
(200,696,l),
(77,700,o),
(65,700,o),
(65,700,c),
(50,700,o),
(50,676,o),
(50,669,c),
(132,647,l),
(132,52,l),
(50,30,l),
(50,23,o),
(50,0,o),
(65,0,c)
);
},
{
closed = 1;
nodes = (
(599,-130,o),
(672,-2,o),
(672,136,c),
(594,109,l),
(594,-11,o),
(539,-125,o),
(457,-233,c),
(487,-254,l)
);
}
);
width = 790;
}
);
unicode = 330;
},
{
glyphname = O;
kernLeft = C;
kernRight = D;
lastChange = "2023-02-24 11:17:08 +0000";
layers = (
{
anchors = (
{
name = bottom;
pos = (374,0);
},
{
name = center;
pos = (374,350);
},
{
name = ogonek;
pos = (672,10);
},
{
name = top;
pos = (374,700);
},
{
name = topleft;
pos = (20,700);
},
{
name = topright;
pos = (727,700);
}
);
background = {
shapes = (
{
closed = 1;
nodes = (
(707,597,o),
(560,712,o),
(379,712,cs),
(192,712,o),
(40,588,o),
(40,354,cs),
(40,109,o),
(178,-12,o),
(363,-12,cs),
(563,-12,o),
(707,110,o),
(707,363,cs,{
name = hr00;
})
);
},
{
closed = 1;
nodes = (
(128,480,o),
(167,587,o),
(229,634,c),
(268,647,o),
(324,658,o),
(373,658,cs),
(513,658,o),
(619,557,o),
(619,352,cs),
(619,140,o),
(513,36,o),
(373,36,cs),
(234,36,o),
(128,140,o),
(128,352,cs)
);
}
);
};
layerId = master01;
shapes = (
{
closed = 1;
nodes = (
(563,-12,o),
(707,110,o),
(707,363,cs,{
name = hr00;
}),
(707,597,o),
(560,712,o),
(379,712,cs),
(192,712,o),
(40,588,o),
(40,354,cs),
(40,109,o),
(178,-12,o),
(363,-12,cs)
);
},
{
closed = 1;
nodes = (
(234,36,o),
(128,140,o),
(128,352,cs),
(128,480,o),
(167,587,o),
(229,634,c),
(268,647,o),
(324,658,o),
(373,658,cs),
(513,658,o),
(619,557,o),
(619,352,cs),
(619,140,o),
(513,36,o),
(373,36,cs)
);
}
);
width = 747;
}
);
unicode = 79;
},
{
glyphname = Oacute;
kernLeft = C;
kernRight = D;
lastChange = "2023-02-24 11:17:08 +0000";
layers = (
{
background = {
shapes = (
{
closed = 1;
nodes = (
(697,597,o),
(550,712,o),
(369,712,cs),
(182,712,o),
(30,588,o),
(30,354,cs),
(30,109,o),
(168,-12,o),
(353,-12,cs),
(553,-12,o),
(697,110,o),
(697,363,cs,{
name = hr00;
})
);
},
{
closed = 1;
nodes = (
(118,480,o),
(157,587,o),
(219,634,c),
(258,647,o),
(314,658,o),
(363,658,cs),
(503,658,o),
(609,557,o),
(609,352,cs),
(609,140,o),
(503,36,o),
(363,36,cs),
(224,36,o),
(118,140,o),
(118,352,cs)
);
},
{
closed = 1;
nodes = (
(302,772,o),
(400,802,o),
(467,845,cs),
(471,847,o),
(472,852,o),
(472,857,cs),
(472,877,o),
(452,918,o),
(447,924,c),
(352,847,o),
(255,781,o),
(255,781,c),
(266,762,l,{
name = hr00;
})
);
}
);
};
layerId = master01;
shapes = (
{
ref = O;
},
{
pos = (215,0);
ref = acutecomb.case;
}
);
width = 747;
}
);
unicode = 211;
},
{
glyphname = Obreve;
kernLeft = C;
kernRight = D;
lastChange = "2023-02-24 11:17:08 +0000";
layers = (
{
background = {
shapes = (
{
closed = 1;
nodes = (
(707,597,o),
(560,712,o),
(379,712,cs),
(192,712,o),
(40,588,o),
(40,354,cs),
(40,109,o),
(178,-12,o),
(363,-12,cs),
(563,-12,o),
(707,110,o),
(707,363,cs,{
name = hr00;
})
);
},
{
closed = 1;
nodes = (
(128,480,o),
(167,587,o),
(229,634,c),
(268,647,o),
(324,658,o),
(373,658,cs),
(513,658,o),
(619,557,o),
(619,352,cs),
(619,140,o),
(513,36,o),
(373,36,cs),
(234,36,o),
(128,140,o),
(128,352,cs)
);
},
{
closed = 1;
nodes = (
(335,821,o),
(306,857,o),
(284,913,c),
(250,905,l),
(282,808,o),
(313,754,o),
(373,754,cs),
(433,754,o),
(464,808,o),
(496,905,c),
(462,913,l),
(440,857,o),
(411,821,o),
(373,821,cs,{
name = hr00;
})
);
}
);
};
layerId = master01;
shapes = (
{
ref = O;
},
{
pos = (208,0);
ref = brevecomb.case;
}
);
width = 747;
}
);
unicode = 334;
},
{
glyphname = Ocircumflex;
kernLeft = C;
kernRight = D;
lastChange = "2023-02-24 11:17:08 +0000";
layers = (
{
background = {
shapes = (
{
closed = 1;
nodes = (
(697,597,o),
(550,712,o),
(369,712,cs),
(182,712,o),
(30,588,o),
(30,354,cs),
(30,109,o),
(168,-12,o),
(353,-12,cs),
(553,-12,o),
(697,110,o),
(697,363,cs,{
name = hr00;
})
);
},
{
closed = 1;
nodes = (
(118,480,o),
(157,587,o),
(219,634,c),
(258,647,o),
(314,658,o),
(363,658,cs),
(503,658,o),
(609,557,o),
(609,352,cs),
(609,140,o),
(503,36,o),
(363,36,cs),
(224,36,o),
(118,140,o),
(118,352,cs)
);
},
{
closed = 1;
nodes = (
(460,753,l),
(486,770,l),
(442,833,o),
(409,886,o),
(386,929,c),
(341,929,l),
(318,886,o),
(285,833,o),
(241,770,c),
(267,753,l),
(364,855,l,{
name = hr00;
})
);
}
);
};
layerId = master01;
shapes = (
{
ref = O;
},
{
pos = (206,0);
ref = circumflexcomb.case;
}
);
width = 747;
}
);
unicode = 212;
},
{
glyphname = Odieresis;
kernLeft = C;
kernRight = D;
lastChange = "2023-02-24 11:17:08 +0000";
layers = (
{
background = {
shapes = (
{
closed = 1;
nodes = (
(697,597,o),
(550,712,o),
(369,712,cs),
(182,712,o),
(30,588,o),
(30,354,cs),
(30,109,o),
(168,-12,o),
(353,-12,cs),
(553,-12,o),
(697,110,o),
(697,363,cs,{
name = hr00;
})
);
},
{
closed = 1;
nodes = (
(118,480,o),
(157,587,o),
(219,634,c),
(258,647,o),
(314,658,o),
(363,658,cs),
(503,658,o),
(609,557,o),
(609,352,cs),
(609,140,o),
(503,36,o),
(363,36,cs),
(224,36,o),
(118,140,o),
(118,352,cs)
);
},
{
closed = 1;
nodes = (
(276,900,o),
(247,894,o),
(247,894,c),
(247,894,o),
(240,867,o),
(240,841,cs),
(240,816,o),
(246,791,o),
(271,791,cs),
(289,791,o),
(317,799,o),
(317,799,c),
(317,799,o),
(323,825,o),
(323,850,cs),
(323,876,o),
(315,900,o),
(293,900,cs,{
name = hr00;
})
);
},
{
closed = 1;
nodes = (
(444,900,o),
(415,894,o),
(415,894,c),
(415,894,o),
(408,867,o),
(408,841,cs),
(408,816,o),
(414,791,o),
(439,791,cs),
(457,791,o),
(485,799,o),
(485,799,c),
(485,799,o),
(491,825,o),
(491,850,cs),
(491,876,o),
(483,900,o),
(461,900,cs)
);
}
);
};
layerId = master01;
shapes = (
{
ref = O;
},
{
pos = (184,0);
ref = dieresiscomb.case;
}
);
width = 747;
}
);
unicode = 214;
},
{
glyphname = Ograve;
kernLeft = C;
kernRight = D;
lastChange = "2023-02-24 11:17:08 +0000";
layers = (
{
background = {
shapes = (
{
closed = 1;
nodes = (
(697,597,o),
(550,712,o),
(369,712,cs),
(182,712,o),
(30,588,o),
(30,354,cs),
(30,109,o),
(168,-12,o),
(353,-12,cs),
(553,-12,o),
(697,110,o),
(697,363,cs,{
name = hr00;
})
);
},
{
closed = 1;
nodes = (
(118,480,o),
(157,587,o),
(219,634,c),
(258,647,o),
(314,658,o),
(363,658,cs),
(503,658,o),
(609,557,o),
(609,352,cs),
(609,140,o),
(503,36,o),
(363,36,cs),
(224,36,o),
(118,140,o),
(118,352,cs)
);
},
{
closed = 1;
nodes = (
(472,781,o),
(375,847,o),
(280,924,c),
(275,918,o),
(255,877,o),
(255,857,cs),
(255,852,o),
(256,847,o),
(260,845,cs),
(327,802,o),
(425,772,o),
(461,762,c),
(472,781,l,{
name = hr00;
})
);
}
);
};
layerId = master01;
shapes = (
{
ref = O;
},
{
pos = (215,0);
ref = gravecomb.case;
}
);
width = 747;
}
);
unicode = 210;
},
{
glyphname = Ohungarumlaut;
kernLeft = C;
kernRight = D;
lastChange = "2023-02-24 11:17:08 +0000";
layers = (
{
background = {
shapes = (
{
closed = 1;
nodes = (
(707,597,o),
(560,712,o),
(379,712,cs),
(192,712,o),
(40,588,o),
(40,354,cs),
(40,109,o),
(178,-12,o),
(363,-12,cs),
(563,-12,o),
(707,110,o),
(707,363,cs,{
name = hr00;
})
);
},
{
closed = 1;
nodes = (
(128,480,o),
(167,587,o),
(229,634,c),
(268,647,o),
(324,658,o),
(373,658,cs),
(513,658,o),
(619,557,o),
(619,352,cs),
(619,140,o),
(513,36,o),
(373,36,cs),
(234,36,o),
(128,140,o),
(128,352,cs)
);
},
{
closed = 1;
nodes = (
(263,772,o),
(351,802,o),
(418,845,cs),
(422,847,o),
(423,852,o),
(423,857,cs),
(423,877,o),
(403,918,o),
(398,924,c),
(303,837,o),
(216,781,o),
(216,781,c),
(227,762,l,{
name = hr00;
})
);
},
{
closed = 1;
nodes = (
(430,772,o),
(518,802,o),
(585,845,cs),
(589,847,o),
(590,852,o),
(590,857,cs),
(590,877,o),
(570,918,o),
(565,924,c),
(470,837,o),
(383,781,o),
(383,781,c),
(394,762,l)
);
}
);
};
layerId = master01;
shapes = (
{
ref = O;
},
{
pos = (167,0);
ref = hungarumlautcomb.case;
}
);
width = 747;
}
);
unicode = 336;
},
{
glyphname = Omacron;
kernLeft = C;
kernRight = D;
lastChange = "2023-02-24 11:17:08 +0000";
layers = (
{
background = {
shapes = (
{
closed = 1;
nodes = (
(707,597,o),
(560,712,o),
(379,712,cs),
(192,712,o),
(40,588,o),
(40,354,cs),
(40,109,o),
(178,-12,o),
(363,-12,cs),
(563,-12,o),
(707,110,o),
(707,363,cs,{
name = hr00;
})
);
},
{
closed = 1;
nodes = (
(128,480,o),
(167,587,o),
(229,634,c),
(268,647,o),
(324,658,o),
(373,658,cs),
(513,658,o),
(619,557,o),
(619,352,cs),
(619,140,o),
(513,36,o),
(373,36,cs),
(234,36,o),
(128,140,o),
(128,352,cs)
);
},
{
closed = 1;
nodes = (
(514,814,l),
(514,877,l),
(233,877,l),
(233,814,l,{
name = hr00;
})
);
}
);
};
layerId = master01;
shapes = (
{
ref = O;
},
{
pos = (163,0);
ref = macroncomb.case;
}
);
width = 747;
}
);
unicode = 332;
},
{
glyphname = Oslash;
kernLeft = C;
kernRight = D;
lastChange = "2023-02-24 11:17:08 +0000";
layers = (
{
background = {
shapes = (
{
closed = 1;
nodes = (
(224,-50,l),
(557,750,l),
(503,750,l),
(170,-50,l)
);
},
{
closed = 1;
nodes = (
(697,597,o),
(550,712,o),
(369,712,cs),
(182,712,o),
(30,588,o),
(30,354,cs),
(30,109,o),
(168,-12,o),
(353,-12,cs),
(553,-12,o),
(697,110,o),
(697,363,cs,{
name = hr00;
})
);
},
{
closed = 1;
nodes = (
(118,480,o),
(157,587,o),
(219,634,c),
(258,647,o),
(314,658,o),
(363,658,cs),
(503,658,o),
(609,557,o),
(609,352,cs),
(609,140,o),
(503,36,o),
(363,36,cs),
(224,36,o),
(118,140,o),
(118,352,cs)
);
},
{
closed = 1;
nodes = (
(224,-50,l),
(557,750,l),
(503,750,l),
(170,-50,l,{
name = hr00;
})
);
}
);
};
layerId = master01;
shapes = (
{
closed = 1;
nodes = (
(224,-50,l),
(557,750,l),
(503,750,l),
(170,-50,l)
);
},
{
pos = (-10,0);
ref = O;
},
{
pos = (200,0);
ref = slash;
}
);
width = 727;
}
);
unicode = 216;
},
{
glyphname = Oslashacute;
kernLeft = C;
kernRight = D;
lastChange = "2023-02-24 11:17:08 +0000";
layers = (
{
background = {
shapes = (
{
closed = 1;
nodes = (
(302,772,o),
(400,802,o),
(467,845,cs),
(471,847,o),
(472,852,o),
(472,857,cs),
(472,877,o),
(452,918,o),
(447,924,c),
(352,847,o),
(255,781,o),
(255,781,c),
(266,762,l,{
name = hr00;
})
);
},
{
closed = 1;
nodes = (
(302,772,o),
(400,802,o),
(467,845,cs),
(471,847,o),
(472,852,o),
(472,857,cs),
(472,877,o),
(452,918,o),
(447,924,c),
(352,847,o),
(255,781,o),
(255,781,c),
(266,762,l,{
name = hr00;
})
);
},
{
closed = 1;
nodes = (
(697,597,o),
(550,712,o),
(369,712,cs),
(182,712,o),
(30,588,o),
(30,354,cs),
(30,109,o),
(168,-12,o),
(353,-12,cs),
(553,-12,o),
(697,110,o),
(697,363,cs,{
name = hr00;
})
);
},
{
closed = 1;
nodes = (
(118,480,o),
(157,587,o),
(219,634,c),
(258,647,o),
(314,658,o),
(363,658,cs),
(503,658,o),
(609,557,o),
(609,352,cs),
(609,140,o),
(503,36,o),
(363,36,cs),
(224,36,o),
(118,140,o),
(118,352,cs)
);
},
{
closed = 1;
nodes = (
(224,-50,l),
(557,750,l),
(503,750,l),
(170,-50,l,{
name = hr00;
})
);
}
);
};
layerId = master01;
shapes = (
{
ref = Oslash;
},
{
pos = (205,0);
ref = acutecomb.case;
}
);
width = 727;
}
);
unicode = 510;
},
{
glyphname = Otilde;
kernLeft = C;
kernRight = D;
lastChange = "2023-02-24 11:17:08 +0000";
layers = (
{
background = {
shapes = (
{
closed = 1;
nodes = (
(697,597,o),
(550,712,o),
(369,712,cs),
(182,712,o),
(30,588,o),
(30,354,cs),
(30,109,o),
(168,-12,o),
(353,-12,cs),
(553,-12,o),
(697,110,o),
(697,363,cs,{
name = hr00;
})
);
},
{
closed = 1;
nodes = (
(118,480,o),
(157,587,o),
(219,634,c),
(258,647,o),
(314,658,o),
(363,658,cs),
(503,658,o),
(609,557,o),
(609,352,cs),
(609,140,o),
(503,36,o),
(363,36,cs),
(224,36,o),
(118,140,o),
(118,352,cs)
);
},
{
closed = 1;
nodes = (
(484,876,o),
(464,865,o),
(442,865,cs),
(395,865,o),
(354,892,o),
(306,892,cs,{
name = hr01;
}),
(273,892,o),
(239,876,o),
(205,817,c),
(222,798,l),
(242,817,o),
(262,828,o),
(284,828,cs),
(331,828,o),
(372,801,o),
(420,801,cs,{
name = hr02;
}),
(453,801,o),
(487,817,o),
(521,876,c),
(504,895,l)
);
}
);
};
layerId = master01;
shapes = (
{
ref = O;
},
{
pos = (166,0);
ref = tildecomb.case;
}
);
width = 747;
}
);
unicode = 213;
},
{
glyphname = OE;
kernLeft = C;
lastChange = "2023-02-24 11:16:53 +0000";
layers = (
{
anchors = (
{
name = bottom;
pos = (478,0);
},
{
name = top;
pos = (478,700);
}
);
background = {
shapes = (
{
closed = 1;
nodes = (
(828,541,o),
(863,541,o),
(871,541,c),
(895,690,l),
(894,700,o),
(881,700,o),
(863,700,cs),
(523,696,l),
(467,705,o),
(412,712,o),
(355,712,cs,{
name = hr01;
}),
(178,712,o),
(40,594,o),
(40,341,cs),
(40,98,o),
(179,-12,o),
(361,-12,cs),
(412,-12,o),
(472,-4,o),
(525,8,c),
(869,0,ls,{
name = hr02;
}),
(889,-1,o),
(897,1,o),
(898,12,cs),
(906,163,l),
(899,163,o),
(864,163,o),
(864,149,c),
(838,55,l),
(563,55,l),
(572,326,l),
(828,339,l),
(828,382,l),
(572,382,l),
(563,646,l),
(828,649,l),
(828,555,ls)
);
},
{
closed = 1;
nodes = (
(235,36,o),
(128,141,o),
(128,355,cs),
(128,484,o),
(167,591,o),
(230,639,c),
(276,655,o),
(318,661,o),
(360,661,cs),
(403,661,o),
(445,654,o),
(489,643,c),
(489,57,l),
(448,43,o),
(413,36,o),
(375,36,cs,{
name = hr03;
})
);
}
);
};
layerId = master01;
shapes = (
{
closed = 1;
nodes = (
(412,-12,o),
(472,-4,o),
(525,8,c),
(869,0,ls,{
name = hr02;
}),
(889,-1,o),
(897,1,o),
(898,12,cs),
(906,163,l),
(899,163,o),
(864,163,o),
(864,149,c),
(838,55,l),
(563,55,l),
(572,326,l),
(828,339,l),
(828,382,l),
(572,382,l),
(563,646,l),
(828,649,l),
(828,555,ls),
(828,541,o),
(863,541,o),
(871,541,c),
(895,690,l),
(894,700,o),
(881,700,o),
(863,700,cs),
(523,696,l),
(467,705,o),
(412,712,o),
(355,712,cs,{
name = hr01;
}),
(178,712,o),
(40,594,o),
(40,341,cs),
(40,98,o),
(179,-12,o),
(361,-12,cs)
);
},
{
closed = 1;
nodes = (
(235,36,o),
(128,141,o),
(128,355,cs),
(128,484,o),
(167,591,o),
(230,639,c),
(276,655,o),
(318,661,o),
(360,661,cs),
(403,661,o),
(445,654,o),
(489,643,c),
(489,57,l),
(448,43,o),
(413,36,o),
(375,36,cs,{
name = hr03;
})
);
}
);
width = 956;
}
);
unicode = 338;
},
{
glyphname = P;
kernRight = P;
lastChange = "2023-02-24 11:17:48 +0000";
layers = (
{
anchors = (
{
name = bottom;
pos = (282,0);
},
{
name = top;
pos = (282,700);
}
);
background = {
shapes = (
{
closed = 1;
nodes = (
(134,52,l),
(50,30,l),
(50,23,o),
(50,0,o),
(65,0,cs),
(65,0,o),
(74,0,o),
(168,4,c),
(261,0,o),
(304,0,o),
(304,0,c),
(319,0,o),
(319,23,o),
(319,30,c),
(208,52,l),
(215,276,l),
(286,282,ls),
(455,296,o),
(537,395,o),
(537,497,cs),
(537,610,o),
(459,700,o),
(326,700,c),
(168,696,l),
(74,700,o),
(65,700,o),
(65,700,c),
(50,700,o),
(50,677,o),
(50,670,c),
(134,648,l,{
name = hr00;
})
);
},
{
closed = 1;
nodes = (
(414,658,o),
(461,588,o),
(461,498,cs),
(461,406,o),
(410,327,o),
(290,327,cs),
(263,327,o),
(235,329,o),
(217,331,c),
(208,648,l),
(308,658,l)
);
}
);
};
layerId = master01;
shapes = (
{
closed = 1;
nodes = (
(65,0,o),
(74,0,o),
(168,4,c),
(261,0,o),
(304,0,o),
(304,0,c),
(319,0,o),
(319,23,o),
(319,30,c),
(208,52,l),
(215,276,l),
(286,282,ls),
(455,296,o),
(537,395,o),
(537,497,cs),
(537,610,o),
(459,700,o),
(326,700,cs),
(168,696,l),
(74,700,o),
(65,700,o),
(65,700,c),
(50,700,o),
(50,677,o),
(50,670,c),
(134,648,l,{
name = hr00;
}),
(134,52,l),
(50,30,l),
(50,23,o),
(50,0,o),
(65,0,c)
);
},
{
closed = 1;
nodes = (
(263,327,o),
(235,329,o),
(217,331,c),
(208,648,l),
(308,658,l),
(414,658,o),
(461,588,o),
(461,498,cs),
(461,406,o),
(410,327,o),
(290,327,cs)
);
}
);
width = 563;
}
);
unicode = 80;
},
{
glyphname = Thorn;
kernRight = P;
lastChange = "2023-02-24 11:17:48 +0000";
layers = (
{
anchors = (
{
name = bottom;
pos = (281,0);
},
{
name = top;
pos = (281,700);
}
);
background = {
shapes = (
{
closed = 1;
nodes = (
(131,350,l),
(136,52,l),
(50,30,l),
(50,23,o),
(50,0,o),
(65,0,cs),
(65,0,o),
(83,0,o),
(177,4,c),
(270,0,o),
(280,0,o),
(280,0,c),
(295,0,o),
(295,23,o),
(295,30,c),
(209,52,l),
(211,157,l),
(281,161,ls),
(451,171,o),
(532,269,o),
(532,373,cs),
(532,486,o),
(455,576,o),
(325,576,c),
(210,573,l),
(210,598,o),
(209,623,o),
(209,648,c),
(295,670,l),
(295,677,o),
(295,700,o),
(280,700,cs),
(280,700,o),
(270,700,o),
(177,696,c),
(83,700,o),
(65,700,o),
(65,700,c),
(50,700,o),
(50,677,o),
(50,670,c),
(136,648,l,{
name = hr00;
})
);
},
{
closed = 1;
nodes = (
(413,534,o),
(460,454,o),
(460,374,cs),
(460,292,o),
(410,203,o),
(289,203,cs),
(276,203,o),
(263,204,o),
(250,205,cs),
(212,208,l),
(214,350,l),
(211,524,l),
(307,534,l)
);
}
);
};
layerId = master01;
shapes = (
{
closed = 1;
nodes = (
(65,0,o),
(83,0,o),
(177,4,c),
(270,0,o),
(280,0,o),
(280,0,c),
(295,0,o),
(295,23,o),
(295,30,c),
(209,52,l),
(211,157,l),
(281,161,ls),
(451,171,o),
(532,269,o),
(532,373,cs),
(532,486,o),
(455,576,o),
(325,576,cs),
(210,573,l),
(210,598,o),
(209,623,o),
(209,648,c),
(295,670,l),
(295,677,o),
(295,700,o),
(280,700,c),
(280,700,o),
(270,700,o),
(177,696,c),
(83,700,o),
(65,700,o),
(65,700,c),
(50,700,o),
(50,677,o),
(50,670,c),
(136,648,l,{
name = hr00;
}),
(131,350,l),
(136,52,l),
(50,30,l),
(50,23,o),
(50,0,o),
(65,0,c)
);
},
{
closed = 1;
nodes = (
(276,203,o),
(263,204,o),
(250,205,cs),
(212,208,l),
(214,350,l),
(211,524,l),
(307,534,l),
(413,534,o),
(460,454,o),
(460,374,cs),
(460,292,o),
(410,203,o),
(289,203,cs)
);
}
);
width = 562;
}
);
unicode = 222;
},
{
glyphname = Q;
kernLeft = C;
kernRight = D;
lastChange = "2023-02-24 11:17:13 +0000";
layers = (
{
anchors = (
{
name = bottom;
pos = (374,0);
},
{
name = top;
pos = (374,700);
}
);
background = {
shapes = (
{
closed = 1;
nodes = (
(128,140,o),
(234,36,o),
(373,36,cs),
(513,36,o),
(619,140,o),
(619,352,cs),
(619,557,o),
(513,658,o),
(373,658,cs),
(324,658,o),
(268,647,o),
(229,634,c),
(167,587,o),
(128,480,o),
(128,352,cs,{
name = hr00;
})
);
},
{
closed = 1;
nodes = (
(178,-12,o),
(40,109,o),
(40,354,cs),
(40,588,o),
(192,712,o),
(379,712,cs),
(560,712,o),
(707,597,o),
(707,363,cs),
(707,137,o),
(592,16,o),
(426,-8,c),
(553,-210,l),
(529,-225,o),
(509,-231,o),
(493,-231,cs),
(477,-231,o),
(465,-224,o),
(460,-212,cs),
(368,-12,l)
);
}
);
};
layerId = master01;
shapes = (
{
closed = 1;
nodes = (
(509,-231,o),
(529,-225,o),
(553,-210,c),
(426,-8,l),
(592,16,o),
(707,137,o),
(707,363,cs),
(707,597,o),
(560,712,o),
(379,712,cs),
(192,712,o),
(40,588,o),
(40,354,cs),
(40,109,o),
(178,-12,o),
(368,-12,c),
(460,-212,ls),
(465,-224,o),
(477,-231,o),
(493,-231,cs)
);
},
{
closed = 1;
nodes = (
(234,36,o),
(128,140,o),
(128,352,cs,{
name = hr00;
}),
(128,480,o),
(167,587,o),
(229,634,c),
(268,647,o),
(324,658,o),
(373,658,cs),
(513,658,o),
(619,557,o),
(619,352,cs),
(619,140,o),
(513,36,o),
(373,36,cs)
);
}
);
width = 747;
}
);
unicode = 81;
},
{
glyphname = R;
lastChange = "2023-02-23 13:21:10 +0000";
layers = (
{
anchors = (
{
name = bottom;
pos = (348,0);
},
{
name = top;
pos = (318,700);
}
);
background = {
shapes = (
{
closed = 1;
nodes = (
(134,52,l),
(50,30,l),
(50,23,o),
(50,0,o),
(65,0,cs),
(65,0,o),
(74,0,o),
(168,4,c),
(261,0,o),
(294,0,o),
(294,0,c),
(309,0,o),
(309,23,o),
(309,30,c),
(208,52,l),
(216,301,l),
(310,316,l),
(322,308,o),
(333,294,o),
(345,272,cs),
(489,0,l),
(620,0,ls),
(635,0,o),
(635,23,o),
(635,30,c),
(555,52,l),
(427,276,ls),
(410,305,o),
(394,321,o),
(379,330,c),
(477,362,o),
(528,440,o),
(528,508,cs),
(528,611,o),
(452,700,o),
(324,700,c),
(321,700,o),
(319,700,o),
(168,696,c),
(74,700,o),
(65,700,o),
(65,700,c),
(50,700,o),
(50,677,o),
(50,670,c),
(134,648,l,{
name = hr00;
})
);
},
{
closed = 1;
nodes = (
(404,658,o),
(451,583,o),
(451,510,cs),
(451,434,o),
(401,354,o),
(280,354,c),
(217,358,l),
(208,648,l),
(298,658,l)
);
}
);
};
layerId = master01;
shapes = (
{
closed = 1;
nodes = (
(65,0,o),
(74,0,o),
(168,4,c),
(261,0,o),
(294,0,o),
(294,0,c),
(309,0,o),
(309,23,o),
(309,30,c),
(208,52,l),
(216,301,l),
(310,316,l),
(322,308,o),
(333,294,o),
(345,272,cs),
(489,0,l),
(620,0,ls),
(635,0,o),
(635,23,o),
(635,30,c),
(555,52,l),
(427,276,ls),
(410,305,o),
(394,321,o),
(379,330,c),
(477,362,o),
(528,440,o),
(528,508,cs),
(528,611,o),
(452,703,o),
(324,700,cs),
(168,696,l),
(74,700,o),
(65,700,o),
(65,700,c),
(50,700,o),
(50,677,o),
(50,670,c),
(134,648,l,{
name = hr00;
}),
(134,52,l),
(50,30,l),
(50,23,o),
(50,0,o),
(65,0,c)
);
},
{
closed = 1;
nodes = (
(217,358,l),
(208,648,l),
(298,658,l),
(404,658,o),
(451,583,o),
(451,510,cs),
(451,434,o),
(401,354,o),
(280,354,c)
);
}
);
width = 596;
}
);
unicode = 82;
},
{
glyphname = Racute;
lastChange = "2023-02-23 13:21:10 +0000";
layers = (
{
background = {
shapes = (
{
closed = 1;
nodes = (
(134,52,l),
(50,30,l),
(50,23,o),
(50,0,o),
(65,0,cs),
(65,0,o),
(74,0,o),
(168,4,c),
(261,0,o),
(294,0,o),
(294,0,c),
(309,0,o),
(309,23,o),
(309,30,c),
(208,52,l),
(216,301,l),
(310,316,l),
(322,308,o),
(333,294,o),
(345,272,cs),
(489,0,l),
(620,0,ls),
(635,0,o),
(635,23,o),
(635,30,c),
(555,52,l),
(427,276,ls),
(410,305,o),
(394,321,o),
(379,330,c),
(477,362,o),
(528,440,o),
(528,508,cs),
(528,611,o),
(452,700,o),
(324,700,c),
(321,700,o),
(319,700,o),
(168,696,c),
(74,700,o),
(65,700,o),
(65,700,c),
(50,700,o),
(50,677,o),
(50,670,c),
(134,648,l,{
name = hr00;
})
);
},
{
closed = 1;
nodes = (
(404,658,o),
(451,583,o),
(451,510,cs),
(451,434,o),
(401,354,o),
(280,354,c),
(217,358,l),
(208,648,l),
(298,658,l)
);
},
{
closed = 1;
nodes = (
(266,772,o),
(364,802,o),
(431,845,cs),
(435,847,o),
(436,852,o),
(436,857,cs),
(436,877,o),
(416,918,o),
(411,924,c),
(316,847,o),
(219,781,o),
(219,781,c),
(230,762,l,{
name = hr00;
})
);
}
);
};
layerId = master01;
shapes = (
{
ref = R;
},
{
pos = (159,0);
ref = acutecomb.case;
}
);
width = 596;
}
);
unicode = 340;
},
{
glyphname = Rcaron;
lastChange = "2023-02-23 13:21:10 +0000";
layers = (
{
background = {
shapes = (
{
closed = 1;
nodes = (
(134,52,l),
(50,30,l),
(50,23,o),
(50,0,o),
(65,0,cs),
(65,0,o),
(74,0,o),
(168,4,c),
(261,0,o),
(294,0,o),
(294,0,c),
(309,0,o),
(309,23,o),
(309,30,c),
(208,52,l),
(216,301,l),
(310,316,l),
(322,308,o),
(333,294,o),
(345,272,cs),
(489,0,l),
(620,0,ls),
(635,0,o),
(635,23,o),
(635,30,c),
(555,52,l),
(427,276,ls),
(410,305,o),
(394,321,o),
(379,330,c),
(477,362,o),
(528,440,o),
(528,508,cs),
(528,611,o),
(452,700,o),
(324,700,c),
(321,700,o),
(319,700,o),
(168,696,c),
(74,700,o),
(65,700,o),
(65,700,c),
(50,700,o),
(50,677,o),
(50,670,c),
(134,648,l,{
name = hr00;
})
);
},
{
closed = 1;
nodes = (
(404,658,o),
(451,583,o),
(451,510,cs),
(451,434,o),
(401,354,o),
(280,354,c),
(217,358,l),
(208,648,l),
(298,658,l)
);
},
{
closed = 1;
nodes = (
(222,929,l),
(195,912,l),
(235,849,o),
(265,796,o),
(284,753,c),
(329,753,l),
(355,796,o),
(392,849,o),
(440,912,c),
(415,929,l),
(312,827,l,{
name = hr00;
})
);
}
);
};
layerId = master01;
shapes = (
{
ref = R;
},
{
pos = (146,0);
ref = caroncomb.case;
}
);
width = 596;
}
);
unicode = 344;
},
{
glyphname = Rcommaaccent;
lastChange = "2023-02-23 13:21:10 +0000";
layers = (
{
background = {
shapes = (
{
closed = 1;
nodes = (
(134,52,l),
(50,30,l),
(50,23,o),
(50,0,o),
(65,0,cs),
(65,0,o),
(74,0,o),
(168,4,c),
(261,0,o),
(294,0,o),
(294,0,c),
(309,0,o),
(309,23,o),
(309,30,c),
(208,52,l),
(216,301,l),
(310,316,l),
(322,308,o),
(333,294,o),
(345,272,cs),
(489,0,l),
(620,0,ls),
(635,0,o),
(635,23,o),
(635,30,c),
(555,52,l),
(427,276,ls),
(410,305,o),
(394,321,o),
(379,330,c),
(477,362,o),
(528,440,o),
(528,508,cs),
(528,611,o),
(452,700,o),
(324,700,c),
(321,700,o),
(319,700,o),
(168,696,c),
(74,700,o),
(65,700,o),
(65,700,c),
(50,700,o),
(50,677,o),
(50,670,c),
(134,648,l,{
name = hr00;
})
);
},
{
closed = 1;
nodes = (
(404,658,o),
(451,583,o),
(451,510,cs),
(451,434,o),
(401,354,o),
(280,354,c),
(217,358,l),
(208,648,l),
(298,658,l)
);
},
{
closed = 1;
nodes = (
(363,-285,o),
(410,-226,o),
(410,-159,cs),
(410,-95,o),
(391,-50,o),
(364,-50,cs),
(346,-50,o),
(323,-53,o),
(305,-57,c),
(300,-81,o),
(297,-103,o),
(297,-122,cs),
(297,-162,o),
(309,-182,o),
(334,-182,cs),
(340,-182,o),
(343,-182,o),
(350,-181,c),
(350,-186,ls),
(350,-226,o),
(326,-259,o),
(286,-277,c),
(298,-307,l,{
name = hr00;
})
);
}
);
};
layerId = master01;
shapes = (
{
ref = R;
},
{
pos = (249,0);
ref = commaaccentcomb;
}
);
width = 596;
}
);
unicode = 342;
},
{
glyphname = S;
lastChange = "2023-02-23 13:21:10 +0000";
layers = (
{
anchors = (
{
name = bottom;
pos = (257,0);
},
{
name = top;
pos = (287,700);
}
);
background = {
shapes = (
{
closed = 1;
nodes = (
(504,227,o),
(464,292,o),
(386,337,cs),
(214,435,ls),
(176,457,o),
(139,490,o),
(139,547,cs),
(139,559,o),
(140,573,o),
(144,587,c),
(178,642,o),
(236,662,o),
(292,662,cs),
(334,662,o),
(375,650,o),
(403,637,c),
(403,536,ls),
(403,522,o),
(437,522,o),
(445,522,c),
(471,676,l),
(415,697,o),
(356,712,o),
(298,712,cs),
(150,712,o),
(69,622,o),
(69,528,cs),
(69,468,o),
(102,407,o),
(171,368,cs),
(348,267,ls),
(404,235,o),
(419,190,o),
(419,157,cs),
(419,92,o),
(376,36,o),
(276,36,cs),
(225,36,o),
(163,51,o),
(121,78,c),
(121,189,ls),
(121,201,o),
(86,201,o),
(78,201,cs),
(77,201,o),
(60,79,o),
(55,36,c),
(132,3,o),
(201,-12,o),
(268,-12,cs),
(402,-12,o),
(504,51,o),
(504,170,cs,{
name = hr00;
})
);
}
);
};
layerId = master01;
shapes = (
{
closed = 1;
nodes = (
(402,-12,o),
(504,51,o),
(504,170,cs,{
name = hr00;
}),
(504,227,o),
(464,292,o),
(386,337,cs),
(214,435,ls),
(176,457,o),
(139,490,o),
(139,547,cs),
(139,559,o),
(140,573,o),
(144,587,c),
(178,642,o),
(236,662,o),
(292,662,cs),
(334,662,o),
(375,650,o),
(403,637,c),
(403,536,ls),
(403,522,o),
(437,522,o),
(445,522,c),
(471,676,l),
(415,697,o),
(356,712,o),
(298,712,cs),
(150,712,o),
(69,622,o),
(69,528,cs),
(69,468,o),
(102,407,o),
(171,368,cs),
(348,267,ls),
(404,235,o),
(419,190,o),
(419,157,cs),
(419,92,o),
(376,36,o),
(276,36,cs),
(225,36,o),
(163,51,o),
(121,78,c),
(121,189,ls),
(121,201,o),
(86,201,o),
(78,201,cs),
(77,201,o),
(60,79,o),
(55,36,c),
(132,3,o),
(201,-12,o),
(268,-12,cs)
);
}
);
width = 554;
}
);
unicode = 83;
},
{
glyphname = Sacute;
lastChange = "2023-02-23 13:21:10 +0000";
layers = (
{
background = {
shapes = (
{
closed = 1;
nodes = (
(504,227,o),
(464,292,o),
(386,337,cs),
(214,435,ls),
(176,457,o),
(139,490,o),
(139,547,cs),
(139,559,o),
(140,573,o),
(144,587,c),
(178,642,o),
(236,662,o),
(292,662,cs),
(334,662,o),
(375,650,o),
(403,637,c),
(403,536,ls),
(403,522,o),
(437,522,o),
(445,522,c),
(471,676,l),
(415,697,o),
(356,712,o),
(298,712,cs),
(150,712,o),
(69,622,o),
(69,528,cs),
(69,468,o),
(102,407,o),
(171,368,cs),
(348,267,ls),
(404,235,o),
(419,190,o),
(419,157,cs),
(419,92,o),
(376,36,o),
(276,36,cs),
(225,36,o),
(163,51,o),
(121,78,c),
(121,189,ls),
(121,201,o),
(86,201,o),
(78,201,cs),
(77,201,o),
(60,79,o),
(55,36,c),
(132,3,o),
(201,-12,o),
(268,-12,cs),
(402,-12,o),
(504,51,o),
(504,170,cs,{
name = hr00;
})
);
},
{
closed = 1;
nodes = (
(235,772,o),
(333,802,o),
(400,845,cs),
(404,847,o),
(405,852,o),
(405,857,cs),
(405,877,o),
(385,918,o),
(380,924,c),
(285,847,o),
(188,781,o),
(188,781,c),
(199,762,l,{
name = hr00;
})
);
}
);
};
layerId = master01;
shapes = (
{
ref = S;
},
{
pos = (128,0);
ref = acutecomb.case;
}
);
width = 554;
}
);
unicode = 346;
},
{
glyphname = Scaron;
lastChange = "2023-02-23 13:21:10 +0000";
layers = (
{
background = {
shapes = (
{
closed = 1;
nodes = (
(494,227,o),
(454,292,o),
(376,337,cs),
(204,435,ls),
(166,457,o),
(129,490,o),
(129,547,cs),
(129,559,o),
(130,573,o),
(134,587,c),
(168,642,o),
(226,662,o),
(282,662,cs),
(324,662,o),
(365,650,o),
(393,637,c),
(393,536,ls),
(393,522,o),
(427,522,o),
(435,522,c),
(461,676,l),
(405,697,o),
(346,712,o),
(288,712,cs),
(140,712,o),
(59,622,o),
(59,528,cs),
(59,468,o),
(92,407,o),
(161,368,cs),
(338,267,ls),
(394,235,o),
(409,190,o),
(409,157,cs),
(409,92,o),
(366,36,o),
(266,36,cs),
(215,36,o),
(153,51,o),
(111,78,c),
(111,189,ls),
(111,201,o),
(76,201,o),
(68,201,cs),
(67,201,o),
(50,79,o),
(45,36,c),
(122,3,o),
(191,-12,o),
(258,-12,cs),
(392,-12,o),
(494,51,o),
(494,170,cs,{
name = hr00;
})
);
},
{
closed = 1;
nodes = (
(195,929,l),
(168,912,l),
(208,849,o),
(238,796,o),
(257,753,c),
(302,753,l),
(328,796,o),
(365,849,o),
(413,912,c),
(388,929,l),
(285,827,l,{
name = hr00;
})
);
}
);
};
layerId = master01;
shapes = (
{
ref = S;
},
{
pos = (115,0);
ref = caroncomb.case;
}
);
width = 554;
}
);
unicode = 352;
},
{
glyphname = Scedilla;
lastChange = "2023-02-23 13:21:10 +0000";
layers = (
{
background = {
shapes = (
{
closed = 1;
nodes = (
(504,227,o),
(464,292,o),
(386,337,cs),
(214,435,ls),
(176,457,o),
(139,490,o),
(139,547,cs),
(139,559,o),
(140,573,o),
(144,587,c),
(178,642,o),
(236,662,o),
(292,662,cs),
(334,662,o),
(375,650,o),
(403,637,c),
(403,536,ls),
(403,522,o),
(437,522,o),
(445,522,c),
(471,676,l),
(415,697,o),
(356,712,o),
(298,712,cs),
(150,712,o),
(69,622,o),
(69,528,cs),
(69,468,o),
(102,407,o),
(171,368,cs),
(348,267,ls),
(404,235,o),
(419,190,o),
(419,157,cs),
(419,92,o),
(376,36,o),
(276,36,cs),
(225,36,o),
(163,51,o),
(121,78,c),
(121,189,ls),
(121,201,o),
(86,201,o),
(78,201,cs),
(77,201,o),
(60,79,o),
(55,36,c),
(132,3,o),
(201,-12,o),
(268,-12,cs),
(402,-12,o),
(504,51,o),
(504,170,cs,{
name = hr00;
})
);
},
{
closed = 1;
nodes = (
(265,-85,o),
(288,-114,o),
(288,-142,cs),
(288,-167,o),
(269,-191,o),
(236,-191,cs),
(217,-191,o),
(196,-184,o),
(181,-172,c),
(162,-202,l),
(180,-218,o),
(209,-233,o),
(248,-233,cs),
(311,-233,o),
(351,-186,o),
(351,-141,cs),
(351,-102,o),
(324,-64,o),
(261,-56,c),
(284,15,l),
(252,15,l),
(212,-83,l,{
name = hr00;
})
);
}
);
};
layerId = master01;
shapes = (
{
ref = S;
},
{
pos = (52,0);
ref = cedillacomb;
}
);
width = 554;
}
);
unicode = 350;
},
{
glyphname = Scircumflex;
lastChange = "2023-02-23 13:21:10 +0000";
layers = (
{
background = {
shapes = (
{
closed = 1;
nodes = (
(504,227,o),
(464,292,o),
(386,337,cs),
(214,435,ls),
(176,457,o),
(139,490,o),
(139,547,cs),
(139,559,o),
(140,573,o),
(144,587,c),
(178,642,o),
(236,662,o),
(292,662,cs),
(334,662,o),
(375,650,o),
(403,637,c),
(403,536,ls),
(403,522,o),
(437,522,o),
(445,522,c),
(471,676,l),
(415,697,o),
(356,712,o),
(298,712,cs),
(150,712,o),
(69,622,o),
(69,528,cs),
(69,468,o),
(102,407,o),
(171,368,cs),
(348,267,ls),
(404,235,o),
(419,190,o),
(419,157,cs),
(419,92,o),
(376,36,o),
(276,36,cs),
(225,36,o),
(163,51,o),
(121,78,c),
(121,189,ls),
(121,201,o),
(86,201,o),
(78,201,cs),
(77,201,o),
(60,79,o),
(55,36,c),
(132,3,o),
(201,-12,o),
(268,-12,cs),
(402,-12,o),
(504,51,o),
(504,170,cs,{
name = hr00;
})
);
},
{
closed = 1;
nodes = (
(383,753,l),
(409,770,l),
(365,833,o),
(332,886,o),
(309,929,c),
(264,929,l),
(241,886,o),
(208,833,o),
(164,770,c),
(190,753,l),
(287,855,l,{
name = hr00;
})
);
}
);
};
layerId = master01;
shapes = (
{
ref = S;
},
{
pos = (119,0);
ref = circumflexcomb.case;
}
);
width = 554;
}
);
unicode = 348;
},
{
glyphname = Scommaaccent;
lastChange = "2023-02-23 13:21:10 +0000";
layers = (
{
background = {
shapes = (
{
closed = 1;
nodes = (
(504,227,o),
(464,292,o),
(386,337,cs),
(214,435,ls),
(176,457,o),
(139,490,o),
(139,547,cs),
(139,559,o),
(140,573,o),
(144,587,c),
(178,642,o),
(236,662,o),
(292,662,cs),
(334,662,o),
(375,650,o),
(403,637,c),
(403,536,ls),
(403,522,o),
(437,522,o),
(445,522,c),
(471,676,l),
(415,697,o),
(356,712,o),
(298,712,cs),
(150,712,o),
(69,622,o),
(69,528,cs),
(69,468,o),
(102,407,o),
(171,368,cs),
(348,267,ls),
(404,235,o),
(419,190,o),
(419,157,cs),
(419,92,o),
(376,36,o),
(276,36,cs),
(225,36,o),
(163,51,o),
(121,78,c),
(121,189,ls),
(121,201,o),
(86,201,o),
(78,201,cs),
(77,201,o),
(60,79,o),
(55,36,c),
(132,3,o),
(201,-12,o),
(268,-12,cs),
(402,-12,o),
(504,51,o),
(504,170,cs,{
name = hr00;
})
);
},
{
closed = 1;
nodes = (
(292,-285,o),
(339,-226,o),
(339,-159,cs),
(339,-95,o),
(320,-50,o),
(293,-50,cs),
(275,-50,o),
(252,-53,o),
(234,-57,c),
(229,-81,o),
(226,-103,o),
(226,-122,cs),
(226,-162,o),
(238,-182,o),
(263,-182,cs),
(269,-182,o),
(272,-182,o),
(279,-181,c),
(279,-186,ls),
(279,-226,o),
(255,-259,o),
(215,-277,c),
(227,-307,l,{
name = hr00;
})
);
}
);
};
layerId = master01;
shapes = (
{
ref = S;
},
{
pos = (158,0);
ref = commaaccentcomb;
}
);
width = 554;
}
);
unicode = 536;
},
{
glyphname = T;
kernLeft = T;
kernRight = T;
lastChange = "2023-02-24 11:17:57 +0000";
layers = (
{
anchors = (
{
name = bottom;
pos = (282,0);
},
{
name = center;
pos = (282,350);
},
{
name = top;
pos = (282,700);
}
);
background = {
shapes = (
{
closed = 1;
nodes = (
(37,700,ls,{
name = hr01;
}),
(19,700,o),
(6,700,o),
(5,690,c),
(16,533,l),
(24,533,o),
(58,533,o),
(58,547,cs),
(73,650,l,{
name = hr02;
}),
(245,646,l),
(240,350,l),
(245,52,l),
(132,30,l),
(132,23,o),
(132,0,o),
(147,0,cs),
(147,0,o),
(190,0,o),
(284,4,c),
(377,0,o),
(416,0,o),
(416,0,c),
(431,0,o),
(431,23,o),
(431,30,c),
(318,52,l),
(323,350,l),
(318,646,l),
(490,650,l),
(505,547,l),
(505,533,o),
(539,533,o),
(547,533,c),
(558,690,l,{
name = hr04;
}),
(557,700,o),
(544,700,o),
(526,700,cs,{
name = hr03;
}),
(281,695,l)
);
}
);
};
layerId = master01;
shapes = (
{
closed = 1;
nodes = (
(147,0,o),
(190,0,o),
(284,4,c),
(377,0,o),
(416,0,o),
(416,0,c),
(431,0,o),
(431,23,o),
(431,30,c),
(318,52,l),
(323,350,l),
(318,646,l),
(490,650,l),
(505,547,l),
(505,533,o),
(539,533,o),
(547,533,c),
(558,690,l,{
name = hr04;
}),
(557,700,o),
(544,700,o),
(526,700,cs,{
name = hr03;
}),
(281,695,l),
(37,700,ls,{
name = hr01;
}),
(19,700,o),
(6,700,o),
(5,690,c),
(16,533,l),
(24,533,o),
(58,533,o),
(58,547,c),
(73,650,l,{
name = hr02;
}),
(245,646,l),
(240,350,l),
(245,52,l),
(132,30,l),
(132,23,o),
(132,0,o),
(147,0,c)
);
}
);
width = 563;
}
);
unicode = 84;
},
{
glyphname = Tbar;
kernLeft = T;
kernRight = T;
lastChange = "2023-02-24 11:17:57 +0000";
layers = (
{
background = {
shapes = (
{
closed = 1;
nodes = (
(37,700,ls,{
name = hr01;
}),
(19,700,o),
(6,700,o),
(5,690,c),
(16,533,l),
(24,533,o),
(58,533,o),
(58,547,cs),
(73,650,l,{
name = hr02;
}),
(245,646,l),
(240,350,l),
(245,52,l),
(132,30,l),
(132,23,o),
(132,0,o),
(147,0,cs),
(147,0,o),
(190,0,o),
(284,4,c),
(377,0,o),
(416,0,o),
(416,0,c),
(431,0,o),
(431,23,o),
(431,30,c),
(318,52,l),
(323,350,l),
(318,646,l),
(490,650,l),
(505,547,l),
(505,533,o),
(539,533,o),
(547,533,c),
(558,690,l,{
name = hr04;
}),
(557,700,o),
(544,700,o),
(526,700,cs,{
name = hr03;
}),
(281,695,l)
);
},
{
closed = 1;
nodes = (
(54,371,l),
(54,338,l),
(508,338,l),
(508,371,l,{
name = hr00;
})
);
}
);
};
layerId = master01;
shapes = (
{
closed = 1;
nodes = (
(508,338,l),
(508,371,l,{
name = hr00;
}),
(54,371,l),
(54,338,l)
);
},
{
alignment = -1;
ref = T;
}
);
width = 563;
}
);
unicode = 358;
},
{
glyphname = Tcaron;
kernLeft = T;
kernRight = T;
lastChange = "2023-02-24 11:17:57 +0000";
layers = (
{
background = {
shapes = (
{
closed = 1;
nodes = (
(37,700,ls,{
name = hr01;
}),
(19,700,o),
(6,700,o),
(5,690,c),
(16,533,l),
(24,533,o),
(58,533,o),
(58,547,cs),
(73,650,l,{
name = hr02;
}),
(245,646,l),
(240,350,l),
(245,52,l),
(132,30,l),
(132,23,o),
(132,0,o),
(147,0,cs),
(147,0,o),
(190,0,o),
(284,4,c),
(377,0,o),
(416,0,o),
(416,0,c),
(431,0,o),
(431,23,o),
(431,30,c),
(318,52,l),
(323,350,l),
(318,646,l),
(490,650,l),
(505,547,l),
(505,533,o),
(539,533,o),
(547,533,c),
(558,690,l,{
name = hr04;
}),
(557,700,o),
(544,700,o),
(526,700,cs,{
name = hr03;
}),
(281,695,l)
);
},
{
closed = 1;
nodes = (
(186,929,l),
(159,912,l),
(199,849,o),
(229,796,o),
(248,753,c),
(293,753,l),
(319,796,o),
(356,849,o),
(404,912,c),
(379,929,l),
(276,827,l,{
name = hr00;
})
);
}
);
};
layerId = master01;
shapes = (
{
ref = T;
},
{
pos = (110,0);
ref = caroncomb.case;
}
);
width = 563;
}
);
unicode = 356;
},
{
glyphname = Tcedilla;
kernLeft = T;
kernRight = T;
lastChange = "2023-02-24 11:17:57 +0000";
layers = (
{
background = {
shapes = (
{
closed = 1;
nodes = (
(37,700,ls,{
name = hr01;
}),
(19,700,o),
(6,700,o),
(5,690,c),
(16,533,l),
(24,533,o),
(58,533,o),
(58,547,cs),
(73,650,l,{
name = hr02;
}),
(245,646,l),
(240,350,l),
(245,52,l),
(132,30,l),
(132,23,o),
(132,0,o),
(147,0,cs),
(147,0,o),
(190,0,o),
(284,4,c),
(377,0,o),
(416,0,o),
(416,0,c),
(431,0,o),
(431,23,o),
(431,30,c),
(318,52,l),
(323,350,l),
(318,646,l),
(490,650,l),
(505,547,l),
(505,533,o),
(539,533,o),
(547,533,c),
(558,690,l,{
name = hr04;
}),
(557,700,o),
(544,700,o),
(526,700,cs,{
name = hr03;
}),
(281,695,l)
);
},
{
closed = 1;
nodes = (
(290,-85,o),
(313,-114,o),
(313,-142,cs),
(313,-167,o),
(294,-191,o),
(261,-191,cs),
(242,-191,o),
(221,-184,o),
(206,-172,c),
(187,-202,l),
(205,-218,o),
(234,-233,o),
(273,-233,cs),
(336,-233,o),
(376,-186,o),
(376,-141,cs),
(376,-102,o),
(349,-64,o),
(286,-56,c),
(309,15,l),
(277,15,l),
(237,-83,l,{
name = hr00;
})
);
}
);
};
layerId = master01;
shapes = (
{
ref = T;
},
{
pos = (77,0);
ref = cedillacomb;
}
);
width = 563;
}
);
unicode = 354;
},
{
glyphname = Tcommaaccent;
kernLeft = T;
kernRight = T;
lastChange = "2023-02-24 11:17:57 +0000";
layers = (
{
background = {
shapes = (
{
closed = 1;
nodes = (
(37,700,ls,{
name = hr01;
}),
(19,700,o),
(6,700,o),
(5,690,c),
(16,533,l),
(24,533,o),
(58,533,o),
(58,547,cs),
(73,650,l,{
name = hr02;
}),
(245,646,l),
(240,350,l),
(245,52,l),
(132,30,l),
(132,23,o),
(132,0,o),
(147,0,cs),
(147,0,o),
(190,0,o),
(284,4,c),
(377,0,o),
(416,0,o),
(416,0,c),
(431,0,o),
(431,23,o),
(431,30,c),
(318,52,l),
(323,350,l),
(318,646,l),
(490,650,l),
(505,547,l),
(505,533,o),
(539,533,o),
(547,533,c),
(558,690,l,{
name = hr04;
}),
(557,700,o),
(544,700,o),
(526,700,cs,{
name = hr03;
}),
(281,695,l)
);
},
{
closed = 1;
nodes = (
(296,-285,o),
(343,-226,o),
(343,-159,cs),
(343,-95,o),
(324,-50,o),
(297,-50,cs),
(279,-50,o),
(256,-53,o),
(238,-57,c),
(233,-81,o),
(230,-103,o),
(230,-122,cs),
(230,-162,o),
(242,-182,o),
(267,-182,cs),
(273,-182,o),
(276,-182,o),
(283,-181,c),
(283,-186,ls),
(283,-226,o),
(259,-259,o),
(219,-277,c),
(231,-307,l,{
name = hr00;
})
);
}
);
};
layerId = master01;
shapes = (
{
ref = T;
},
{
pos = (183,0);
ref = commaaccentcomb;
}
);
width = 563;
}
);
unicode = 538;
},
{
glyphname = U;
kernLeft = U;
kernRight = U;
lastChange = "2023-02-24 11:18:03 +0000";
layers = (
{
anchors = (
{
name = bottom;
pos = (367,0);
},
{
name = ogonek;
pos = (489,7);
},
{
name = top;
pos = (397,700);
},
{
name = topright;
pos = (713,700);
}
);
background = {
shapes = (
{
closed = 1;
nodes = (
(271,700,o),
(249,700,o),
(156,696,c),
(62,700,o),
(55,700,o),
(55,700,c),
(40,700,o),
(40,676,o),
(40,669,c),
(114,648,l),
(114,218,ls),
(114,55,o),
(217,-12,o),
(380,-12,cs),
(539,-12,o),
(633,82,o),
(633,218,cs),
(633,648,l),
(698,670,l),
(698,677,o),
(698,700,o),
(683,700,cs),
(683,700,o),
(677,699,o),
(605,696,c),
(496,700,ls),
(480,700,o),
(480,676,o),
(480,670,c),
(575,648,l),
(575,216,ls),
(575,127,o),
(515,43,o),
(382,43,cs),
(247,43,o),
(192,115,o),
(192,215,cs),
(192,648,l),
(287,670,l),
(287,676,o),
(287,700,o),
(271,700,c,{
name = hr00;
})
);
}
);
};
layerId = master01;
shapes = (
{
closed = 1;
nodes = (
(539,-12,o),
(633,82,o),
(633,218,cs),
(633,648,l),
(698,670,l),
(698,677,o),
(698,700,o),
(683,700,c),
(683,700,o),
(677,699,o),
(605,696,c),
(496,700,ls),
(480,701,o),
(480,676,o),
(480,670,c),
(575,648,l),
(575,216,ls),
(575,127,o),
(515,43,o),
(382,43,cs),
(247,43,o),
(192,115,o),
(192,215,cs),
(192,648,l),
(287,670,l),
(287,676,o),
(287,700,o),
(271,700,c,{
name = hr00;
}),
(271,700,o,{
name = hr00;
}),
(249,700,o),
(156,696,c),
(55,700,ls),
(40,701,o),
(40,676,o),
(40,669,c),
(114,648,l),
(114,218,ls),
(114,55,o),
(217,-12,o),
(380,-12,cs)
);
}
);
width = 733;
}
);
unicode = 85;
},
{
glyphname = Uacute;
kernLeft = U;
kernRight = U;
lastChange = "2023-02-24 11:18:03 +0000";
layers = (
{
background = {
shapes = (
{
closed = 1;
nodes = (
(271,700,o),
(249,700,o),
(156,696,c),
(62,700,o),
(55,700,o),
(55,700,c),
(40,700,o),
(40,676,o),
(40,669,c),
(114,648,l),
(114,218,ls),
(114,55,o),
(217,-12,o),
(380,-12,cs),
(539,-12,o),
(633,82,o),
(633,218,cs),
(633,648,l),
(698,670,l),
(698,677,o),
(698,700,o),
(683,700,cs),
(683,700,o),
(677,699,o),
(605,696,c),
(496,700,ls),
(480,700,o),
(480,676,o),
(480,670,c),
(575,648,l),
(575,216,ls),
(575,127,o),
(515,43,o),
(382,43,cs),
(247,43,o),
(192,115,o),
(192,215,cs),
(192,648,l),
(287,670,l),
(287,676,o),
(287,700,o),
(271,700,c,{
name = hr00;
})
);
},
{
closed = 1;
nodes = (
(361,772,o),
(459,802,o),
(526,845,cs),
(530,847,o),
(531,852,o),
(531,857,cs),
(531,877,o),
(511,918,o),
(506,924,c),
(411,847,o),
(314,781,o),
(314,781,c),
(325,762,l,{
name = hr00;
})
);
}
);
};
layerId = master01;
shapes = (
{
ref = U;
},
{
pos = (238,0);
ref = acutecomb.case;
}
);
width = 733;
}
);
unicode = 218;
},
{
glyphname = Ubreve;
kernLeft = U;
kernRight = U;
lastChange = "2023-02-24 11:18:03 +0000";
layers = (
{
background = {
shapes = (
{
closed = 1;
nodes = (
(271,700,o),
(249,700,o),
(156,696,c),
(62,700,o),
(55,700,o),
(55,700,c),
(40,700,o),
(40,676,o),
(40,669,c),
(114,648,l),
(114,218,ls),
(114,55,o),
(217,-12,o),
(380,-12,cs),
(539,-12,o),
(633,82,o),
(633,218,cs),
(633,648,l),
(698,670,l),
(698,677,o),
(698,700,o),
(683,700,cs),
(683,700,o),
(677,699,o),
(605,696,c),
(496,700,ls),
(480,700,o),
(480,676,o),
(480,670,c),
(575,648,l),
(575,216,ls),
(575,127,o),
(515,43,o),
(382,43,cs),
(247,43,o),
(192,115,o),
(192,215,cs),
(192,648,l),
(287,670,l),
(287,676,o),
(287,700,o),
(271,700,c,{
name = hr00;
})
);
},
{
closed = 1;
nodes = (
(358,821,o),
(329,857,o),
(307,913,c),
(273,905,l),
(305,808,o),
(336,754,o),
(396,754,cs),
(456,754,o),
(487,808,o),
(519,905,c),
(485,913,l),
(463,857,o),
(434,821,o),
(396,821,cs,{
name = hr00;
})
);
}
);
};
layerId = master01;
shapes = (
{
ref = U;
},
{
pos = (231,0);
ref = brevecomb.case;
}
);
width = 733;
}
);
unicode = 364;
},
{
glyphname = Ucircumflex;
kernLeft = U;
kernRight = U;
lastChange = "2023-02-24 11:18:03 +0000";
layers = (
{
background = {
shapes = (
{
closed = 1;
nodes = (
(271,700,o),
(249,700,o),
(156,696,c),
(62,700,o),
(55,700,o),
(55,700,c),
(40,700,o),
(40,676,o),
(40,669,c),
(114,648,l),
(114,218,ls),
(114,55,o),
(217,-12,o),
(380,-12,cs),
(539,-12,o),
(633,82,o),
(633,218,cs),
(633,648,l),
(698,670,l),
(698,677,o),
(698,700,o),
(683,700,cs),
(683,700,o),
(677,699,o),
(605,696,c),
(496,700,ls),
(480,700,o),
(480,676,o),
(480,670,c),
(575,648,l),
(575,216,ls),
(575,127,o),
(515,43,o),
(382,43,cs),
(247,43,o),
(192,115,o),
(192,215,cs),
(192,648,l),
(287,670,l),
(287,676,o),
(287,700,o),
(271,700,c,{
name = hr00;
})
);
},
{
closed = 1;
nodes = (
(487,753,l),
(513,770,l),
(469,833,o),
(436,886,o),
(413,929,c),
(368,929,l),
(345,886,o),
(312,833,o),
(268,770,c),
(294,753,l),
(391,855,l,{
name = hr00;
})
);
}
);
};
layerId = master01;
shapes = (
{
ref = U;
},
{
pos = (229,0);
ref = circumflexcomb.case;
}
);
width = 733;
}
);
unicode = 219;
},
{
glyphname = Udieresis;
kernLeft = U;
kernRight = U;
lastChange = "2023-02-24 11:18:03 +0000";
layers = (
{
background = {
shapes = (
{
closed = 1;
nodes = (
(271,700,o),
(249,700,o),
(156,696,c),
(62,700,o),
(55,700,o),
(55,700,c),
(40,700,o),
(40,676,o),
(40,669,c),
(114,648,l),
(114,218,ls),
(114,55,o),
(217,-12,o),
(380,-12,cs),
(539,-12,o),
(633,82,o),
(633,218,cs),
(633,648,l),
(698,670,l),
(698,677,o),
(698,700,o),
(683,700,cs),
(683,700,o),
(677,699,o),
(605,696,c),
(496,700,ls),
(480,700,o),
(480,676,o),
(480,670,c),
(575,648,l),
(575,216,ls),
(575,127,o),
(515,43,o),
(382,43,cs),
(247,43,o),
(192,115,o),
(192,215,cs),
(192,648,l),
(287,670,l),
(287,676,o),
(287,700,o),
(271,700,c,{
name = hr00;
})
);
},
{
closed = 1;
nodes = (
(302,900,o),
(273,894,o),
(273,894,c),
(273,894,o),
(266,867,o),
(266,841,cs),
(266,816,o),
(272,791,o),
(297,791,cs),
(315,791,o),
(343,799,o),
(343,799,c),
(343,799,o),
(349,825,o),
(349,850,cs),
(349,876,o),
(341,900,o),
(319,900,cs,{
name = hr00;
})
);
},
{
closed = 1;
nodes = (
(470,900,o),
(441,894,o),
(441,894,c),
(441,894,o),
(434,867,o),
(434,841,cs),
(434,816,o),
(440,791,o),
(465,791,cs),
(483,791,o),
(511,799,o),
(511,799,c),
(511,799,o),
(517,825,o),
(517,850,cs),
(517,876,o),
(509,900,o),
(487,900,cs)
);
}
);
};
layerId = master01;
shapes = (
{
ref = U;
},
{
pos = (207,0);
ref = dieresiscomb.case;
}
);
width = 733;
}
);
unicode = 220;
},
{
glyphname = Ugrave;
kernLeft = U;
kernRight = U;
lastChange = "2023-02-24 11:18:03 +0000";
layers = (
{
background = {
shapes = (
{
closed = 1;
nodes = (
(271,700,o),
(249,700,o),
(156,696,c),
(62,700,o),
(55,700,o),
(55,700,c),
(40,700,o),
(40,676,o),
(40,669,c),
(114,648,l),
(114,218,ls),
(114,55,o),
(217,-12,o),
(380,-12,cs),
(539,-12,o),
(633,82,o),
(633,218,cs),
(633,648,l),
(698,670,l),
(698,677,o),
(698,700,o),
(683,700,cs),
(683,700,o),
(677,699,o),
(605,696,c),
(496,700,ls),
(480,700,o),
(480,676,o),
(480,670,c),
(575,648,l),
(575,216,ls),
(575,127,o),
(515,43,o),
(382,43,cs),
(247,43,o),
(192,115,o),
(192,215,cs),
(192,648,l),
(287,670,l),
(287,676,o),
(287,700,o),
(271,700,c,{
name = hr00;
})
);
},
{
closed = 1;
nodes = (
(475,781,o),
(378,847,o),
(283,924,c),
(278,918,o),
(258,877,o),
(258,857,cs),
(258,852,o),
(259,847,o),
(263,845,cs),
(330,802,o),
(428,772,o),
(464,762,c),
(475,781,l,{
name = hr00;
})
);
}
);
};
layerId = master01;
shapes = (
{
ref = U;
},
{
pos = (238,0);
ref = gravecomb.case;
}
);
width = 733;
}
);
unicode = 217;
},
{
glyphname = Uhungarumlaut;
kernLeft = U;
kernRight = U;
lastChange = "2023-02-24 11:18:03 +0000";
layers = (
{
background = {
shapes = (
{
closed = 1;
nodes = (
(271,700,o),
(249,700,o),
(156,696,c),
(62,700,o),
(55,700,o),
(55,700,c),
(40,700,o),
(40,676,o),
(40,669,c),
(114,648,l),
(114,218,ls),
(114,55,o),
(217,-12,o),
(380,-12,cs),
(539,-12,o),
(633,82,o),
(633,218,cs),
(633,648,l),
(698,670,l),
(698,677,o),
(698,700,o),
(683,700,cs),
(683,700,o),
(677,699,o),
(605,696,c),
(496,700,ls),
(480,700,o),
(480,676,o),
(480,670,c),
(575,648,l),
(575,216,ls),
(575,127,o),
(515,43,o),
(382,43,cs),
(247,43,o),
(192,115,o),
(192,215,cs),
(192,648,l),
(287,670,l),
(287,676,o),
(287,700,o),
(271,700,c,{
name = hr00;
})
);
},
{
closed = 1;
nodes = (
(286,772,o),
(374,802,o),
(441,845,cs),
(445,847,o),
(446,852,o),
(446,857,cs),
(446,877,o),
(426,918,o),
(421,924,c),
(326,837,o),
(239,781,o),
(239,781,c),
(250,762,l,{
name = hr00;
})
);
},
{
closed = 1;
nodes = (
(453,772,o),
(541,802,o),
(608,845,cs),
(612,847,o),
(613,852,o),
(613,857,cs),
(613,877,o),
(593,918,o),
(588,924,c),
(493,837,o),
(406,781,o),
(406,781,c),
(417,762,l)
);
}
);
};
layerId = master01;
shapes = (
{
ref = U;
},
{
pos = (190,0);
ref = hungarumlautcomb.case;
}
);
width = 733;
}
);
unicode = 368;
},
{
glyphname = Umacron;
kernLeft = U;
kernRight = U;
lastChange = "2023-02-24 11:18:03 +0000";
layers = (
{
background = {
shapes = (
{
closed = 1;
nodes = (
(271,700,o),
(249,700,o),
(156,696,c),
(62,700,o),
(55,700,o),
(55,700,c),
(40,700,o),
(40,676,o),
(40,669,c),
(114,648,l),
(114,218,ls),
(114,55,o),
(217,-12,o),
(380,-12,cs),
(539,-12,o),
(633,82,o),
(633,218,cs),
(633,648,l),
(698,670,l),
(698,677,o),
(698,700,o),
(683,700,cs),
(683,700,o),
(677,699,o),
(605,696,c),
(496,700,ls),
(480,700,o),
(480,676,o),
(480,670,c),
(575,648,l),
(575,216,ls),
(575,127,o),
(515,43,o),
(382,43,cs),
(247,43,o),
(192,115,o),
(192,215,cs),
(192,648,l),
(287,670,l),
(287,676,o),
(287,700,o),
(271,700,c,{
name = hr00;
})
);
},
{
closed = 1;
nodes = (
(537,814,l),
(537,877,l),
(256,877,l),
(256,814,l,{
name = hr00;
})
);
}
);
};
layerId = master01;
shapes = (
{
ref = U;
},
{
pos = (186,0);
ref = macroncomb.case;
}
);
width = 733;
}
);
unicode = 362;
},
{
glyphname = Uogonek;
kernLeft = U;
kernRight = U;
lastChange = "2023-02-24 11:18:03 +0000";
layers = (
{
background = {
shapes = (
{
closed = 1;
nodes = (
(271,700,o),
(249,700,o),
(156,696,c),
(62,700,o),
(55,700,o),
(55,700,c),
(40,700,o),
(40,676,o),
(40,669,c),
(114,648,l),
(114,218,ls),
(114,55,o),
(217,-12,o),
(380,-12,cs),
(539,-12,o),
(633,82,o),
(633,218,cs),
(633,648,l),
(698,670,l),
(698,677,o),
(698,700,o),
(683,700,cs),
(683,700,o),
(677,699,o),
(605,696,c),
(496,700,ls),
(480,700,o),
(480,676,o),
(480,670,c),
(575,648,l),
(575,216,ls),
(575,127,o),
(515,43,o),
(382,43,cs),
(247,43,o),
(192,115,o),
(192,215,cs),
(192,648,l),
(287,670,l),
(287,676,o),
(287,700,o),
(271,700,c,{
name = hr00;
})
);
},
{
closed = 1;
nodes = (
(333,-29,o),
(298,-90,o),
(298,-141,cs),
(298,-191,o),
(334,-233,o),
(401,-233,cs),
(440,-233,o),
(469,-218,o),
(487,-202,c),
(484,-188,o),
(479,-180,o),
(470,-172,c),
(454,-183,o),
(434,-189,o),
(415,-189,cs),
(385,-189,o),
(358,-173,o),
(358,-134,cs),
(358,-85,o),
(396,-18,o),
(489,7,c),
(410,7,l,{
name = hr00;
})
);
}
);
};
layerId = master01;
shapes = (
{
ref = U;
},
{
pos = (163,0);
ref = ogonekcomb;
}
);
width = 733;
}
);
unicode = 370;
},
{
glyphname = Uring;
kernLeft = U;
kernRight = U;
lastChange = "2023-02-24 11:18:03 +0000";
layers = (
{
background = {
shapes = (
{
closed = 1;
nodes = (
(271,700,o),
(249,700,o),
(156,696,c),
(62,700,o),
(55,700,o),
(55,700,c),
(40,700,o),
(40,676,o),
(40,669,c),
(114,648,l),
(114,218,ls),
(114,55,o),
(217,-12,o),
(380,-12,cs),
(539,-12,o),
(633,82,o),
(633,218,cs),
(633,648,l),
(698,670,l),
(698,677,o),
(698,700,o),
(683,700,cs),
(683,700,o),
(677,699,o),
(605,696,c),
(496,700,ls),
(480,700,o),
(480,676,o),
(480,670,c),
(575,648,l),
(575,216,ls),
(575,127,o),
(515,43,o),
(382,43,cs),
(247,43,o),
(192,115,o),
(192,215,cs),
(192,648,l),
(287,670,l),
(287,676,o),
(287,700,o),
(271,700,c,{
name = hr00;
})
);
},
{
closed = 1;
nodes = (
(489,907,o),
(448,935,o),
(398,935,cs),
(347,935,o),
(304,904,o),
(304,848,cs),
(304,788,o),
(343,759,o),
(394,759,cs),
(450,759,o),
(489,788,o),
(489,850,cs,{
name = hr00;
})
);
},
{
closed = 1;
nodes = (
(350,870,o),
(357,891,o),
(370,897,c),
(376,900,o),
(387,902,o),
(397,902,cs),
(423,902,o),
(443,883,o),
(443,848,cs),
(443,809,o),
(423,792,o),
(397,792,cs),
(372,792,o),
(350,809,o),
(350,848,cs)
);
}
);
};
layerId = master01;
shapes = (
{
ref = U;
},
{
pos = (254,0);
ref = ringcomb.case;
}
);
width = 733;
}
);
unicode = 366;
},
{
glyphname = Utilde;
kernLeft = U;
kernRight = U;
lastChange = "2023-02-24 11:18:03 +0000";
layers = (
{
background = {
shapes = (
{
closed = 1;
nodes = (
(271,700,o),
(249,700,o),
(156,696,c),
(62,700,o),
(55,700,o),
(55,700,c),
(40,700,o),
(40,676,o),
(40,669,c),
(114,648,l),
(114,218,ls),
(114,55,o),
(217,-12,o),
(380,-12,cs),
(539,-12,o),
(633,82,o),
(633,218,cs),
(633,648,l),
(698,670,l),
(698,677,o),
(698,700,o),
(683,700,cs),
(683,700,o),
(677,699,o),
(605,696,c),
(496,700,ls),
(480,700,o),
(480,676,o),
(480,670,c),
(575,648,l),
(575,216,ls),
(575,127,o),
(515,43,o),
(382,43,cs),
(247,43,o),
(192,115,o),
(192,215,cs),
(192,648,l),
(287,670,l),
(287,676,o),
(287,700,o),
(271,700,c,{
name = hr00;
})
);
},
{
closed = 1;
nodes = (
(517,876,o),
(497,865,o),
(475,865,cs),
(428,865,o),
(387,892,o),
(339,892,cs,{
name = hr01;
}),
(306,892,o),
(272,876,o),
(238,817,c),
(255,798,l),
(275,817,o),
(295,828,o),
(317,828,cs),
(364,828,o),
(405,801,o),
(453,801,cs,{
name = hr02;
}),
(486,801,o),
(520,817,o),
(554,876,c),
(537,895,l)
);
}
);
};
layerId = master01;
shapes = (
{
ref = U;
},
{
pos = (189,0);
ref = tildecomb.case;
}
);
width = 733;
}
);
unicode = 360;
},
{
glyphname = V;
kernLeft = V;
kernRight = V;
lastChange = "2023-02-24 11:18:15 +0000";
layers = (
{
anchors = (
{
name = bottom;
pos = (322,0);
},
{
name = top;
pos = (322,700);
}
);
background = {
shapes = (
{
closed = 1;
nodes = (
(237,678,o),
(237,700,o),
(222,700,cs),
(222,700,o),
(223,700,o),
(115,696,c),
(28,700,o),
(15,700,o),
(15,700,c),
(0,700,o),
(0,677,o),
(0,670,c),
(65,648,l),
(290,0,l),
(360,0,l),
(578,648,l),
(643,670,l),
(643,677,o),
(643,699,o),
(628,700,c),
(629,700,o),
(624,699,o),
(550,696,c),
(442,700,o),
(446,700,o),
(446,700,c),
(431,700,o),
(431,678,o),
(431,670,c),
(516,648,l),
(338,95,l),
(153,648,l),
(237,670,l,{
name = hr00;
})
);
}
);
};
layerId = master01;
shapes = (
{
closed = 1;
nodes = (
(360,0,l),
(578,648,l),
(643,670,l),
(643,677,o),
(643,699,o),
(628,700,cs),
(629,700,o),
(624,699,o),
(550,696,c),
(446,700,ls),
(431,700,o),
(431,678,o),
(431,670,c),
(516,648,l),
(338,95,l),
(153,648,l),
(237,670,l,{
name = hr00;
}),
(237,678,o),
(237,700,o),
(222,700,cs),
(115,696,l),
(28,700,o),
(15,700,o),
(15,700,c),
(0,700,o),
(0,677,o),
(0,670,c),
(65,648,l),
(290,0,l)
);
}
);
width = 643;
}
);
unicode = 86;
},
{
glyphname = W;
kernLeft = V;
kernRight = V;
lastChange = "2023-02-24 11:18:15 +0000";
layers = (
{
anchors = (
{
name = bottom;
pos = (460,0);
},
{
name = top;
pos = (480,700);
}
);
background = {
shapes = (
{
closed = 1;
nodes = (
(237,678,o),
(237,700,o),
(222,700,cs),
(222,700,o),
(223,700,o),
(115,696,c),
(28,700,o),
(15,700,o),
(15,700,c),
(0,700,o),
(0,677,o),
(0,670,c),
(65,648,l),
(247,0,l),
(323,0,l),
(460,447,l),
(599,0,l),
(675,0,l),
(855,648,l),
(920,670,l),
(920,677,o),
(920,698,o),
(905,700,c),
(906,700,o),
(901,699,o),
(827,696,c),
(724,700,ls),
(709,700,o),
(709,678,o),
(709,670,c),
(794,648,l),
(645,113,l),
(498,584,l),
(498,651,l),
(463,651,l),
(297,113,l),
(152,648,l),
(237,670,l,{
name = hr00;
})
);
}
);
};
layerId = master01;
shapes = (
{
closed = 1;
nodes = (
(323,0,l),
(460,447,l),
(599,0,l),
(675,0,l),
(855,648,l),
(920,670,l),
(920,677,o),
(920,698,o),
(905,700,cs),
(906,700,o),
(901,699,o),
(827,696,c),
(724,700,ls),
(709,701,o),
(709,678,o),
(709,670,c),
(794,648,l),
(645,113,l),
(498,584,l),
(498,651,l),
(463,651,l),
(297,113,l),
(152,648,l),
(237,670,l,{
name = hr00;
}),
(237,678,o),
(237,701,o),
(222,700,cs),
(115,696,l),
(28,700,o),
(15,700,o),
(15,700,c),
(0,700,o),
(0,677,o),
(0,670,c),
(65,648,l),
(247,0,l)
);
}
);
width = 920;
}
);
unicode = 87;
},
{
glyphname = Wacute;
kernLeft = V;
kernRight = V;
lastChange = "2023-02-24 11:18:15 +0000";
layers = (
{
background = {
shapes = (
{
closed = 1;
nodes = (
(237,678,o),
(237,700,o),
(222,700,cs),
(222,700,o),
(223,700,o),
(115,696,c),
(28,700,o),
(15,700,o),
(15,700,c),
(0,700,o),
(0,677,o),
(0,670,c),
(65,648,l),
(247,0,l),
(323,0,l),
(460,447,l),
(599,0,l),
(675,0,l),
(855,648,l),
(920,670,l),
(920,677,o),
(920,698,o),
(905,700,c),
(906,700,o),
(901,699,o),
(827,696,c),
(724,700,ls),
(709,700,o),
(709,678,o),
(709,670,c),
(794,648,l),
(645,113,l),
(498,584,l),
(498,651,l),
(463,651,l),
(297,113,l),
(152,648,l),
(237,670,l,{
name = hr00;
})
);
},
{
closed = 1;
nodes = (
(418,772,o),
(516,802,o),
(583,845,cs),
(587,847,o),
(588,852,o),
(588,857,cs),
(588,877,o),
(568,918,o),
(563,924,c),
(468,847,o),
(371,781,o),
(371,781,c),
(382,762,l,{
name = hr00;
})
);
}
);
};
layerId = master01;
shapes = (
{
ref = W;
},
{
pos = (321,0);
ref = acutecomb.case;
}
);
width = 920;
}
);
unicode = 7810;
},
{
glyphname = Wcircumflex;
kernLeft = V;
kernRight = V;
lastChange = "2023-02-24 11:18:15 +0000";
layers = (
{
background = {
shapes = (
{
closed = 1;
nodes = (
(237,678,o),
(237,700,o),
(222,700,cs),
(222,700,o),
(223,700,o),
(115,696,c),
(28,700,o),
(15,700,o),
(15,700,c),
(0,700,o),
(0,677,o),
(0,670,c),
(65,648,l),
(247,0,l),
(323,0,l),
(460,447,l),
(599,0,l),
(675,0,l),
(855,648,l),
(920,670,l),
(920,677,o),
(920,698,o),
(905,700,c),
(906,700,o),
(901,699,o),
(827,696,c),
(724,700,ls),
(709,700,o),
(709,678,o),
(709,670,c),
(794,648,l),
(645,113,l),
(498,584,l),
(498,651,l),
(463,651,l),
(297,113,l),
(152,648,l),
(237,670,l,{
name = hr00;
})
);
},
{
closed = 1;
nodes = (
(576,753,l),
(602,770,l),
(558,833,o),
(525,886,o),
(502,929,c),
(457,929,l),
(434,886,o),
(401,833,o),
(357,770,c),
(383,753,l),
(480,855,l,{
name = hr00;
})
);
}
);
};
layerId = master01;
shapes = (
{
ref = W;
},
{
pos = (312,0);
ref = circumflexcomb.case;
}
);
width = 920;
}
);
unicode = 372;
},
{
glyphname = Wdieresis;
kernLeft = V;
kernRight = V;
lastChange = "2023-02-24 11:18:15 +0000";
layers = (
{
background = {
shapes = (
{
closed = 1;
nodes = (
(237,678,o),
(237,700,o),
(222,700,cs),
(222,700,o),
(223,700,o),
(115,696,c),
(28,700,o),
(15,700,o),
(15,700,c),
(0,700,o),
(0,677,o),
(0,670,c),
(65,648,l),
(247,0,l),
(323,0,l),
(460,447,l),
(599,0,l),
(675,0,l),
(855,648,l),
(920,670,l),
(920,677,o),
(920,698,o),
(905,700,c),
(906,700,o),
(901,699,o),
(827,696,c),
(724,700,ls),
(709,700,o),
(709,678,o),
(709,670,c),
(794,648,l),
(645,113,l),
(498,584,l),
(498,651,l),
(463,651,l),
(297,113,l),
(152,648,l),
(237,670,l,{
name = hr00;
})
);
},
{
closed = 1;
nodes = (
(390,900,o),
(361,894,o),
(361,894,c),
(361,894,o),
(354,867,o),
(354,841,cs),
(354,816,o),
(360,791,o),
(385,791,cs),
(403,791,o),
(431,799,o),
(431,799,c),
(431,799,o),
(437,825,o),
(437,850,cs),
(437,876,o),
(429,900,o),
(407,900,cs,{
name = hr00;
})
);
},
{
closed = 1;
nodes = (
(558,900,o),
(529,894,o),
(529,894,c),
(529,894,o),
(522,867,o),
(522,841,cs),
(522,816,o),
(528,791,o),
(553,791,cs),
(571,791,o),
(599,799,o),
(599,799,c),
(599,799,o),
(605,825,o),
(605,850,cs),
(605,876,o),
(597,900,o),
(575,900,cs)
);
}
);
};
layerId = master01;
shapes = (
{
ref = W;
},
{
pos = (290,0);
ref = dieresiscomb.case;
}
);
width = 920;
}
);
unicode = 7812;
},
{
glyphname = Wgrave;
kernLeft = V;
kernRight = V;
lastChange = "2023-02-24 11:18:15 +0000";
layers = (
{
background = {
shapes = (
{
closed = 1;
nodes = (
(237,678,o),
(237,700,o),
(222,700,cs),
(222,700,o),
(223,700,o),
(115,696,c),
(28,700,o),
(15,700,o),
(15,700,c),
(0,700,o),
(0,677,o),
(0,670,c),
(65,648,l),
(247,0,l),
(323,0,l),
(460,447,l),
(599,0,l),
(675,0,l),
(855,648,l),
(920,670,l),
(920,677,o),
(920,698,o),
(905,700,c),
(906,700,o),
(901,699,o),
(827,696,c),
(724,700,ls),
(709,700,o),
(709,678,o),
(709,670,c),
(794,648,l),
(645,113,l),
(498,584,l),
(498,651,l),
(463,651,l),
(297,113,l),
(152,648,l),
(237,670,l,{
name = hr00;
})
);
},
{
closed = 1;
nodes = (
(588,781,o),
(491,847,o),
(396,924,c),
(391,918,o),
(371,877,o),
(371,857,cs),
(371,852,o),
(372,847,o),
(376,845,cs),
(443,802,o),
(541,772,o),
(577,762,c),
(588,781,l,{
name = hr00;
})
);
}
);
};
layerId = master01;
shapes = (
{
ref = W;
},
{
pos = (321,0);
ref = gravecomb.case;
}
);
width = 920;
}
);
unicode = 7808;
},
{
glyphname = X;
kernLeft = X;
kernRight = X;
lastChange = "2023-02-24 11:18:20 +0000";
layers = (
{
anchors = (
{
name = bottom;
pos = (348,0);
},
{
name = top;
pos = (348,700);
}
);
background = {
shapes = (
{
closed = 1;
nodes = (
(416,22,o),
(416,0,o),
(431,0,cs),
(431,0,o),
(451,0,o),
(559,4,c),
(646,0,o),
(666,0,o),
(666,0,c),
(681,0,o),
(681,23,o),
(681,30,c),
(601,52,l),
(392,365,l),
(595,648,l),
(660,670,l),
(660,677,o),
(660,699,o),
(645,700,c),
(646,700,o),
(642,699,o),
(567,696,c),
(456,700,ls),
(441,700,o),
(441,678,o),
(441,670,c),
(523,648,l),
(359,414,l),
(204,648,l),
(281,670,l),
(281,678,o),
(281,700,o),
(266,700,cs),
(266,700,o),
(267,700,o),
(159,696,c),
(72,700,o),
(51,700,o),
(51,700,c),
(36,700,o),
(36,677,o),
(36,670,c),
(111,648,l),
(307,353,l),
(90,52,l),
(15,30,l),
(15,23,o),
(15,0,o),
(29,0,cs),
(29,0,o),
(42,0,o),
(118,4,c),
(239,0,ls),
(254,0,o),
(254,22,o),
(254,30,c),
(162,52,l),
(339,305,l),
(508,52,l),
(416,30,l,{
name = hr00;
})
);
}
);
};
layerId = master01;
shapes = (
{
closed = 1;
nodes = (
(29,0,o),
(42,0,o),
(118,4,c),
(239,0,ls),
(254,0,o),
(254,22,o),
(254,30,c),
(162,52,l),
(339,305,l),
(508,52,l),
(416,30,l,{
name = hr00;
}),
(416,22,o),
(416,0,o),
(431,0,c),
(431,0,o),
(451,0,o),
(559,4,c),
(646,0,o),
(666,0,o),
(666,0,c),
(681,0,o),
(681,23,o),
(681,30,c),
(601,52,l),
(392,365,l),
(595,648,l),
(660,670,l),
(660,677,o),
(660,699,o),
(645,700,cs),
(646,700,o),
(642,699,o),
(567,696,c),
(456,700,ls),
(441,700,o),
(441,678,o),
(441,670,c),
(523,648,l),
(359,414,l),
(204,648,l),
(281,670,l),
(281,678,o),
(281,700,o),
(266,700,cs),
(159,696,l),
(72,700,o),
(51,700,o),
(51,700,c),
(36,700,o),
(36,677,o),
(36,670,c),
(111,648,l),
(307,353,l),
(90,52,l),
(15,30,l),
(15,23,o),
(15,0,o),
(29,0,c)
);
}
);
width = 696;
}
);
unicode = 88;
},
{
glyphname = Y;
kernLeft = V;
kernRight = V;
lastChange = "2023-02-24 11:18:15 +0000";
layers = (
{
anchors = (
{
name = bottom;
pos = (290,0);
},
{
name = top;
pos = (309,700);
},
{
name = topleft;
pos = (20,700);
}
);
background = {
shapes = (
{
closed = 1;
nodes = (
(232,678,o),
(232,700,o),
(217,700,cs),
(217,700,o),
(220,700,o),
(112,696,c),
(25,700,o),
(15,700,o),
(15,700,c),
(0,700,o),
(0,677,o),
(0,670,c),
(65,648,l),
(259,277,l),
(259,52,l),
(154,30,l),
(154,23,o),
(154,0,o),
(169,0,c),
(169,0,o),
(207,0,o),
(301,4,c),
(394,0,o),
(427,0,o),
(427,0,c),
(442,0,o),
(442,23,o),
(442,30,c),
(337,52,l),
(337,279,l),
(515,648,l),
(580,670,l),
(580,677,o),
(580,699,o),
(565,700,c),
(566,700,o),
(561,699,o),
(487,696,c),
(379,700,o),
(383,700,o),
(383,700,c),
(368,700,o),
(368,678,o),
(368,670,c),
(450,648,l),
(307,321,l),
(147,648,l),
(232,670,l,{
name = hr00;
})
);
}
);
};
layerId = master01;
shapes = (
{
closed = 1;
nodes = (
(169,0,o),
(207,0,o),
(301,4,c),
(394,0,o),
(427,0,o),
(427,0,c),
(442,0,o),
(442,23,o),
(442,30,c),
(337,52,l),
(337,279,l),
(515,648,l),
(580,670,l),
(580,677,o),
(580,699,o),
(565,700,cs),
(566,700,o),
(561,699,o),
(487,696,c),
(383,700,ls),
(368,701,o),
(368,678,o),
(368,670,c),
(450,648,l),
(307,321,l),
(147,648,l),
(232,670,l,{
name = hr00;
}),
(232,678,o),
(232,701,o),
(217,700,cs),
(112,696,l),
(25,700,o),
(15,700,o),
(15,700,c),
(0,700,o),
(0,677,o),
(0,670,c),
(65,648,l),
(259,277,l),
(259,52,l),
(154,30,l),
(154,23,o),
(154,0,o),
(169,0,c)
);
}
);
width = 580;
}
);
unicode = 89;
},
{
glyphname = Yacute;
kernLeft = V;
kernRight = V;
lastChange = "2023-02-24 11:18:15 +0000";
layers = (
{
background = {
shapes = (
{
closed = 1;
nodes = (
(222,678,o),
(222,700,o),
(207,700,cs),
(207,700,o),
(210,700,o),
(102,696,c),
(15,700,o),
(5,700,o),
(5,700,c),
(-10,700,o),
(-10,677,o),
(-10,670,c),
(55,648,l),
(249,277,l),
(249,52,l),
(144,30,l),
(144,23,o),
(144,0,o),
(159,0,c),
(159,0,o),
(197,0,o),
(291,4,c),
(384,0,o),
(417,0,o),
(417,0,c),
(432,0,o),
(432,23,o),
(432,30,c),
(327,52,l),
(327,279,l),
(505,648,l),
(570,670,l),
(570,677,o),
(570,699,o),
(555,700,c),
(556,700,o),
(551,699,o),
(477,696,c),
(369,700,o),
(373,700,o),
(373,700,c),
(358,700,o),
(358,678,o),
(358,670,c),
(440,648,l),
(297,321,l),
(137,648,l),
(222,670,l,{
name = hr00;
})
);
},
{
closed = 1;
nodes = (
(218,772,o),
(316,802,o),
(383,845,cs),
(387,847,o),
(388,852,o),
(388,857,cs),
(388,877,o),
(368,918,o),
(363,924,c),
(268,847,o),
(171,781,o),
(171,781,c),
(182,762,l,{
name = hr00;
})
);
}
);
};
layerId = master01;
shapes = (
{
ref = Y;
},
{
pos = (150,0);
ref = acutecomb.case;
}
);
width = 580;
}
);
unicode = 221;
},
{
glyphname = Ycircumflex;
kernLeft = V;
kernRight = V;
lastChange = "2023-02-24 11:18:15 +0000";
layers = (
{
background = {
shapes = (
{
closed = 1;
nodes = (
(232,678,o),
(232,700,o),
(217,700,cs),
(217,700,o),
(220,700,o),
(112,696,c),
(25,700,o),
(15,700,o),
(15,700,c),
(0,700,o),
(0,677,o),
(0,670,c),
(65,648,l),
(259,277,l),
(259,52,l),
(154,30,l),
(154,23,o),
(154,0,o),
(169,0,c),
(169,0,o),
(207,0,o),
(301,4,c),
(394,0,o),
(427,0,o),
(427,0,c),
(442,0,o),
(442,23,o),
(442,30,c),
(337,52,l),
(337,279,l),
(515,648,l),
(580,670,l),
(580,677,o),
(580,699,o),
(565,700,c),
(566,700,o),
(561,699,o),
(487,696,c),
(379,700,o),
(383,700,o),
(383,700,c),
(368,700,o),
(368,678,o),
(368,670,c),
(450,648,l),
(307,321,l),
(147,648,l),
(232,670,l,{
name = hr00;
})
);
},
{
closed = 1;
nodes = (
(404,753,l),
(430,770,l),
(386,833,o),
(353,886,o),
(330,929,c),
(285,929,l),
(262,886,o),
(229,833,o),
(185,770,c),
(211,753,l),
(308,855,l,{
name = hr00;
})
);
}
);
};
layerId = master01;
shapes = (
{
ref = Y;
},
{
pos = (141,0);
ref = circumflexcomb.case;
}
);
width = 580;
}
);
unicode = 374;
},
{
glyphname = Ydieresis;
kernLeft = V;
kernRight = V;
lastChange = "2023-02-24 11:18:15 +0000";
layers = (
{
background = {
shapes = (
{
closed = 1;
nodes = (
(222,678,o),
(222,700,o),
(207,700,cs),
(207,700,o),
(210,700,o),
(102,696,c),
(15,700,o),
(5,700,o),
(5,700,c),
(-10,700,o),
(-10,677,o),
(-10,670,c),
(55,648,l),
(249,277,l),
(249,52,l),
(144,30,l),
(144,23,o),
(144,0,o),
(159,0,c),
(159,0,o),
(197,0,o),
(291,4,c),
(384,0,o),
(417,0,o),
(417,0,c),
(432,0,o),
(432,23,o),
(432,30,c),
(327,52,l),
(327,279,l),
(505,648,l),
(570,670,l),
(570,677,o),
(570,699,o),
(555,700,c),
(556,700,o),
(551,699,o),
(477,696,c),
(369,700,o),
(373,700,o),
(373,700,c),
(358,700,o),
(358,678,o),
(358,670,c),
(440,648,l),
(297,321,l),
(137,648,l),
(222,670,l,{
name = hr00;
})
);
},
{
closed = 1;
nodes = (
(193,900,o),
(164,894,o),
(164,894,c),
(164,894,o),
(157,867,o),
(157,841,cs),
(157,816,o),
(163,791,o),
(188,791,cs),
(206,791,o),
(234,799,o),
(234,799,c),
(234,799,o),
(240,825,o),
(240,850,cs),
(240,876,o),
(232,900,o),
(210,900,cs,{
name = hr00;
})
);
},
{
closed = 1;
nodes = (
(361,900,o),
(332,894,o),
(332,894,c),
(332,894,o),
(325,867,o),
(325,841,cs),
(325,816,o),
(331,791,o),
(356,791,cs),
(374,791,o),
(402,799,o),
(402,799,c),
(402,799,o),
(408,825,o),
(408,850,cs),
(408,876,o),
(400,900,o),
(378,900,cs)
);
}
);
};
layerId = master01;
shapes = (
{
ref = Y;
},
{
pos = (119,0);
ref = dieresiscomb.case;
}
);
width = 580;
}
);
unicode = 376;
},
{
glyphname = Ygrave;
kernLeft = V;
kernRight = V;
lastChange = "2023-02-24 11:18:15 +0000";
layers = (
{
background = {
shapes = (
{
closed = 1;
nodes = (
(232,678,o),
(232,700,o),
(217,700,cs),
(217,700,o),
(220,700,o),
(112,696,c),
(25,700,o),
(15,700,o),
(15,700,c),
(0,700,o),
(0,677,o),
(0,670,c),
(65,648,l),
(259,277,l),
(259,52,l),
(154,30,l),
(154,23,o),
(154,0,o),
(169,0,c),
(169,0,o),
(207,0,o),
(301,4,c),
(394,0,o),
(427,0,o),
(427,0,c),
(442,0,o),
(442,23,o),
(442,30,c),
(337,52,l),
(337,279,l),
(515,648,l),
(580,670,l),
(580,677,o),
(580,699,o),
(565,700,c),
(566,700,o),
(561,699,o),
(487,696,c),
(379,700,o),
(383,700,o),
(383,700,c),
(368,700,o),
(368,678,o),
(368,670,c),
(450,648,l),
(307,321,l),
(147,648,l),
(232,670,l,{
name = hr00;
})
);
},
{
closed = 1;
nodes = (
(398,781,o),
(301,847,o),
(206,924,c),
(201,918,o),
(181,877,o),
(181,857,cs),
(181,852,o),
(182,847,o),
(186,845,cs),
(253,802,o),
(351,772,o),
(387,762,c),
(398,781,l,{
name = hr00;
})
);
}
);
};
layerId = master01;
shapes = (
{
ref = Y;
},
{
pos = (150,0);
ref = gravecomb.case;
}
);
width = 580;
}
);
unicode = 7922;
},
{
glyphname = Z;
lastChange = "2023-02-23 13:21:10 +0000";
layers = (
{
anchors = (
{
name = bottom;
pos = (306,0);
},
{
name = center;
pos = (306,350);
},
{
name = top;
pos = (326,700);
}
);
background = {
shapes = (
{
closed = 1;
nodes = (
(146,55,l),
(577,695,l),
(555,712,l),
(520,689,l),
(106,700,o),
(102,700,o),
(100,700,cs,{
name = hr01;
}),
(86,700,o),
(80,697,o),
(79,688,c),
(104,537,l),
(111,537,o),
(146,537,o),
(146,551,cs),
(146,642,l),
(456,642,l),
(28,8,l),
(45,-12,l),
(77,5,l),
(527,0,l,{
name = hr02;
}),
(547,0,o),
(555,1,o),
(556,12,c),
(531,165,l),
(524,165,o),
(489,165,o),
(489,151,cs),
(489,55,l)
);
}
);
};
layerId = master01;
shapes = (
{
closed = 1;
nodes = (
(77,5,l),
(527,0,ls,{
name = hr02;
}),
(547,0,o),
(555,1,o),
(556,12,c),
(531,165,l),
(524,165,o),
(489,165,o),
(489,151,cs),
(489,55,l),
(146,55,l),
(577,695,l),
(555,712,l),
(520,689,l),
(100,700,ls,{
name = hr01;
}),
(86,700,o),
(80,697,o),
(79,688,c),
(104,537,l),
(111,537,o),
(146,537,o),
(146,551,cs),
(146,642,l),
(456,642,l),
(28,8,l),
(45,-12,l)
);
}
);
width = 611;
}
);
unicode = 90;
},
{
glyphname = Zacute;
lastChange = "2023-02-23 13:21:10 +0000";
layers = (
{
background = {
shapes = (
{
closed = 1;
nodes = (
(146,55,l),
(577,695,l),
(555,712,l),
(520,689,l),
(106,700,o),
(102,700,o),
(100,700,cs,{
name = hr01;
}),
(86,700,o),
(80,697,o),
(79,688,c),
(104,537,l),
(111,537,o),
(146,537,o),
(146,551,cs),
(146,642,l),
(456,642,l),
(28,8,l),
(45,-12,l),
(77,5,l),
(527,0,l,{
name = hr02;
}),
(547,0,o),
(555,1,o),
(556,12,c),
(531,165,l),
(524,165,o),
(489,165,o),
(489,151,cs),
(489,55,l)
);
},
{
closed = 1;
nodes = (
(284,772,o),
(382,802,o),
(449,845,cs),
(453,847,o),
(454,852,o),
(454,857,cs),
(454,877,o),
(434,918,o),
(429,924,c),
(334,847,o),
(237,781,o),
(237,781,c),
(248,762,l,{
name = hr00;
})
);
}
);
};
layerId = master01;
shapes = (
{
ref = Z;
},
{
pos = (167,0);
ref = acutecomb.case;
}
);
width = 611;
}
);
unicode = 377;
},
{
glyphname = Zcaron;
lastChange = "2023-02-23 13:21:10 +0000";
layers = (
{
background = {
shapes = (
{
closed = 1;
nodes = (
(136,55,l),
(567,695,l),
(545,712,l),
(510,689,l),
(96,700,o),
(92,700,o),
(90,700,cs,{
name = hr01;
}),
(76,700,o),
(70,697,o),
(69,688,c),
(94,537,l),
(101,537,o),
(136,537,o),
(136,551,cs),
(136,642,l),
(446,642,l),
(18,8,l),
(35,-12,l),
(67,5,l),
(517,0,l,{
name = hr02;
}),
(537,0,o),
(545,1,o),
(546,12,c),
(521,165,l),
(514,165,o),
(479,165,o),
(479,151,cs),
(479,55,l)
);
},
{
closed = 1;
nodes = (
(219,929,l),
(192,912,l),
(232,849,o),
(262,796,o),
(281,753,c),
(326,753,l),
(352,796,o),
(389,849,o),
(437,912,c),
(412,929,l),
(309,827,l,{
name = hr00;
})
);
}
);
};
layerId = master01;
shapes = (
{
ref = Z;
},
{
pos = (154,0);
ref = caroncomb.case;
}
);
width = 611;
}
);
unicode = 381;
},
{
glyphname = Zdotaccent;
lastChange = "2023-02-23 13:21:10 +0000";
layers = (
{
background = {
shapes = (
{
closed = 1;
nodes = (
(146,55,l),
(577,695,l),
(555,712,l),
(520,689,l),
(106,700,o),
(102,700,o),
(100,700,cs,{
name = hr01;
}),
(86,700,o),
(80,697,o),
(79,688,c),
(104,537,l),
(111,537,o),
(146,537,o),
(146,551,cs),
(146,642,l),
(456,642,l),
(28,8,l),
(45,-12,l),
(77,5,l),
(527,0,l,{
name = hr02;
}),
(547,0,o),
(555,1,o),
(556,12,c),
(531,165,l),
(524,165,o),
(489,165,o),
(489,151,cs),
(489,55,l)
);
},
{
closed = 1;
nodes = (
(329,906,o),
(297,899,o),
(297,899,c),
(297,899,o),
(289,869,o),
(289,840,cs),
(289,813,o),
(296,785,o),
(324,785,cs),
(344,785,o),
(375,794,o),
(375,794,c),
(375,794,o),
(382,823,o),
(382,850,cs),
(382,879,o),
(373,906,o),
(348,906,cs,{
name = hr00;
})
);
}
);
};
layerId = master01;
shapes = (
{
ref = Z;
},
{
pos = (217,0);
ref = dotaccentcomb.case;
}
);
width = 611;
}
);
unicode = 379;
},
{
glyphname = a;
kernLeft = a;
lastChange = "2023-02-24 11:18:27 +0000";
layers = (
{
anchors = (
{
name = bottom;
pos = (248,0);
},
{
name = ogonek;
pos = (446,7);
},
{
name = top;
pos = (248,456);
}
);
background = {
shapes = (
{
closed = 1;
nodes = (
(181,-12,o),
(243,12,o),
(320,52,c),
(326,11,o),
(356,-12,o),
(400,-12,cs),
(422,-12,o),
(448,-4,o),
(471,9,c),
(471,18,o),
(467,29,o),
(462,34,c),
(450,32,o),
(440,31,o),
(432,31,cs),
(402,31,o),
(389,42,o),
(389,67,cs),
(389,322,ls),
(389,415,o),
(334,468,o),
(237,468,c),
(187,458,o),
(125,435,o),
(64,406,c),
(67,379,o),
(88,348,o),
(103,348,cs),
(124,348,o),
(163,379,o),
(209,430,c),
(274,430,o),
(318,385,o),
(318,319,cs),
(318,319,o),
(318,319,o),
(318,259,c),
(118,245,o),
(50,175,o),
(50,102,cs),
(50,41,o),
(90,-12,o),
(157,-12,c,{
name = hr00;
})
);
},
{
closed = 1;
nodes = (
(139,41,o),
(122,75,o),
(122,114,cs),
(122,128,o),
(126,147,o),
(131,160,c),
(164,189,o),
(230,215,o),
(318,226,c),
(318,91,l),
(274,62,o),
(219,41,o),
(178,41,c)
);
}
);
};
layerId = master01;
shapes = (
{
closed = 1;
nodes = (
(181,-12,o),
(243,12,o),
(320,52,c),
(326,11,o),
(356,-12,o),
(400,-12,cs),
(422,-12,o),
(448,-4,o),
(471,9,c),
(471,18,o),
(467,29,o),
(462,34,c),
(450,32,o),
(440,31,o),
(432,31,cs),
(402,31,o),
(389,42,o),
(389,67,cs),
(389,322,ls),
(389,415,o),
(334,468,o),
(237,468,c),
(187,458,o),
(125,435,o),
(64,406,c),
(67,379,o),
(88,348,o),
(103,348,cs),
(124,348,o),
(163,379,o),
(209,430,c),
(274,430,o),
(318,385,o),
(318,319,cs),
(318,259,l),
(118,245,o),
(50,175,o),
(50,102,cs),
(50,41,o),
(90,-12,o),
(157,-12,cs,{
name = hr00;
})
);
},
{
closed = 1;
nodes = (
(139,41,o),
(122,75,o),
(122,114,cs),
(122,128,o),
(126,147,o),
(131,160,c),
(164,189,o),
(230,215,o),
(318,226,c),
(318,91,l),
(274,62,o),
(219,41,o),
(178,41,cs)
);
}
);
width = 496;
}
);
unicode = 97;
},
{
glyphname = aacute;
kernLeft = a;
lastChange = "2023-02-24 11:18:27 +0000";
layers = (
{
background = {
shapes = (
{
closed = 1;
nodes = (
(181,-12,o),
(243,12,o),
(320,52,c),
(326,11,o),
(356,-12,o),
(400,-12,cs),
(422,-12,o),
(448,-4,o),
(471,9,c),
(471,18,o),
(467,29,o),
(462,34,c),
(450,32,o),
(440,31,o),
(432,31,cs),
(402,31,o),
(389,42,o),
(389,67,cs),
(389,322,ls),
(389,415,o),
(334,468,o),
(237,468,c),
(187,458,o),
(125,435,o),
(64,406,c),
(67,379,o),
(88,348,o),
(103,348,cs),
(124,348,o),
(163,379,o),
(209,430,c),
(274,430,o),
(318,385,o),
(318,319,cs),
(318,319,o),
(318,319,o),
(318,259,c),
(118,245,o),
(50,175,o),
(50,102,cs),
(50,41,o),
(90,-12,o),
(157,-12,c,{
name = hr00;
})
);
},
{
closed = 1;
nodes = (
(139,41,o),
(122,75,o),
(122,114,cs),
(122,128,o),
(126,147,o),
(131,160,c),
(164,189,o),
(230,215,o),
(318,226,c),
(318,91,l),
(274,62,o),
(219,41,o),
(178,41,c)
);
},
{
closed = 1;
nodes = (
(204,528,o),
(302,558,o),
(369,601,cs),
(373,603,o),
(374,608,o),
(374,613,cs),
(374,633,o),
(354,674,o),
(349,680,c),
(254,603,o),
(157,537,o),
(157,537,c),
(168,518,l,{
name = hr00;
})
);
}
);
};
layerId = master01;
shapes = (
{
ref = a;
},
{
pos = (89,0);
ref = acutecomb;
}
);
width = 496;
}
);
unicode = 225;
},
{
glyphname = abreve;
kernLeft = a;
lastChange = "2023-02-24 11:18:27 +0000";
layers = (
{
background = {
shapes = (
{
closed = 1;
nodes = (
(181,-12,o),
(243,12,o),
(320,52,c),
(326,11,o),
(356,-12,o),
(400,-12,cs),
(422,-12,o),
(448,-4,o),
(471,9,c),
(471,18,o),
(467,29,o),
(462,34,c),
(450,32,o),
(440,31,o),
(432,31,cs),
(402,31,o),
(389,42,o),
(389,67,cs),
(389,322,ls),
(389,415,o),
(334,468,o),
(237,468,c),
(187,458,o),
(125,435,o),
(64,406,c),
(67,379,o),
(88,348,o),
(103,348,cs),
(124,348,o),
(163,379,o),
(209,430,c),
(274,430,o),
(318,385,o),
(318,319,cs),
(318,319,o),
(318,319,o),
(318,259,c),
(118,245,o),
(50,175,o),
(50,102,cs),
(50,41,o),
(90,-12,o),
(157,-12,c,{
name = hr00;
})
);
},
{
closed = 1;
nodes = (
(139,41,o),
(122,75,o),
(122,114,cs),
(122,128,o),
(126,147,o),
(131,160,c),
(164,189,o),
(230,215,o),
(318,226,c),
(318,91,l),
(274,62,o),
(219,41,o),
(178,41,c)
);
},
{
closed = 1;
nodes = (
(200,577,o),
(171,613,o),
(149,669,c),
(115,661,l),
(147,564,o),
(178,510,o),
(238,510,cs),
(298,510,o),
(329,564,o),
(361,661,c),
(327,669,l),
(305,613,o),
(276,577,o),
(238,577,cs,{
name = hr00;
})
);
}
);
};
layerId = master01;
shapes = (
{
ref = a;
},
{
pos = (82,0);
ref = brevecomb;
}
);
width = 496;
}
);
unicode = 259;
},
{
glyphname = acircumflex;
kernLeft = a;
lastChange = "2023-02-24 11:18:27 +0000";
layers = (
{
background = {
shapes = (
{
closed = 1;
nodes = (
(181,-12,o),
(243,12,o),
(320,52,c),
(326,11,o),
(356,-12,o),
(400,-12,cs),
(422,-12,o),
(448,-4,o),
(471,9,c),
(471,18,o),
(467,29,o),
(462,34,c),
(450,32,o),
(440,31,o),
(432,31,cs),
(402,31,o),
(389,42,o),
(389,67,cs),
(389,322,ls),
(389,415,o),
(334,468,o),
(237,468,c),
(187,458,o),
(125,435,o),
(64,406,c),
(67,379,o),
(88,348,o),
(103,348,cs),
(124,348,o),
(163,379,o),
(209,430,c),
(274,430,o),
(318,385,o),
(318,319,cs),
(318,319,o),
(318,319,o),
(318,259,c),
(118,245,o),
(50,175,o),
(50,102,cs),
(50,41,o),
(90,-12,o),
(157,-12,c,{
name = hr00;
})
);
},
{
closed = 1;
nodes = (
(139,41,o),
(122,75,o),
(122,114,cs),
(122,128,o),
(126,147,o),
(131,160,c),
(164,189,o),
(230,215,o),
(318,226,c),
(318,91,l),
(274,62,o),
(219,41,o),
(178,41,c)
);
},
{
closed = 1;
nodes = (
(323,509,l),
(349,526,l),
(305,589,o),
(272,642,o),
(249,685,c),
(204,685,l),
(181,642,o),
(148,589,o),
(104,526,c),
(130,509,l),
(227,611,l,{
name = hr00;
})
);
}
);
};
layerId = master01;
shapes = (
{
ref = a;
},
{
pos = (80,0);
ref = circumflexcomb;
}
);
width = 496;
}
);
unicode = 226;
},
{
glyphname = adieresis;
kernLeft = a;
lastChange = "2023-02-24 11:18:27 +0000";
layers = (
{
background = {
shapes = (
{
closed = 1;
nodes = (
(181,-12,o),
(243,12,o),
(320,52,c),
(326,11,o),
(356,-12,o),
(400,-12,cs),
(422,-12,o),
(448,-4,o),
(471,9,c),
(471,18,o),
(467,29,o),
(462,34,c),
(450,32,o),
(440,31,o),
(432,31,cs),
(402,31,o),
(389,42,o),
(389,67,cs),
(389,322,ls),
(389,415,o),
(334,468,o),
(237,468,c),
(187,458,o),
(125,435,o),
(64,406,c),
(67,379,o),
(88,348,o),
(103,348,cs),
(124,348,o),
(163,379,o),
(209,430,c),
(274,430,o),
(318,385,o),
(318,319,cs),
(318,319,o),
(318,319,o),
(318,259,c),
(118,245,o),
(50,175,o),
(50,102,cs),
(50,41,o),
(90,-12,o),
(157,-12,c,{
name = hr00;
})
);
},
{
closed = 1;
nodes = (
(139,41,o),
(122,75,o),
(122,114,cs),
(122,128,o),
(126,147,o),
(131,160,c),
(164,189,o),
(230,215,o),
(318,226,c),
(318,91,l),
(274,62,o),
(219,41,o),
(178,41,c)
);
},
{
closed = 1;
nodes = (
(159,656,o),
(130,650,o),
(130,650,c),
(130,650,o),
(123,623,o),
(123,597,cs),
(123,572,o),
(129,547,o),
(154,547,cs),
(172,547,o),
(200,555,o),
(200,555,c),
(200,555,o),
(206,581,o),
(206,606,cs),
(206,632,o),
(198,656,o),
(176,656,cs,{
name = hr00;
})
);
},
{
closed = 1;
nodes = (
(327,656,o),
(298,650,o),
(298,650,c),
(298,650,o),
(291,623,o),
(291,597,cs),
(291,572,o),
(297,547,o),
(322,547,cs),
(340,547,o),
(368,555,o),
(368,555,c),
(368,555,o),
(374,581,o),
(374,606,cs),
(374,632,o),
(366,656,o),
(344,656,cs)
);
}
);
};
layerId = master01;
shapes = (
{
ref = a;
},
{
pos = (58,0);
ref = dieresiscomb;
}
);
width = 496;
}
);
unicode = 228;
},
{
glyphname = agrave;
kernLeft = a;
lastChange = "2023-02-24 11:18:27 +0000";
layers = (
{
background = {
shapes = (
{
closed = 1;
nodes = (
(181,-12,o),
(243,12,o),
(320,52,c),
(326,11,o),
(356,-12,o),
(400,-12,cs),
(422,-12,o),
(448,-4,o),
(471,9,c),
(471,18,o),
(467,29,o),
(462,34,c),
(450,32,o),
(440,31,o),
(432,31,cs),
(402,31,o),
(389,42,o),
(389,67,cs),
(389,322,ls),
(389,415,o),
(334,468,o),
(237,468,c),
(187,458,o),
(125,435,o),
(64,406,c),
(67,379,o),
(88,348,o),
(103,348,cs),
(124,348,o),
(163,379,o),
(209,430,c),
(274,430,o),
(318,385,o),
(318,319,cs),
(318,319,o),
(318,319,o),
(318,259,c),
(118,245,o),
(50,175,o),
(50,102,cs),
(50,41,o),
(90,-12,o),
(157,-12,c,{
name = hr00;
})
);
},
{
closed = 1;
nodes = (
(139,41,o),
(122,75,o),
(122,114,cs),
(122,128,o),
(126,147,o),
(131,160,c),
(164,189,o),
(230,215,o),
(318,226,c),
(318,91,l),
(274,62,o),
(219,41,o),
(178,41,c)
);
},
{
closed = 1;
nodes = (
(342,537,o),
(245,603,o),
(150,680,c),
(145,674,o),
(125,633,o),
(125,613,cs),
(125,608,o),
(126,603,o),
(130,601,cs),
(197,558,o),
(295,528,o),
(331,518,c),
(342,537,l,{
name = hr00;
})
);
}
);
};
layerId = master01;
shapes = (
{
ref = a;
},
{
pos = (89,0);
ref = gravecomb;
}
);
width = 496;
}
);
unicode = 224;
},
{
glyphname = amacron;
kernLeft = a;
lastChange = "2023-02-24 11:18:27 +0000";
layers = (
{
background = {
shapes = (
{
closed = 1;
nodes = (
(181,-12,o),
(243,12,o),
(320,52,c),
(326,11,o),
(356,-12,o),
(400,-12,cs),
(422,-12,o),
(448,-4,o),
(471,9,c),
(471,18,o),
(467,29,o),
(462,34,c),
(450,32,o),
(440,31,o),
(432,31,cs),
(402,31,o),
(389,42,o),
(389,67,cs),
(389,322,ls),
(389,415,o),
(334,468,o),
(237,468,c),
(187,458,o),
(125,435,o),
(64,406,c),
(67,379,o),
(88,348,o),
(103,348,cs),
(124,348,o),
(163,379,o),
(209,430,c),
(274,430,o),
(318,385,o),
(318,319,cs),
(318,319,o),
(318,319,o),
(318,259,c),
(118,245,o),
(50,175,o),
(50,102,cs),
(50,41,o),
(90,-12,o),
(157,-12,c,{
name = hr00;
})
);
},
{
closed = 1;
nodes = (
(139,41,o),
(122,75,o),
(122,114,cs),
(122,128,o),
(126,147,o),
(131,160,c),
(164,189,o),
(230,215,o),
(318,226,c),
(318,91,l),
(274,62,o),
(219,41,o),
(178,41,c)
);
},
{
closed = 1;
nodes = (
(378,570,l),
(378,633,l),
(97,633,l),
(97,570,l,{
name = hr00;
})
);
}
);
};
layerId = master01;
shapes = (
{
ref = a;
},
{
pos = (37,0);
ref = macroncomb;
}
);
width = 496;
}
);
unicode = 257;
},
{
glyphname = aogonek;
kernLeft = a;
lastChange = "2023-02-24 11:18:27 +0000";
layers = (
{
background = {
shapes = (
{
closed = 1;
nodes = (
(181,-12,o),
(243,12,o),
(320,52,c),
(326,11,o),
(356,-12,o),
(400,-12,cs),
(422,-12,o),
(448,-4,o),
(471,9,c),
(471,18,o),
(467,29,o),
(462,34,c),
(450,32,o),
(440,31,o),
(432,31,cs),
(402,31,o),
(389,42,o),
(389,67,cs),
(389,322,ls),
(389,415,o),
(334,468,o),
(237,468,c),
(187,458,o),
(125,435,o),
(64,406,c),
(67,379,o),
(88,348,o),
(103,348,cs),
(124,348,o),
(163,379,o),
(209,430,c),
(274,430,o),
(318,385,o),
(318,319,cs),
(318,319,o),
(318,319,o),
(318,259,c),
(118,245,o),
(50,175,o),
(50,102,cs),
(50,41,o),
(90,-12,o),
(157,-12,c,{
name = hr00;
})
);
},
{
closed = 1;
nodes = (
(139,41,o),
(122,75,o),
(122,114,cs),
(122,128,o),
(126,147,o),
(131,160,c),
(164,189,o),
(230,215,o),
(318,226,c),
(318,91,l),
(274,62,o),
(219,41,o),
(178,41,c)
);
},
{
closed = 1;
nodes = (
(290,-29,o),
(255,-90,o),
(255,-141,cs),
(255,-191,o),
(291,-233,o),
(358,-233,cs),
(397,-233,o),
(426,-218,o),
(444,-202,c),
(441,-188,o),
(436,-180,o),
(427,-172,c),
(411,-183,o),
(391,-189,o),
(372,-189,cs),
(342,-189,o),
(315,-173,o),
(315,-134,cs),
(315,-85,o),
(353,-18,o),
(446,7,c),
(367,7,l,{
name = hr00;
})
);
}
);
};
layerId = master01;
shapes = (
{
ref = a;
},
{
pos = (120,0);
ref = ogonekcomb;
}
);
width = 496;
}
);
unicode = 261;
},
{
glyphname = aring;
kernLeft = a;
lastChange = "2023-02-24 11:18:27 +0000";
layers = (
{
background = {
shapes = (
{
closed = 1;
nodes = (
(181,-12,o),
(243,12,o),
(320,52,c),
(326,11,o),
(356,-12,o),
(400,-12,cs),
(422,-12,o),
(448,-4,o),
(471,9,c),
(471,18,o),
(467,29,o),
(462,34,c),
(450,32,o),
(440,31,o),
(432,31,cs),
(402,31,o),
(389,42,o),
(389,67,cs),
(389,322,ls),
(389,415,o),
(334,468,o),
(237,468,c),
(187,458,o),
(125,435,o),
(64,406,c),
(67,379,o),
(88,348,o),
(103,348,cs),
(124,348,o),
(163,379,o),
(209,430,c),
(274,430,o),
(318,385,o),
(318,319,cs),
(318,319,o),
(318,319,o),
(318,259,c),
(118,245,o),
(50,175,o),
(50,102,cs),
(50,41,o),
(90,-12,o),
(157,-12,c,{
name = hr00;
})
);
},
{
closed = 1;
nodes = (
(139,41,o),
(122,75,o),
(122,114,cs),
(122,128,o),
(126,147,o),
(131,160,c),
(164,189,o),
(230,215,o),
(318,226,c),
(318,91,l),
(274,62,o),
(219,41,o),
(178,41,c)
);
},
{
closed = 1;
nodes = (
(338,663,o),
(297,691,o),
(247,691,cs),
(196,691,o),
(153,660,o),
(153,604,cs),
(153,544,o),
(192,515,o),
(243,515,cs),
(299,515,o),
(338,544,o),
(338,606,cs,{
name = hr00;
})
);
},
{
closed = 1;
nodes = (
(199,626,o),
(206,647,o),
(219,653,c),
(225,656,o),
(236,658,o),
(246,658,cs),
(272,658,o),
(292,639,o),
(292,604,cs),
(292,565,o),
(272,548,o),
(246,548,cs),
(221,548,o),
(199,565,o),
(199,604,cs)
);
}
);
};
layerId = master01;
shapes = (
{
ref = a;
},
{
pos = (105,0);
ref = ringcomb;
}
);
width = 496;
}
);
unicode = 229;
},
{
glyphname = aringacute;
kernLeft = a;
lastChange = "2023-02-24 11:18:27 +0000";
layers = (
{
background = {
shapes = (
{
closed = 1;
nodes = (
(181,-12,o),
(243,12,o),
(320,52,c),
(326,11,o),
(356,-12,o),
(400,-12,cs),
(422,-12,o),
(448,-4,o),
(471,9,c),
(471,18,o),
(467,29,o),
(462,34,c),
(450,32,o),
(440,31,o),
(432,31,cs),
(402,31,o),
(389,42,o),
(389,67,cs),
(389,322,ls),
(389,415,o),
(334,468,o),
(237,468,c),
(187,458,o),
(125,435,o),
(64,406,c),
(67,379,o),
(88,348,o),
(103,348,cs),
(124,348,o),
(163,379,o),
(209,430,c),
(274,430,o),
(318,385,o),
(318,319,cs),
(318,319,o),
(318,319,o),
(318,259,c),
(118,245,o),
(50,175,o),
(50,102,cs),
(50,41,o),
(90,-12,o),
(157,-12,c,{
name = hr00;
})
);
},
{
closed = 1;
nodes = (
(139,41,o),
(122,75,o),
(122,114,cs),
(122,128,o),
(126,147,o),
(131,160,c),
(164,189,o),
(230,215,o),
(318,226,c),
(318,91,l),
(274,62,o),
(219,41,o),
(178,41,c)
);
},
{
closed = 1;
nodes = (
(340,663,o),
(299,691,o),
(249,691,cs),
(198,691,o),
(155,660,o),
(155,604,cs),
(155,544,o),
(194,515,o),
(245,515,cs),
(301,515,o),
(340,544,o),
(340,606,cs,{
name = hr00;
})
);
},
{
closed = 1;
nodes = (
(201,626,o),
(208,647,o),
(221,653,c),
(227,656,o),
(238,658,o),
(248,658,cs),
(274,658,o),
(294,639,o),
(294,604,cs),
(294,565,o),
(274,548,o),
(248,548,cs),
(223,548,o),
(201,565,o),
(201,604,cs)
);
},
{
closed = 1;
nodes = (
(252,667,o),
(336,692,o),
(393,729,cs),
(396,731,o),
(397,735,o),
(397,739,cs),
(397,756,o),
(380,791,o),
(376,796,c),
(295,731,o),
(213,674,o),
(213,674,c),
(222,658,l,{
name = hr00;
})
);
}
);
};
layerId = master01;
shapes = (
{
closed = 1;
nodes = (
(301,515,o),
(340,544,o),
(340,606,cs,{
name = hr00;
}),
(340,663,o),
(299,691,o),
(249,691,cs),
(198,691,o),
(155,660,o),
(155,604,cs),
(155,544,o),
(194,515,o),
(245,515,cs)
);
},
{
ref = a;
},
{
closed = 1;
nodes = (
(223,548,o),
(201,565,o),
(201,604,cs),
(201,626,o),
(208,647,o),
(221,653,c),
(227,656,o),
(238,658,o),
(248,658,cs),
(274,658,o),
(294,639,o),
(294,604,cs),
(294,565,o),
(274,548,o),
(248,548,cs)
);
},
{
closed = 1;
nodes = (
(252,667,o),
(336,692,o),
(393,729,cs),
(396,731,o),
(397,735,o),
(397,739,cs),
(397,756,o),
(380,791,o),
(376,796,c),
(295,731,o),
(213,674,o),
(213,674,c),
(222,658,l,{
name = hr00;
})
);
}
);
width = 496;
}
);
unicode = 507;
},
{
glyphname = atilde;
kernLeft = a;
lastChange = "2023-02-24 11:18:27 +0000";
layers = (
{
background = {
shapes = (
{
closed = 1;
nodes = (
(181,-12,o),
(243,12,o),
(320,52,c),
(326,11,o),
(356,-12,o),
(400,-12,cs),
(422,-12,o),
(448,-4,o),
(471,9,c),
(471,18,o),
(467,29,o),
(462,34,c),
(450,32,o),
(440,31,o),
(432,31,cs),
(402,31,o),
(389,42,o),
(389,67,cs),
(389,322,ls),
(389,415,o),
(334,468,o),
(237,468,c),
(187,458,o),
(125,435,o),
(64,406,c),
(67,379,o),
(88,348,o),
(103,348,cs),
(124,348,o),
(163,379,o),
(209,430,c),
(274,430,o),
(318,385,o),
(318,319,cs),
(318,319,o),
(318,319,o),
(318,259,c),
(118,245,o),
(50,175,o),
(50,102,cs),
(50,41,o),
(90,-12,o),
(157,-12,c,{
name = hr00;
})
);
},
{
closed = 1;
nodes = (
(139,41,o),
(122,75,o),
(122,114,cs),
(122,128,o),
(126,147,o),
(131,160,c),
(164,189,o),
(230,215,o),
(318,226,c),
(318,91,l),
(274,62,o),
(219,41,o),
(178,41,c)
);
},
{
closed = 1;
nodes = (
(367,632,o),
(347,621,o),
(325,621,cs),
(278,621,o),
(237,648,o),
(189,648,cs,{
name = hr01;
}),
(156,648,o),
(122,632,o),
(88,573,c),
(105,554,l),
(125,573,o),
(145,584,o),
(167,584,cs),
(214,584,o),
(255,557,o),
(303,557,cs,{
name = hr02;
}),
(336,557,o),
(370,573,o),
(404,632,c),
(387,651,l)
);
}
);
};
layerId = master01;
shapes = (
{
ref = a;
},
{
pos = (40,0);
ref = tildecomb;
}
);
width = 496;
}
);
unicode = 227;
},
{
glyphname = ae;
kernLeft = a;
lastChange = "2023-02-24 11:18:27 +0000";
layers = (
{
anchors = (
{
name = bottom;
pos = (366,0);
},
{
name = top;
pos = (376,456);
}
);
background = {
shapes = (
{
closed = 1;
nodes = (
(277,430,o),
(318,382,o),
(318,319,cs),
(318,261,l),
(123,257,o),
(50,175,o),
(50,102,cs),
(50,45,o),
(86,-12,o),
(153,-12,cs),
(194,-12,o),
(256,-1,o),
(353,66,c),
(392,13,o),
(454,-12,o),
(528,-12,cs),
(573,-12,o),
(623,-4,o),
(677,31,c),
(674,45,o),
(669,53,o),
(660,61,c),
(619,44,o),
(580,36,o),
(545,36,cs),
(452,36,o),
(389,91,o),
(389,224,c),
(506,221,o),
(604,227,o),
(706,245,c),
(706,359,o),
(664,468,o),
(551,468,cs),
(477,468,o),
(416,442,o),
(374,395,c),
(358,428,o),
(329,453,o),
(285,463,cs),
(270,466,o),
(255,468,o),
(237,468,c),
(144,450,o),
(64,406,o),
(64,406,c),
(66,390,o),
(81,348,o),
(103,348,cs),
(136,348,o),
(189,407,o),
(209,430,c,{
name = hr00;
})
);
},
{
closed = 1;
nodes = (
(275,62,o),
(226,44,o),
(187,44,cs),
(142,44,o),
(126,81,o),
(126,120,cs),
(126,133,o),
(128,148,o),
(131,160,c),
(164,189,o),
(230,213,o),
(318,224,c),
(318,91,l)
);
},
{
closed = 1;
nodes = (
(492,419,o),
(508,420,o),
(523,420,cs),
(591,420,o),
(625,380,o),
(625,317,cs),
(625,306,o),
(624,295,o),
(622,283,c),
(546,269,o),
(469,263,o),
(392,262,c),
(402,334,o),
(432,386,o),
(475,415,c)
);
}
);
};
layerId = master01;
shapes = (
{
closed = 1;
nodes = (
(194,-12,o),
(256,-1,o),
(353,66,c),
(392,13,o),
(454,-12,o),
(528,-12,cs),
(573,-12,o),
(623,-4,o),
(677,31,c),
(674,45,o),
(669,53,o),
(660,61,c),
(619,44,o),
(580,36,o),
(545,36,cs),
(452,36,o),
(389,91,o),
(389,224,c),
(506,221,o),
(604,227,o),
(706,245,c),
(706,359,o),
(664,468,o),
(551,468,cs),
(477,468,o),
(416,442,o),
(374,395,c),
(358,428,o),
(329,453,o),
(285,463,cs),
(270,466,o),
(255,468,o),
(237,468,c),
(144,450,o),
(64,406,o),
(64,406,c),
(66,390,o),
(81,348,o),
(103,348,cs),
(136,348,o),
(189,407,o),
(209,430,c,{
name = hr00;
}),
(277,430,o),
(318,382,o),
(318,319,cs),
(318,261,l),
(123,257,o),
(50,175,o),
(50,102,cs),
(50,45,o),
(86,-12,o),
(153,-12,cs)
);
},
{
closed = 1;
nodes = (
(142,44,o),
(126,81,o),
(126,120,cs),
(126,133,o),
(128,148,o),
(131,160,c),
(164,189,o),
(230,213,o),
(318,224,c),
(318,91,l),
(275,62,o),
(226,44,o),
(187,44,cs)
);
},
{
closed = 1;
nodes = (
(402,334,o),
(432,386,o),
(475,415,c),
(492,419,o),
(508,420,o),
(523,420,cs),
(591,420,o),
(625,380,o),
(625,317,cs),
(625,306,o),
(624,295,o),
(622,283,c),
(546,269,o),
(469,263,o),
(392,262,c)
);
}
);
width = 731;
}
);
unicode = 230;
},
{
glyphname = aeacute;
kernLeft = a;
lastChange = "2023-02-24 11:18:27 +0000";
layers = (
{
background = {
shapes = (
{
closed = 1;
nodes = (
(277,430,o),
(318,382,o),
(318,319,cs),
(318,261,l),
(123,257,o),
(50,175,o),
(50,102,cs),
(50,45,o),
(86,-12,o),
(153,-12,cs),
(194,-12,o),
(256,-1,o),
(353,66,c),
(392,13,o),
(454,-12,o),
(528,-12,cs),
(573,-12,o),
(623,-4,o),
(677,31,c),
(674,45,o),
(669,53,o),
(660,61,c),
(619,44,o),
(580,36,o),
(545,36,cs),
(452,36,o),
(389,91,o),
(389,224,c),
(506,221,o),
(604,227,o),
(706,245,c),
(706,359,o),
(664,468,o),
(551,468,cs),
(477,468,o),
(416,442,o),
(374,395,c),
(358,428,o),
(329,453,o),
(285,463,cs),
(270,466,o),
(255,468,o),
(237,468,c),
(144,450,o),
(64,406,o),
(64,406,c),
(66,390,o),
(81,348,o),
(103,348,cs),
(136,348,o),
(189,407,o),
(209,430,c,{
name = hr00;
})
);
},
{
closed = 1;
nodes = (
(275,62,o),
(226,44,o),
(187,44,cs),
(142,44,o),
(126,81,o),
(126,120,cs),
(126,133,o),
(128,148,o),
(131,160,c),
(164,189,o),
(230,213,o),
(318,224,c),
(318,91,l)
);
},
{
closed = 1;
nodes = (
(492,419,o),
(508,420,o),
(523,420,cs),
(591,420,o),
(625,380,o),
(625,317,cs),
(625,306,o),
(624,295,o),
(622,283,c),
(546,269,o),
(469,263,o),
(392,262,c),
(402,334,o),
(432,386,o),
(475,415,c)
);
},
{
closed = 1;
nodes = (
(314,528,o),
(412,558,o),
(479,601,cs),
(483,603,o),
(484,608,o),
(484,613,cs),
(484,633,o),
(464,674,o),
(459,680,c),
(364,603,o),
(267,537,o),
(267,537,c),
(278,518,l,{
name = hr00;
})
);
}
);
};
layerId = master01;
shapes = (
{
ref = ae;
},
{
pos = (217,0);
ref = acutecomb;
}
);
width = 731;
}
);
unicode = 509;
},
{
glyphname = b;
kernLeft = h;
lastChange = "2023-02-24 13:28:20 +0000";
layers = (
{
anchors = (
{
name = bottom;
pos = (260,0);
},
{
name = center;
pos = (260,228);
},
{
name = top;
pos = (260,456);
}
);
background = {
shapes = (
{
closed = 1;
nodes = (
(402,-12,o),
(479,75,o),
(479,228,cs),
(479,374,o),
(403,462,o),
(277,462,c),
(237,448,o),
(177,417,o),
(143,393,c),
(140,395,l),
(143,734,ls),
(143,745,o),
(137,756,o),
(127,762,c),
(116,762,o),
(-15,743,o),
(-15,741,cs),
(-15,719,o),
(-9,704,o),
(-1,704,cs),
(72,704,l),
(72,0,l),
(106,0,l),
(120,19,l),
(168,-1,o),
(220,-12,o),
(268,-12,c,{
name = hr00;
})
);
},
{
closed = 1;
nodes = (
(353,409,o),
(401,340,o),
(401,226,cs),
(401,98,o),
(350,32,o),
(252,32,cs),
(219,32,o),
(181,39,o),
(143,52,c),
(143,294,ls),
(143,316,o),
(148,337,o),
(162,371,c),
(199,396,o),
(239,409,o),
(273,409,cs)
);
}
);
};
layerId = master01;
shapes = (
{
closed = 1;
nodes = (
(402,-12,o),
(479,75,o),
(479,228,cs),
(479,374,o),
(403,462,o),
(277,462,c),
(237,448,o),
(177,417,o),
(143,393,c),
(140,395,l),
(143,734,ls),
(143,745,o),
(137,756,o),
(127,762,c),
(116,762,o),
(-15,743,o),
(-15,741,cs),
(-15,719,o),
(-9,704,o),
(-1,704,cs),
(72,704,l),
(72,0,l),
(106,0,l),
(120,19,l),
(168,-1,o),
(220,-12,o),
(268,-12,cs,{
name = hr00;
})
);
},
{
closed = 1;
nodes = (
(219,32,o),
(181,39,o),
(143,52,c),
(143,294,ls),
(143,316,o),
(148,337,o),
(162,371,c),
(199,396,o),
(239,409,o),
(273,409,cs),
(353,409,o),
(401,340,o),
(401,226,cs),
(401,98,o),
(350,32,o),
(252,32,cs)
);
}
);
width = 519;
}
);
unicode = 98;
},
{
glyphname = c;
kernLeft = c;
lastChange = "2023-02-24 11:18:47 +0000";
layers = (
{
anchors = (
{
name = bottom;
pos = (230,0);
},
{
name = top;
pos = (248,456);
}
);
background = {
shapes = (
{
closed = 1;
nodes = (
(311,-12,o),
(359,3,o),
(403,31,c),
(399,44,o),
(395,52,o),
(385,61,c),
(344,44,o),
(311,36,o),
(276,36,cs),
(178,36,o),
(118,110,o),
(118,231,cs),
(118,338,o),
(164,407,o),
(253,435,c),
(287,405,o),
(344,372,o),
(360,372,cs),
(376,372,o),
(397,407,o),
(397,435,c),
(359,450,o),
(304,465,o),
(268,468,c),
(136,468,o),
(40,368,o),
(40,230,cs),
(40,80,o),
(125,-12,o),
(263,-12,c,{
name = hr00;
})
);
}
);
};
layerId = master01;
shapes = (
{
closed = 1;
nodes = (
(311,-12,o),
(359,3,o),
(403,31,c),
(399,44,o),
(395,52,o),
(385,61,c),
(344,44,o),
(311,36,o),
(276,36,cs),
(178,36,o),
(118,110,o),
(118,231,cs),
(118,338,o),
(164,407,o),
(253,435,c),
(287,405,o),
(344,372,o),
(360,372,cs),
(376,372,o),
(397,407,o),
(397,435,c),
(359,450,o),
(304,465,o),
(268,468,c),
(136,468,o),
(40,368,o),
(40,230,cs),
(40,80,o),
(125,-12,o),
(263,-12,cs,{
name = hr00;
})
);
}
);
width = 435;
}
);
unicode = 99;
},
{
glyphname = cacute;
kernLeft = c;
lastChange = "2023-02-24 11:18:47 +0000";
layers = (
{
background = {
shapes = (
{
closed = 1;
nodes = (
(311,-12,o),
(359,3,o),
(403,31,c),
(399,44,o),
(395,52,o),
(385,61,c),
(344,44,o),
(311,36,o),
(276,36,cs),
(178,36,o),
(118,110,o),
(118,231,cs),
(118,338,o),
(164,407,o),
(253,435,c),
(287,405,o),
(344,372,o),
(360,372,cs),
(376,372,o),
(397,407,o),
(397,435,c),
(359,450,o),
(304,465,o),
(268,468,c),
(136,468,o),
(40,368,o),
(40,230,cs),
(40,80,o),
(125,-12,o),
(263,-12,c,{
name = hr00;
})
);
},
{
closed = 1;
nodes = (
(186,528,o),
(284,558,o),
(351,601,cs),
(355,603,o),
(356,608,o),
(356,613,cs),
(356,633,o),
(336,674,o),
(331,680,c),
(236,603,o),
(139,537,o),
(139,537,c),
(150,518,l,{
name = hr00;
})
);
}
);
};
layerId = master01;
shapes = (
{
ref = c;
},
{
pos = (89,0);
ref = acutecomb;
}
);
width = 435;
}
);
unicode = 263;
},
{
glyphname = ccaron;
kernLeft = c;
lastChange = "2023-02-24 11:18:47 +0000";
layers = (
{
background = {
shapes = (
{
closed = 1;
nodes = (
(311,-12,o),
(359,3,o),
(403,31,c),
(399,44,o),
(395,52,o),
(385,61,c),
(344,44,o),
(311,36,o),
(276,36,cs),
(178,36,o),
(118,110,o),
(118,231,cs),
(118,338,o),
(164,407,o),
(253,435,c),
(287,405,o),
(344,372,o),
(360,372,cs),
(376,372,o),
(397,407,o),
(397,435,c),
(359,450,o),
(304,465,o),
(268,468,c),
(136,468,o),
(40,368,o),
(40,230,cs),
(40,80,o),
(125,-12,o),
(263,-12,c,{
name = hr00;
})
);
},
{
closed = 1;
nodes = (
(152,685,l),
(125,668,l),
(165,605,o),
(195,552,o),
(214,509,c),
(259,509,l),
(285,552,o),
(322,605,o),
(370,668,c),
(345,685,l),
(242,583,l,{
name = hr00;
})
);
}
);
};
layerId = master01;
shapes = (
{
ref = c;
},
{
pos = (76,0);
ref = caroncomb;
}
);
width = 435;
}
);
unicode = 269;
},
{
glyphname = ccedilla;
kernLeft = c;
lastChange = "2023-02-24 11:18:47 +0000";
layers = (
{
background = {
shapes = (
{
closed = 1;
nodes = (
(311,-12,o),
(359,3,o),
(403,31,c),
(399,44,o),
(395,52,o),
(385,61,c),
(344,44,o),
(311,36,o),
(276,36,cs),
(178,36,o),
(118,110,o),
(118,231,cs),
(118,338,o),
(164,407,o),
(253,435,c),
(287,405,o),
(344,372,o),
(360,372,cs),
(376,372,o),
(397,407,o),
(397,435,c),
(359,450,o),
(304,465,o),
(268,468,c),
(136,468,o),
(40,368,o),
(40,230,cs),
(40,80,o),
(125,-12,o),
(263,-12,c,{
name = hr00;
})
);
},
{
closed = 1;
nodes = (
(238,-85,o),
(261,-114,o),
(261,-142,cs),
(261,-167,o),
(242,-191,o),
(209,-191,cs),
(190,-191,o),
(169,-184,o),
(154,-172,c),
(135,-202,l),
(153,-218,o),
(182,-233,o),
(221,-233,cs),
(284,-233,o),
(324,-186,o),
(324,-141,cs),
(324,-102,o),
(297,-64,o),
(234,-56,c),
(257,15,l),
(225,15,l),
(185,-83,l,{
name = hr00;
})
);
}
);
};
layerId = master01;
shapes = (
{
ref = c;
},
{
pos = (25,0);
ref = cedillacomb;
}
);
width = 435;
}
);
unicode = 231;
},
{
glyphname = ccircumflex;
kernLeft = c;
lastChange = "2023-02-24 11:18:47 +0000";
layers = (
{
background = {
shapes = (
{
closed = 1;
nodes = (
(311,-12,o),
(359,3,o),
(403,31,c),
(399,44,o),
(395,52,o),
(385,61,c),
(344,44,o),
(311,36,o),
(276,36,cs),
(178,36,o),
(118,110,o),
(118,231,cs),
(118,338,o),
(164,407,o),
(253,435,c),
(287,405,o),
(344,372,o),
(360,372,cs),
(376,372,o),
(397,407,o),
(397,435,c),
(359,450,o),
(304,465,o),
(268,468,c),
(136,468,o),
(40,368,o),
(40,230,cs),
(40,80,o),
(125,-12,o),
(263,-12,c,{
name = hr00;
})
);
},
{
closed = 1;
nodes = (
(344,509,l),
(370,526,l),
(326,589,o),
(293,642,o),
(270,685,c),
(225,685,l),
(202,642,o),
(169,589,o),
(125,526,c),
(151,509,l),
(248,611,l,{
name = hr00;
})
);
}
);
};
layerId = master01;
shapes = (
{
ref = c;
},
{
pos = (80,0);
ref = circumflexcomb;
}
);
width = 435;
}
);
unicode = 265;
},
{
glyphname = cdotaccent;
kernLeft = c;
lastChange = "2023-02-24 11:18:47 +0000";
layers = (
{
background = {
shapes = (
{
closed = 1;
nodes = (
(311,-12,o),
(359,3,o),
(403,31,c),
(399,44,o),
(395,52,o),
(385,61,c),
(344,44,o),
(311,36,o),
(276,36,cs),
(178,36,o),
(118,110,o),
(118,231,cs),
(118,338,o),
(164,407,o),
(253,435,c),
(287,405,o),
(344,372,o),
(360,372,cs),
(376,372,o),
(397,407,o),
(397,435,c),
(359,450,o),
(304,465,o),
(268,468,c),
(136,468,o),
(40,368,o),
(40,230,cs),
(40,80,o),
(125,-12,o),
(263,-12,c,{
name = hr00;
})
);
},
{
closed = 1;
nodes = (
(241,662,o),
(209,655,o),
(209,655,c),
(209,655,o),
(201,625,o),
(201,596,cs),
(201,569,o),
(208,541,o),
(236,541,cs),
(256,541,o),
(287,550,o),
(287,550,c),
(287,550,o),
(294,579,o),
(294,606,cs),
(294,635,o),
(285,662,o),
(260,662,cs,{
name = hr00;
})
);
}
);
};
layerId = master01;
shapes = (
{
ref = c;
},
{
pos = (139,0);
ref = dotaccentcomb;
}
);
width = 435;
}
);
unicode = 267;
},
{
glyphname = d;
kernLeft = c;
lastChange = "2023-02-24 11:18:47 +0000";
layers = (
{
anchors = (
{
name = bottom;
pos = (276,0);
},
{
name = center;
pos = (276,228);
},
{
name = top;
pos = (276,958);
},
{
name = topright;
pos = (650,701);
}
);
background = {
shapes = (
{
closed = 1;
nodes = (
(291,3,o),
(349,30,o),
(383,52,c),
(390,11,o),
(419,-12,o),
(463,-12,cs),
(486,-12,o),
(512,-4,o),
(534,9,c),
(534,19,o),
(530,29,o),
(525,34,c),
(513,32,o),
(503,31,o),
(495,31,cs),
(465,31,o),
(452,42,o),
(452,67,cs),
(452,734,ls),
(452,745,o),
(446,756,o),
(436,762,c),
(425,762,o),
(296,743,o),
(296,741,cs),
(296,719,o),
(302,704,o),
(310,704,cs),
(381,704,l),
(381,433,l),
(334,452,o),
(289,462,o),
(248,462,cs),
(118,462,o),
(40,374,o),
(40,228,cs),
(40,82,o),
(122,-12,o),
(250,-12,c)
);
},
{
closed = 1;
nodes = (
(169,48,o),
(118,117,o),
(118,230,cs),
(118,355,o),
(166,417,o),
(262,417,cs),
(294,417,o),
(331,410,o),
(381,395,c),
(381,93,l,{
name = hr01;
}),
(338,65,o),
(288,48,o),
(251,48,c)
);
}
);
};
layerId = master01;
shapes = (
{
closed = 1;
nodes = (
(291,3,o),
(349,30,o),
(383,52,c),
(390,11,o),
(419,-12,o),
(463,-12,cs),
(486,-12,o),
(512,-4,o),
(534,9,c),
(534,19,o),
(530,29,o),
(525,34,c),
(513,32,o),
(503,31,o),
(495,31,cs),
(465,31,o),
(452,42,o),
(452,67,cs),
(452,734,ls),
(452,745,o),
(446,756,o),
(436,762,c),
(425,762,o),
(296,743,o),
(296,741,cs),
(296,719,o),
(302,704,o),
(310,704,cs),
(381,704,l),
(381,433,l),
(334,452,o),
(289,462,o),
(248,462,cs),
(118,462,o),
(40,374,o),
(40,228,cs),
(40,82,o),
(122,-12,o),
(250,-12,c)
);
},
{
closed = 1;
nodes = (
(169,48,o),
(118,117,o),
(118,230,cs),
(118,355,o),
(166,417,o),
(262,417,cs),
(294,417,o),
(331,410,o),
(381,395,c),
(381,93,l,{
name = hr01;
}),
(338,65,o),
(288,48,o),
(251,48,cs)
);
}
);
width = 552;
}
);
unicode = 100;
},
{
glyphname = eth;
kernLeft = c;
lastChange = "2023-02-24 11:18:47 +0000";
layers = (
{
anchors = (
{
name = bottom;
pos = (261,0);
},
{
name = top;
pos = (261,958);
}
);
background = {
shapes = (
{
closed = 1;
nodes = (
(263,576,l),
(304,536,o),
(338,491,o),
(364,441,c),
(336,459,o),
(303,468,o),
(265,468,cs),
(141,468,o),
(40,385,o),
(40,230,cs),
(40,68,o),
(132,-12,o),
(254,-12,cs),
(386,-12,o),
(482,69,o),
(482,236,cs),
(482,391,o),
(404,513,o),
(310,602,c),
(409,659,l),
(390,695,l),
(273,635,l),
(225,675,o),
(175,707,o),
(131,731,c),
(109,693,l),
(149,669,o),
(188,642,o),
(225,611,c),
(136,566,l),
(161,518,l,{
name = hr00;
})
);
},
{
closed = 1;
nodes = (
(118,311,o),
(140,379,o),
(178,409,c),
(199,418,o),
(234,424,o),
(263,424,cs),
(345,424,o),
(405,360,o),
(405,231,cs),
(405,97,o),
(345,32,o),
(263,32,cs),
(181,32,o),
(118,97,o),
(118,231,cs)
);
}
);
};
layerId = master01;
shapes = (
{
closed = 1;
nodes = (
(386,-12,o),
(482,69,o),
(482,236,cs),
(482,391,o),
(404,513,o),
(310,602,c),
(409,659,l),
(390,695,l),
(273,635,l),
(225,675,o),
(175,707,o),
(131,731,c),
(109,693,l),
(149,669,o),
(188,642,o),
(225,611,c),
(136,566,l),
(161,518,l,{
name = hr00;
}),
(263,576,l),
(304,536,o),
(338,491,o),
(364,441,c),
(336,459,o),
(303,468,o),
(265,468,cs),
(141,468,o),
(40,385,o),
(40,230,cs),
(40,68,o),
(132,-12,o),
(254,-12,cs)
);
},
{
closed = 1;
nodes = (
(181,32,o),
(118,97,o),
(118,231,cs),
(118,311,o),
(140,379,o),
(178,409,c),
(199,418,o),
(234,424,o),
(263,424,cs),
(345,424,o),
(405,360,o),
(405,231,cs),
(405,97,o),
(345,32,o),
(263,32,cs)
);
}
);
width = 522;
}
);
unicode = 240;
},
{
glyphname = dcaron;
kernLeft = c;
kernRight = dcaron;
lastChange = "2023-02-24 13:28:32 +0000";
layers = (
{
background = {
shapes = (
{
closed = 1;
nodes = (
(291,3,o),
(349,30,o),
(383,52,c),
(390,11,o),
(419,-12,o),
(463,-12,cs),
(486,-12,o),
(512,-4,o),
(534,9,c),
(534,19,o),
(530,29,o),
(525,34,c),
(513,32,o),
(503,31,o),
(495,31,cs),
(465,31,o),
(452,42,o),
(452,67,cs),
(452,734,ls),
(452,745,o),
(446,756,o),
(436,762,c),
(425,762,o),
(296,743,o),
(296,741,cs),
(296,719,o),
(302,704,o),
(310,704,cs),
(381,704,l),
(381,433,l),
(334,452,o),
(289,462,o),
(248,462,cs),
(118,462,o),
(40,374,o),
(40,228,cs),
(40,82,o),
(122,-12,o),
(250,-12,c)
);
},
{
closed = 1;
nodes = (
(169,48,o),
(118,117,o),
(118,230,cs),
(118,355,o),
(166,417,o),
(262,417,cs),
(294,417,o),
(331,410,o),
(381,395,c),
(381,93,l,{
name = hr01;
}),
(338,65,o),
(288,48,o),
(251,48,c)
);
},
{
closed = 1;
nodes = (
(599,534,o),
(646,593,o),
(646,660,cs),
(646,724,o),
(627,769,o),
(600,769,cs),
(582,769,o),
(559,766,o),
(541,762,c),
(536,738,o),
(533,716,o),
(533,697,cs),
(533,657,o),
(545,637,o),
(570,637,cs),
(576,637,o),
(579,637,o),
(586,638,c),
(586,633,ls),
(586,593,o),
(562,560,o),
(522,542,c),
(534,512,l,{
name = hr00;
})
);
}
);
};
layerId = master01;
shapes = (
{
ref = d;
},
{
pos = (476,0);
ref = caroncomb.alt;
}
);
width = 552;
}
);
unicode = 271;
},
{
glyphname = dcroat;
kernLeft = c;
lastChange = "2023-02-24 11:18:47 +0000";
layers = (
{
background = {
shapes = (
{
closed = 1;
nodes = (
(186,612,l),
(186,569,l),
(522,554,l),
(522,612,l)
);
},
{
closed = 1;
nodes = (
(291,3,o),
(349,30,o),
(383,52,c),
(390,11,o),
(419,-12,o),
(463,-12,cs),
(486,-12,o),
(512,-4,o),
(534,9,c),
(534,19,o),
(530,29,o),
(525,34,c),
(513,32,o),
(503,31,o),
(495,31,cs),
(465,31,o),
(452,42,o),
(452,67,cs),
(452,734,ls),
(452,745,o),
(446,756,o),
(436,762,c),
(425,762,o),
(296,743,o),
(296,741,cs),
(296,719,o),
(302,704,o),
(310,704,cs),
(381,704,l),
(381,433,l),
(334,452,o),
(289,462,o),
(248,462,cs),
(118,462,o),
(40,374,o),
(40,228,cs),
(40,82,o),
(122,-12,o),
(250,-12,c)
);
},
{
closed = 1;
nodes = (
(169,48,o),
(118,117,o),
(118,230,cs),
(118,355,o),
(166,417,o),
(262,417,cs),
(294,417,o),
(331,410,o),
(381,395,c),
(381,93,l,{
name = hr01;
}),
(338,65,o),
(288,48,o),
(251,48,c)
);
}
);
};
layerId = master01;
shapes = (
{
closed = 1;
nodes = (
(522,612,l),
(186,612,l),
(186,569,l),
(522,554,l)
);
},
{
ref = d;
}
);
width = 552;
}
);
unicode = 273;
},
{
glyphname = e;
kernLeft = c;
lastChange = "2023-02-24 11:18:47 +0000";
layers = (
{
anchors = (
{
name = bottom;
pos = (235,0);
},
{
name = ogonek;
pos = (354,7);
},
{
name = top;
pos = (248,456);
}
);
background = {
shapes = (
{
closed = 1;
nodes = (
(312,-12,o),
(378,9,o),
(417,38,c),
(414,51,o),
(409,59,o),
(400,68,c),
(358,47,o),
(315,36,o),
(273,36,cs),
(172,36,o),
(117,103,o),
(117,225,c),
(140,223,o),
(162,222,o),
(184,222,cs),
(269,222,o),
(348,229,o),
(434,245,c),
(434,383,o),
(375,468,o),
(279,468,cs),
(133,468,o),
(40,368,o),
(40,209,cs),
(40,72,o),
(122,-12,o),
(256,-12,c,{
name = hr00;
})
);
},
{
closed = 1;
nodes = (
(129,331,o),
(158,385,o),
(203,415,c),
(217,418,o),
(233,420,o),
(251,420,cs),
(316,420,o),
(353,383,o),
(353,317,cs),
(353,306,o),
(352,295,o),
(350,283,c),
(274,270,o),
(197,263,o),
(120,262,c)
);
}
);
};
layerId = master01;
shapes = (
{
closed = 1;
nodes = (
(312,-12,o),
(378,9,o),
(417,38,c),
(414,51,o),
(409,59,o),
(400,68,c),
(358,47,o),
(315,36,o),
(273,36,cs),
(172,36,o),
(117,103,o),
(117,225,c),
(140,223,o),
(162,222,o),
(184,222,cs),
(269,222,o),
(348,229,o),
(434,245,c),
(434,383,o),
(375,468,o),
(279,468,cs),
(133,468,o),
(40,368,o),
(40,209,cs),
(40,72,o),
(122,-12,o),
(256,-12,cs,{
name = hr00;
})
);
},
{
closed = 1;
nodes = (
(129,331,o),
(158,385,o),
(203,415,c),
(217,418,o),
(233,420,o),
(251,420,cs),
(316,420,o),
(353,383,o),
(353,317,cs),
(353,306,o),
(352,295,o),
(350,283,c),
(274,270,o),
(197,263,o),
(120,262,c)
);
}
);
width = 469;
}
);
unicode = 101;
},
{
glyphname = eacute;
kernLeft = c;
lastChange = "2023-02-24 11:18:47 +0000";
layers = (
{
background = {
shapes = (
{
closed = 1;
nodes = (
(312,-12,o),
(378,9,o),
(417,38,c),
(414,51,o),
(409,59,o),
(400,68,c),
(358,47,o),
(315,36,o),
(273,36,cs),
(172,36,o),
(117,103,o),
(117,225,c),
(140,223,o),
(162,222,o),
(184,222,cs),
(269,222,o),
(348,229,o),
(434,245,c),
(434,383,o),
(375,468,o),
(279,468,cs),
(133,468,o),
(40,368,o),
(40,209,cs),
(40,72,o),
(122,-12,o),
(256,-12,c,{
name = hr00;
})
);
},
{
closed = 1;
nodes = (
(129,331,o),
(158,385,o),
(203,415,c),
(217,418,o),
(233,420,o),
(251,420,cs),
(316,420,o),
(353,383,o),
(353,317,cs),
(353,306,o),
(352,295,o),
(350,283,c),
(274,270,o),
(197,263,o),
(120,262,c)
);
},
{
closed = 1;
nodes = (
(194,528,o),
(292,558,o),
(359,601,cs),
(363,603,o),
(364,608,o),
(364,613,cs),
(364,633,o),
(344,674,o),
(339,680,c),
(244,603,o),
(147,537,o),
(147,537,c),
(158,518,l,{
name = hr00;
})
);
}
);
};
layerId = master01;
shapes = (
{
ref = e;
},
{
pos = (89,0);
ref = acutecomb;
}
);
width = 469;
}
);
unicode = 233;
},
{
glyphname = ebreve;
kernLeft = c;
lastChange = "2023-02-24 11:18:47 +0000";
layers = (
{
background = {
shapes = (
{
closed = 1;
nodes = (
(312,-12,o),
(378,9,o),
(417,38,c),
(414,51,o),
(409,59,o),
(400,68,c),
(358,47,o),
(315,36,o),
(273,36,cs),
(172,36,o),
(117,103,o),
(117,225,c),
(140,223,o),
(162,222,o),
(184,222,cs),
(269,222,o),
(348,229,o),
(434,245,c),
(434,383,o),
(375,468,o),
(279,468,cs),
(133,468,o),
(40,368,o),
(40,209,cs),
(40,72,o),
(122,-12,o),
(256,-12,c,{
name = hr00;
})
);
},
{
closed = 1;
nodes = (
(129,331,o),
(158,385,o),
(203,415,c),
(217,418,o),
(233,420,o),
(251,420,cs),
(316,420,o),
(353,383,o),
(353,317,cs),
(353,306,o),
(352,295,o),
(350,283,c),
(274,270,o),
(197,263,o),
(120,262,c)
);
},
{
closed = 1;
nodes = (
(226,577,o),
(197,613,o),
(175,669,c),
(141,661,l),
(173,564,o),
(204,510,o),
(264,510,cs),
(324,510,o),
(355,564,o),
(387,661,c),
(353,669,l),
(331,613,o),
(302,577,o),
(264,577,cs,{
name = hr00;
})
);
}
);
};
layerId = master01;
shapes = (
{
ref = e;
},
{
pos = (82,0);
ref = brevecomb;
}
);
width = 469;
}
);
unicode = 277;
},
{
glyphname = ecaron;
kernLeft = c;
lastChange = "2023-02-24 11:18:47 +0000";
layers = (
{
background = {
shapes = (
{
closed = 1;
nodes = (
(312,-12,o),
(378,9,o),
(417,38,c),
(414,51,o),
(409,59,o),
(400,68,c),
(358,47,o),
(315,36,o),
(273,36,cs),
(172,36,o),
(117,103,o),
(117,225,c),
(140,223,o),
(162,222,o),
(184,222,cs),
(269,222,o),
(348,229,o),
(434,245,c),
(434,383,o),
(375,468,o),
(279,468,cs),
(133,468,o),
(40,368,o),
(40,209,cs),
(40,72,o),
(122,-12,o),
(256,-12,c,{
name = hr00;
})
);
},
{
closed = 1;
nodes = (
(129,331,o),
(158,385,o),
(203,415,c),
(217,418,o),
(233,420,o),
(251,420,cs),
(316,420,o),
(353,383,o),
(353,317,cs),
(353,306,o),
(352,295,o),
(350,283,c),
(274,270,o),
(197,263,o),
(120,262,c)
);
},
{
closed = 1;
nodes = (
(169,685,l),
(142,668,l),
(182,605,o),
(212,552,o),
(231,509,c),
(276,509,l),
(302,552,o),
(339,605,o),
(387,668,c),
(362,685,l),
(259,583,l,{
name = hr00;
})
);
}
);
};
layerId = master01;
shapes = (
{
ref = e;
},
{
pos = (76,0);
ref = caroncomb;
}
);
width = 469;
}
);
unicode = 283;
},
{
glyphname = ecircumflex;
kernLeft = c;
lastChange = "2023-02-24 11:18:47 +0000";
layers = (
{
background = {
shapes = (
{
closed = 1;
nodes = (
(312,-12,o),
(378,9,o),
(417,38,c),
(414,51,o),
(409,59,o),
(400,68,c),
(358,47,o),
(315,36,o),
(273,36,cs),
(172,36,o),
(117,103,o),
(117,225,c),
(140,223,o),
(162,222,o),
(184,222,cs),
(269,222,o),
(348,229,o),
(434,245,c),
(434,383,o),
(375,468,o),
(279,468,cs),
(133,468,o),
(40,368,o),
(40,209,cs),
(40,72,o),
(122,-12,o),
(256,-12,c,{
name = hr00;
})
);
},
{
closed = 1;
nodes = (
(129,331,o),
(158,385,o),
(203,415,c),
(217,418,o),
(233,420,o),
(251,420,cs),
(316,420,o),
(353,383,o),
(353,317,cs),
(353,306,o),
(352,295,o),
(350,283,c),
(274,270,o),
(197,263,o),
(120,262,c)
);
},
{
closed = 1;
nodes = (
(336,509,l),
(362,526,l),
(318,589,o),
(285,642,o),
(262,685,c),
(217,685,l),
(194,642,o),
(161,589,o),
(117,526,c),
(143,509,l),
(240,611,l,{
name = hr00;
})
);
}
);
};
layerId = master01;
shapes = (
{
ref = e;
},
{
pos = (80,0);
ref = circumflexcomb;
}
);
width = 469;
}
);
unicode = 234;
},
{
glyphname = edieresis;
kernLeft = c;
lastChange = "2023-02-24 11:18:47 +0000";
layers = (
{
background = {
shapes = (
{
closed = 1;
nodes = (
(312,-12,o),
(378,9,o),
(417,38,c),
(414,51,o),
(409,59,o),
(400,68,c),
(358,47,o),
(315,36,o),
(273,36,cs),
(172,36,o),
(117,103,o),
(117,225,c),
(140,223,o),
(162,222,o),
(184,222,cs),
(269,222,o),
(348,229,o),
(434,245,c),
(434,383,o),
(375,468,o),
(279,468,cs),
(133,468,o),
(40,368,o),
(40,209,cs),
(40,72,o),
(122,-12,o),
(256,-12,c,{
name = hr00;
})
);
},
{
closed = 1;
nodes = (
(129,331,o),
(158,385,o),
(203,415,c),
(217,418,o),
(233,420,o),
(251,420,cs),
(316,420,o),
(353,383,o),
(353,317,cs),
(353,306,o),
(352,295,o),
(350,283,c),
(274,270,o),
(197,263,o),
(120,262,c)
);
},
{
closed = 1;
nodes = (
(153,656,o),
(124,650,o),
(124,650,c),
(124,650,o),
(117,623,o),
(117,597,cs),
(117,572,o),
(123,547,o),
(148,547,cs),
(166,547,o),
(194,555,o),
(194,555,c),
(194,555,o),
(200,581,o),
(200,606,cs),
(200,632,o),
(192,656,o),
(170,656,cs,{
name = hr00;
})
);
},
{
closed = 1;
nodes = (
(321,656,o),
(292,650,o),
(292,650,c),
(292,650,o),
(285,623,o),
(285,597,cs),
(285,572,o),
(291,547,o),
(316,547,cs),
(334,547,o),
(362,555,o),
(362,555,c),
(362,555,o),
(368,581,o),
(368,606,cs),
(368,632,o),
(360,656,o),
(338,656,cs)
);
}
);
};
layerId = master01;
shapes = (
{
ref = e;
},
{
pos = (58,0);
ref = dieresiscomb;
}
);
width = 469;
}
);
unicode = 235;
},
{
glyphname = edotaccent;
kernLeft = c;
lastChange = "2023-02-24 11:18:47 +0000";
layers = (
{
background = {
shapes = (
{
closed = 1;
nodes = (
(312,-12,o),
(378,9,o),
(417,38,c),
(414,51,o),
(409,59,o),
(400,68,c),
(358,47,o),
(315,36,o),
(273,36,cs),
(172,36,o),
(117,103,o),
(117,225,c),
(140,223,o),
(162,222,o),
(184,222,cs),
(269,222,o),
(348,229,o),
(434,245,c),
(434,383,o),
(375,468,o),
(279,468,cs),
(133,468,o),
(40,368,o),
(40,209,cs),
(40,72,o),
(122,-12,o),
(256,-12,c,{
name = hr00;
})
);
},
{
closed = 1;
nodes = (
(129,331,o),
(158,385,o),
(203,415,c),
(217,418,o),
(233,420,o),
(251,420,cs),
(316,420,o),
(353,383,o),
(353,317,cs),
(353,306,o),
(352,295,o),
(350,283,c),
(274,270,o),
(197,263,o),
(120,262,c)
);
},
{
closed = 1;
nodes = (
(258,662,o),
(226,655,o),
(226,655,c),
(226,655,o),
(218,625,o),
(218,596,cs),
(218,569,o),
(225,541,o),
(253,541,cs),
(273,541,o),
(304,550,o),
(304,550,c),
(304,550,o),
(311,579,o),
(311,606,cs),
(311,635,o),
(302,662,o),
(277,662,cs,{
name = hr00;
})
);
}
);
};
layerId = master01;
shapes = (
{
ref = e;
},
{
pos = (139,0);
ref = dotaccentcomb;
}
);
width = 469;
}
);
unicode = 279;
},
{
glyphname = egrave;
kernLeft = c;
lastChange = "2023-02-24 11:18:47 +0000";
layers = (
{
background = {
shapes = (
{
closed = 1;
nodes = (
(312,-12,o),
(378,9,o),
(417,38,c),
(414,51,o),
(409,59,o),
(400,68,c),
(358,47,o),
(315,36,o),
(273,36,cs),
(172,36,o),
(117,103,o),
(117,225,c),
(140,223,o),
(162,222,o),
(184,222,cs),
(269,222,o),
(348,229,o),
(434,245,c),
(434,383,o),
(375,468,o),
(279,468,cs),
(133,468,o),
(40,368,o),
(40,209,cs),
(40,72,o),
(122,-12,o),
(256,-12,c,{
name = hr00;
})
);
},
{
closed = 1;
nodes = (
(129,331,o),
(158,385,o),
(203,415,c),
(217,418,o),
(233,420,o),
(251,420,cs),
(316,420,o),
(353,383,o),
(353,317,cs),
(353,306,o),
(352,295,o),
(350,283,c),
(274,270,o),
(197,263,o),
(120,262,c)
);
},
{
closed = 1;
nodes = (
(354,537,o),
(257,603,o),
(162,680,c),
(157,674,o),
(137,633,o),
(137,613,cs),
(137,608,o),
(138,603,o),
(142,601,cs),
(209,558,o),
(307,528,o),
(343,518,c),
(354,537,l,{
name = hr00;
})
);
}
);
};
layerId = master01;
shapes = (
{
ref = e;
},
{
pos = (89,0);
ref = gravecomb;
}
);
width = 469;
}
);
unicode = 232;
},
{
glyphname = emacron;
kernLeft = c;
lastChange = "2023-02-24 11:18:47 +0000";
layers = (
{
background = {
shapes = (
{
closed = 1;
nodes = (
(312,-12,o),
(378,9,o),
(417,38,c),
(414,51,o),
(409,59,o),
(400,68,c),
(358,47,o),
(315,36,o),
(273,36,cs),
(172,36,o),
(117,103,o),
(117,225,c),
(140,223,o),
(162,222,o),
(184,222,cs),
(269,222,o),
(348,229,o),
(434,245,c),
(434,383,o),
(375,468,o),
(279,468,cs),
(133,468,o),
(40,368,o),
(40,209,cs),
(40,72,o),
(122,-12,o),
(256,-12,c,{
name = hr00;
})
);
},
{
closed = 1;
nodes = (
(129,331,o),
(158,385,o),
(203,415,c),
(217,418,o),
(233,420,o),
(251,420,cs),
(316,420,o),
(353,383,o),
(353,317,cs),
(353,306,o),
(352,295,o),
(350,283,c),
(274,270,o),
(197,263,o),
(120,262,c)
);
},
{
closed = 1;
nodes = (
(395,570,l),
(395,633,l),
(114,633,l),
(114,570,l,{
name = hr00;
})
);
}
);
};
layerId = master01;
shapes = (
{
ref = e;
},
{
pos = (37,0);
ref = macroncomb;
}
);
width = 469;
}
);
unicode = 275;
},
{
glyphname = eogonek;
kernLeft = c;
lastChange = "2023-02-24 11:18:47 +0000";
layers = (
{
background = {
shapes = (
{
closed = 1;
nodes = (
(312,-12,o),
(378,9,o),
(417,38,c),
(414,51,o),
(409,59,o),
(400,68,c),
(358,47,o),
(315,36,o),
(273,36,cs),
(172,36,o),
(117,103,o),
(117,225,c),
(140,223,o),
(162,222,o),
(184,222,cs),
(269,222,o),
(348,229,o),
(434,245,c),
(434,383,o),
(375,468,o),
(279,468,cs),
(133,468,o),
(40,368,o),
(40,209,cs),
(40,72,o),
(122,-12,o),
(256,-12,c,{
name = hr00;
})
);
},
{
closed = 1;
nodes = (
(129,331,o),
(158,385,o),
(203,415,c),
(217,418,o),
(233,420,o),
(251,420,cs),
(316,420,o),
(353,383,o),
(353,317,cs),
(353,306,o),
(352,295,o),
(350,283,c),
(274,270,o),
(197,263,o),
(120,262,c)
);
},
{
closed = 1;
nodes = (
(198,-29,o),
(163,-90,o),
(163,-141,cs),
(163,-191,o),
(199,-233,o),
(266,-233,cs),
(305,-233,o),
(334,-218,o),
(352,-202,c),
(349,-188,o),
(344,-180,o),
(335,-172,c),
(319,-183,o),
(299,-189,o),
(280,-189,cs),
(250,-189,o),
(223,-173,o),
(223,-134,cs),
(223,-85,o),
(261,-18,o),
(354,7,c),
(275,7,l,{
name = hr00;
})
);
}
);
};
layerId = master01;
shapes = (
{
ref = e;
},
{
pos = (28,0);
ref = ogonekcomb;
}
);
width = 469;
}
);
unicode = 281;
},
{
glyphname = f;
kernLeft = f;
kernRight = f;
lastChange = "2023-02-24 11:19:01 +0000";
layers = (
{
anchors = (
{
name = bottom;
pos = (170,0);
},
{
name = top;
pos = (170,958);
}
);
background = {
shapes = (
{
closed = 1;
nodes = (
(153,4,l),
(285,0,l),
(293,-1,o),
(299,12,o),
(299,30,c),
(187,52,l),
(187,409,l),
(292,409,ls),
(300,409,o),
(306,429,o),
(306,457,c),
(187,457,l),
(187,516,ls),
(187,621,o),
(202,704,o),
(225,724,c),
(315,662,o),
(319,660,o),
(339,660,cs),
(352,660,o),
(369,696,o),
(369,723,c),
(335,742,o),
(258,762,o),
(220,762,c),
(144,725,o),
(116,642,o),
(116,460,c),
(41,448,l),
(41,425,o),
(47,409,o),
(55,409,cs),
(116,409,l),
(116,52,l),
(30,30,l),
(30,11,o),
(36,-1,o),
(44,0,cs,{
name = hr00;
})
);
}
);
};
layerId = master01;
shapes = (
{
closed = 1;
nodes = (
(153,4,l),
(285,0,l),
(293,-1,o),
(299,12,o),
(299,30,c),
(187,52,l),
(187,409,l),
(292,409,ls),
(300,409,o),
(306,429,o),
(306,457,c),
(187,457,l),
(187,516,ls),
(187,621,o),
(202,704,o),
(225,724,c),
(315,662,o),
(319,660,o),
(339,660,cs),
(352,660,o),
(369,696,o),
(369,723,c),
(335,742,o),
(258,762,o),
(220,762,c),
(144,725,o),
(116,642,o),
(116,460,c),
(41,448,l),
(41,425,o),
(47,409,o),
(55,409,cs),
(116,409,l),
(116,52,l),
(30,30,l),
(30,11,o),
(36,-1,o),
(44,0,cs,{
name = hr00;
})
);
}
);
width = 339;
}
);
unicode = 102;
},
{
glyphname = g;
kernLeft = c;
lastChange = "2023-02-24 11:19:06 +0000";
layers = (
{
anchors = (
{
name = bottom;
pos = (238,-262);
},
{
name = top;
pos = (238,456);
}
);
background = {
shapes = (
{
closed = 1;
nodes = (
(348,-262,o),
(460,-182,o),
(460,-76,cs),
(460,4,o),
(392,58,o),
(292,58,cs),
(129,58,l),
(130,79,o),
(146,113,o),
(170,146,c),
(186,143,o),
(203,141,o),
(220,141,cs,{
name = hr01;
}),
(336,141,o),
(404,204,o),
(404,310,cs),
(404,349,o),
(393,383,o),
(372,409,c),
(442,415,o),
(458,420,o),
(458,439,cs),
(458,459,o),
(436,485,o),
(436,485,c),
(404,477,o),
(371,459,o),
(345,435,c),
(314,456,o),
(274,468,o),
(229,468,cs,{
name = hr02;
}),
(120,468,o),
(48,403,o),
(48,306,cs),
(48,236,o),
(77,185,o),
(130,160,c),
(88,103,o),
(64,55,o),
(64,28,cs),
(64,15,o),
(68,6,o),
(76,0,c),
(109,0,l),
(52,-60,o),
(20,-102,o),
(20,-116,cs),
(20,-207,o),
(87,-262,o),
(200,-262,c)
);
},
{
closed = 1;
nodes = (
(164,180,o),
(121,235,o),
(121,315,cs,{
name = hr04;
}),
(121,361,o),
(135,397,o),
(160,416,c),
(180,423,o),
(205,428,o),
(226,428,cs),
(291,428,o),
(332,380,o),
(332,305,cs),
(332,228,o),
(291,180,o),
(227,180,cs)
);
},
{
closed = 1;
nodes = (
(134,-218,o),
(90,-178,o),
(90,-104,c),
(153,0,l),
(302,0,ls),
(355,0,o),
(391,-33,o),
(391,-82,cs),
(391,-159,o),
(314,-218,o),
(214,-218,c,{
name = hr05;
})
);
}
);
};
layerId = master01;
shapes = (
{
closed = 1;
nodes = (
(348,-262,o),
(460,-182,o),
(460,-76,cs),
(460,4,o),
(392,58,o),
(292,58,cs),
(129,58,l),
(130,79,o),
(146,113,o),
(170,146,c),
(186,143,o),
(203,141,o),
(220,141,cs,{
name = hr01;
}),
(336,141,o),
(404,204,o),
(404,310,cs),
(404,349,o),
(393,383,o),
(372,409,c),
(442,415,o),
(458,420,o),
(458,439,cs),
(458,459,o),
(436,485,o),
(436,485,c),
(404,477,o),
(371,459,o),
(345,435,c),
(314,456,o),
(274,468,o),
(229,468,cs,{
name = hr02;
}),
(120,468,o),
(48,403,o),
(48,306,cs),
(48,236,o),
(77,185,o),
(130,160,c),
(88,103,o),
(64,55,o),
(64,28,cs),
(64,15,o),
(68,6,o),
(76,0,c),
(109,0,l),
(52,-60,o),
(20,-102,o),
(20,-116,cs),
(20,-207,o),
(87,-262,o),
(200,-262,cs)
);
},
{
closed = 1;
nodes = (
(134,-218,o),
(90,-178,o),
(90,-104,c),
(153,0,l),
(302,0,ls),
(355,0,o),
(391,-33,o),
(391,-82,cs),
(391,-159,o),
(314,-218,o),
(214,-218,cs,{
name = hr05;
})
);
},
{
closed = 1;
nodes = (
(164,180,o),
(121,235,o),
(121,315,cs,{
name = hr04;
}),
(121,361,o),
(135,397,o),
(160,416,c),
(180,423,o),
(205,428,o),
(226,428,cs),
(291,428,o),
(332,380,o),
(332,305,cs),
(332,228,o),
(291,180,o),
(227,180,cs)
);
}
);
width = 475;
}
);
unicode = 103;
},
